<svg width="299" height="335" viewBox="0 0 299 335" fill="none" xmlns="http://www.w3.org/2000/svg">
<g clipPath="url(#clip0_28_909)">
<path d="M-12 320L-6.27384 320.738L-8.49791 315.41L-12 320ZM100.413 167L100.847 166.751L100.413 167ZM122.193 262.108L122.152 262.606L122.193 262.108ZM155.215 67.0675L154.8 67.3474C154.804 67.3536 154.809 67.3597 154.813 67.3657L155.215 67.0675ZM218.447 37.4324L218.309 37.913L218.447 37.4324ZM290.11 14L289.897 19.7696L295 17.0695L290.11 14ZM0.452073 315.117C3.08269 313.899 5.77384 312.609 8.50982 311.248L8.06462 310.353C5.33693 311.709 2.65413 312.996 0.0319206 314.21L0.452073 315.117ZM16.4718 307.155C19.0584 305.781 21.6705 304.349 24.2956 302.863L23.803 301.993C21.1857 303.475 18.5815 304.902 16.0026 306.272L16.4718 307.155ZM32.0128 298.354C34.5459 296.826 37.0802 295.249 39.6047 293.626L39.0638 292.785C36.5476 294.403 34.0216 295.974 31.4964 297.497L32.0128 298.354ZM47.049 288.678C49.5 286.993 51.9313 285.265 54.3325 283.496L53.7392 282.691C51.3472 284.454 48.9249 286.175 46.4827 287.854L47.049 288.678ZM61.4353 278.063C63.7763 276.203 66.0766 274.303 68.326 272.365L67.6731 271.607C65.4344 273.537 63.1443 275.428 60.8133 277.28L61.4353 278.063ZM74.9684 266.379C77.1559 264.315 79.279 262.213 81.3264 260.073L80.6039 259.381C78.569 261.508 76.458 263.599 74.2821 265.652L74.9684 266.379ZM87.3281 253.429C89.2815 251.132 91.141 248.797 92.8941 246.426L92.09 245.831C90.3513 248.183 88.5059 250.5 86.5663 252.782L87.3281 253.429ZM97.941 239.015C99.5416 236.445 101.01 233.838 102.332 231.195L101.437 230.748C100.131 233.361 98.6775 235.941 97.0922 238.486L97.941 239.015ZM105.909 222.979C106.959 220.147 107.831 217.279 108.51 214.379L107.536 214.152C106.868 217.009 106.007 219.836 104.971 222.631L105.909 222.979ZM109.953 205.515C110.223 202.551 110.282 199.558 110.112 196.539L109.114 196.595C109.281 199.564 109.223 202.508 108.957 205.424L109.953 205.515ZM108.946 187.627C108.356 184.761 107.551 181.876 106.52 178.974L105.578 179.309C106.594 182.168 107.386 185.009 107.967 187.829L108.946 187.627ZM102.997 170.747C102.33 169.418 101.613 168.086 100.847 166.751L99.9796 167.249C100.737 168.568 101.444 169.883 102.103 171.196L102.997 170.747ZM100.847 166.751C100.029 165.328 99.1928 163.971 98.3396 162.68L97.5053 163.231C98.3465 164.504 99.1719 165.843 99.9796 167.249L100.847 166.751ZM92.6823 155.312C90.484 152.867 88.2077 150.776 85.8754 149.016L85.273 149.814C87.5509 151.533 89.7804 153.58 91.9387 155.981L92.6823 155.312ZM77.8023 144.292C74.8296 143.017 71.8141 142.202 68.7979 141.803L68.6666 142.794C71.5924 143.182 74.5196 143.973 77.4083 145.211L77.8023 144.292ZM59.4514 141.853C56.3756 142.284 53.3493 143.111 50.4187 144.283L50.7899 145.211C53.6509 144.067 56.5993 143.262 59.5901 142.844L59.4514 141.853ZM42.1749 148.638C39.6134 150.341 37.1767 152.31 34.9035 154.503L35.5977 155.222C37.8294 153.069 40.2192 151.139 42.7284 149.471L42.1749 148.638ZM28.7642 161.506C26.925 163.988 25.2699 166.64 23.8331 169.423L24.7217 169.882C26.1337 167.146 27.7603 164.541 29.5677 162.101L28.7642 161.506ZM20.2476 178.025C19.2957 180.972 18.5856 184.012 18.15 187.11L19.1403 187.25C19.5675 184.21 20.2643 181.226 21.1992 178.332L20.2476 178.025ZM17.6941 196.426C17.8275 199.49 18.2459 202.576 18.9784 205.652L19.9512 205.421C19.2338 202.408 18.8239 199.385 18.6931 196.383L17.6941 196.426ZM21.9949 214.486C23.2355 217.24 24.7585 219.96 26.5851 222.622L27.4097 222.057C25.6163 219.443 24.1226 216.775 22.9066 214.076L21.9949 214.486ZM32.4343 229.828C34.4781 231.984 36.7548 234.082 39.2774 236.108L39.9037 235.329C37.4148 233.33 35.1715 231.262 33.1599 229.14L32.4343 229.828ZM46.8557 241.497C49.3772 243.088 52.0826 244.618 54.9796 246.08L55.43 245.187C52.5601 243.739 49.8826 242.224 47.3893 240.651L46.8557 241.497ZM63.4255 249.915C66.1565 251.03 69.0275 252.091 72.0433 253.093L72.3587 252.144C69.3631 251.149 66.5129 250.096 63.8034 248.99L63.4255 249.915ZM80.9176 255.754C83.8516 256.545 86.9041 257.286 90.0786 257.972L90.2899 256.995C87.1312 256.312 84.095 255.575 81.1778 254.789L80.9176 255.754ZM98.9974 259.7C101.974 260.213 105.046 260.683 108.216 261.106L108.348 260.114C105.19 259.693 102.131 259.226 99.1673 258.715L98.9974 259.7ZM117.375 262.169C118.945 262.326 120.537 262.471 122.152 262.606L122.235 261.61C120.626 261.475 119.039 261.33 117.474 261.174L117.375 262.169ZM122.152 262.606C123.674 262.734 125.176 262.846 126.655 262.943L126.721 261.945C125.247 261.848 123.752 261.737 122.235 261.61L122.152 262.606ZM135.275 263.35C138.33 263.435 141.283 263.451 144.138 263.399L144.12 262.399C141.281 262.451 138.343 262.435 135.303 262.351L135.275 263.35ZM152.886 263.012C155.897 262.794 158.784 262.493 161.55 262.111L161.413 261.121C158.67 261.499 155.805 261.798 152.814 262.014L152.886 263.012ZM170.133 260.588C173.113 259.932 175.928 259.166 178.584 258.298L178.274 257.347C175.651 258.205 172.868 258.962 169.917 259.612L170.133 260.588ZM186.77 255.067C189.548 253.759 192.105 252.31 194.451 250.731L193.893 249.901C191.591 251.451 189.078 252.875 186.344 254.162L186.77 255.067ZM201.303 245.192C203.453 243.104 205.346 240.864 206.997 238.486L206.176 237.916C204.561 240.241 202.71 242.432 200.607 244.475L201.303 245.192ZM211.308 230.809C212.487 228.157 213.438 225.383 214.177 222.502L213.208 222.254C212.482 225.084 211.549 227.805 210.394 230.402L211.308 230.809ZM215.738 213.856C216.056 211.006 216.205 208.076 216.198 205.078L215.198 205.08C215.205 208.044 215.058 210.936 214.745 213.745L215.738 213.856ZM215.758 196.301C215.488 193.447 215.097 190.545 214.595 187.603L213.609 187.772C214.108 190.691 214.495 193.568 214.763 196.395L215.758 196.301ZM212.849 179.026C212.191 176.23 211.446 173.405 210.62 170.561L209.66 170.84C210.481 173.669 211.222 176.476 211.875 179.255L212.849 179.026ZM207.988 162.213C207.061 159.48 206.068 156.734 205.015 153.982L204.081 154.34C205.129 157.08 206.118 159.814 207.041 162.535L207.988 162.213ZM201.747 145.867C200.621 143.199 199.445 140.531 198.225 137.867L197.316 138.284C198.532 140.938 199.704 143.597 200.826 146.256L201.747 145.867ZM194.474 129.971C193.191 127.36 191.87 124.759 190.518 122.174L189.632 122.637C190.98 125.216 192.297 127.809 193.577 130.412L194.474 129.971ZM186.373 114.473C184.959 111.916 183.518 109.379 182.056 106.867L181.192 107.37C182.65 109.876 184.087 112.406 185.498 114.957L186.373 114.473ZM177.578 99.3552C176.048 96.8481 174.502 94.3734 172.947 91.9366L172.104 92.4747C173.656 94.9058 175.198 97.3749 176.724 99.8761L177.578 99.3552ZM168.169 84.6124C166.53 82.1533 164.886 79.7419 163.246 77.3845L162.425 77.9556C164.062 80.3076 165.701 82.7136 167.337 85.1671L168.169 84.6124ZM158.178 70.2567C157.321 69.0771 156.467 67.9143 155.616 66.7693L154.813 67.3657C155.662 68.5078 156.514 69.6678 157.369 70.8446L158.178 70.2567ZM155.629 66.7876C154.839 65.6193 154.076 64.4025 153.356 63.1523L152.489 63.6515C153.222 64.9232 153.998 66.1602 154.8 67.3474L155.629 66.7876ZM149.703 55.4143C148.683 52.6123 148.014 49.8072 147.848 47.1388L146.85 47.2009C147.024 49.988 147.72 52.8889 148.763 55.7561L149.703 55.4143ZM149.336 38.9963C150.494 36.7374 152.371 34.7571 155.169 33.2149L154.686 32.3391C151.728 33.9695 149.703 36.0897 148.446 38.5401L149.336 38.9963ZM163.175 30.5419C165.66 30.0892 168.5 29.8257 171.733 29.784L171.72 28.784C168.442 28.8264 165.544 29.0937 162.995 29.5581L163.175 30.5419ZM180.31 30.1304C182.95 30.3586 185.783 30.701 188.82 31.1675L188.972 30.1791C185.915 29.7096 183.061 29.3644 180.396 29.1341L180.31 30.1304ZM197.367 32.7039C200.026 33.2453 202.814 33.8674 205.737 34.5748L205.972 33.6028C203.038 32.8928 200.238 32.268 197.567 31.7241L197.367 32.7039ZM214.082 36.7287C215.464 37.1063 216.873 37.501 218.309 37.913L218.585 36.9518C217.145 36.5386 215.732 36.1428 214.345 35.764L214.082 36.7287ZM218.309 37.913C219.73 38.3206 221.126 38.7126 222.498 39.0893L222.763 38.125C221.395 37.7494 220.002 37.3584 218.585 36.9518L218.309 37.913ZM230.778 41.2498C233.668 41.9624 236.437 42.5994 239.091 43.1647L239.299 42.1867C236.657 41.6237 233.897 40.9891 231.018 40.2789L230.778 41.2498ZM247.55 44.7949C250.54 45.3056 253.359 45.7118 256.014 46.0207L256.13 45.0274C253.494 44.7207 250.693 44.3172 247.718 43.8092L247.55 44.7949ZM264.6 46.7144C267.745 46.8429 270.602 46.8037 273.192 46.6153L273.119 45.6179C270.572 45.8032 267.753 45.8424 264.64 45.7152L264.6 46.7144ZM281.73 45.2341C284.981 44.3435 287.572 43.1001 289.591 41.5829L288.99 40.7834C287.09 42.2109 284.619 43.4056 281.466 44.2696L281.73 45.2341ZM294.724 34.5287C295.617 31.7906 295.687 28.8157 295.199 25.8309L294.212 25.9923C294.682 28.8622 294.605 31.6691 293.773 34.2187L294.724 34.5287Z" fill="#05BB75"/>
</g>
<defs>
<clipPath id="clip0_28_909">
<rect width="299" height="335" fill="white"/>
</clipPath>
</defs>
</svg>
