<svg width="670" height="407" viewBox="0 0 670 407" fill="none" xmlns="http://www.w3.org/2000/svg">
<g opacity="0.12">
<path fill-rule="evenodd" clip-rule="evenodd" d="M427.731 149.358C436.541 149.334 446.449 140.124 451.557 136.19C461.659 128.411 470.989 120.32 480.467 112.305C489.946 104.289 499.399 96.252 509.805 88.6086C516.56 83.6457 524.168 77.8143 533.813 74.4485C554.369 67.2783 551.316 89.8853 551.766 95.7412C552.914 110.638 552.39 127.726 563.094 141.69C569.484 150.025 580.201 153.349 595.821 151.559C600.9 150.982 606.746 149.274 611.694 150.721C616.98 152.266 620.03 155.821 622.075 158.771C629.526 169.532 630.389 181.905 631.325 193.29C632.352 205.568 632.052 217.96 632.131 230.151C632.165 235.32 635.472 240.719 638.159 245.641C641.682 252.095 645.639 258.471 649.465 264.871C657.861 278.95 666.705 293.458 668.838 308.354C670.174 317.682 668.368 327.878 656.746 335.125C650.911 338.763 642.237 340.667 634.531 342.771C625.222 345.317 615.823 347.763 606.661 350.473C577.151 359.206 548.315 371.674 546.866 391.91C546.647 394.972 547.359 397.978 547.493 401.025C547.575 402.966 546.74 404.693 543.125 405.414C534.057 407.227 519.743 401.527 512.549 399.19C496.801 394.073 481.76 388.302 466.328 382.896C456.122 379.32 442.176 373.129 429.776 373.064C418.727 373.007 410.742 381.259 405.3 385.752C400.205 389.961 393.074 397.589 382.71 398.051C377.684 398.274 373.519 396.413 370.286 394.47C364.634 391.064 360.646 387.139 354.197 384.075C343.616 379.05 329.058 374.852 314.8 375.534C304.921 376.008 298.451 379.173 292.267 383.199C289.666 384.892 287.827 386.265 283.605 386.355C276.902 386.499 269.808 385.024 263.592 383.81C241.349 379.464 219.84 373.292 199.758 366.427C189.722 362.996 179.717 359.29 171.155 354.741C165.534 351.762 158.843 347.744 158.851 343.199C158.851 337.938 162.232 332.37 164.76 327.256C169.485 317.704 174.948 308.267 180.552 298.868C193.517 277.132 207.532 255.599 222.597 234.272C233.227 219.249 243.872 203.907 258.004 189.783C260.779 187.029 264.015 184.429 267.667 182.019C271.503 179.443 273.22 176.248 274.499 173.008C282.441 152.896 276.344 130.864 272.521 110.669C271.552 105.543 270.578 100.417 269.9 95.2767C269.317 90.8577 267.644 85.5674 270.157 81.2725C275.103 72.8096 293.333 80.2077 300.761 83.3355C326.915 94.3476 349.043 108.555 371.633 121.724C382.391 127.985 393.121 134.294 404.488 140.215C410.397 143.298 420.007 149.378 427.731 149.358Z" stroke="#212C4F"/>
<path fill-rule="evenodd" clip-rule="evenodd" d="M429.216 153.152C438.539 149.777 445.429 143.855 451.914 138.939C461.25 131.865 470.067 124.569 479.138 117.382C487.716 110.587 496.392 103.777 506.133 97.4839C512.073 93.6466 519.177 88.8319 527.963 87.0143C547.007 83.0716 544.118 104.282 544.616 109.518C545.849 122.536 546.131 137.295 556.158 149.338C562.419 156.858 572.802 159.948 587.218 158.344C592.206 157.789 596.464 156.79 601.426 158.055C607.168 159.517 610.749 162.881 613.276 165.965C621.194 175.625 622.876 187.043 624.276 197.514C625.722 208.331 626.741 219.602 625.683 230.072C625.262 234.258 627.653 239.077 629.487 243.221C632.312 249.596 635.571 255.906 638.601 262.25C644.765 275.142 650.703 288.369 651.379 301.781C651.866 311.464 649.221 321.559 638.997 329.615C628.629 337.779 612.557 341.401 597.278 345.929C570.863 353.748 538.747 364.308 533.166 382.397C532.319 385.14 532.779 387.777 532.571 390.517C532.465 391.926 532.131 393.53 529.658 394.244C523.238 396.099 511.498 391.016 506.58 389.305C492.989 384.579 480.062 379.265 466.733 374.311C456.149 370.377 444.389 365.391 431.843 363.869C416.619 362.023 405.786 374.088 395.066 378.331C376.477 385.686 365.885 371.75 357.022 364.88C346.847 356.99 328.283 350.478 312.54 357.55C306.52 360.256 302.932 363.585 295.076 364.793C282.789 366.683 268.748 365.254 256.603 363.721C238.345 361.411 220.285 357.755 203.784 352.786C191.97 349.226 173.445 343.32 174.835 334.671C175.762 328.848 179.149 322.929 182.144 317.26C186.626 308.771 191.734 300.389 197.04 292.052C209.254 272.806 222.722 253.773 237.536 235.113C247.647 222.381 288.968 186.867 290.442 184.194C294.834 176.227 294.061 167.168 293.381 158.953C292.477 148.026 290.134 137.153 287.964 126.29C286.937 121.118 285.681 115.921 285.175 110.722C284.815 107.022 284.507 102.163 288.336 98.9218C295.808 92.5956 312.902 99.6436 320.134 102.558C342.306 111.488 361.506 122.783 381.138 133.374C390.777 138.571 400.4 143.848 410.812 148.566C415.016 150.468 423.458 155.238 429.216 153.152Z" stroke="#212C4F"/>
<path fill-rule="evenodd" clip-rule="evenodd" d="M433.997 157.822C452.653 148.604 466.528 135.881 482.109 124.901C489.932 119.389 497.967 113.844 507.285 109.09C512.13 106.618 518.257 103.53 525.011 103.054C543.079 101.781 540.636 120.898 541.321 126.62C542.652 137.683 543.662 150.18 552.882 160.217C558.518 166.348 567.769 169.368 579.928 168.222C585.323 167.714 589.906 166.923 595.203 168.222C600.57 169.538 604.357 172.281 607.195 175.058C615.36 183.039 617.97 192.957 619.914 201.943C622.179 212.484 623.064 223.104 622.56 233.718C622.126 243.014 627.01 252.265 630.229 261.342C634.491 273.366 638.213 285.608 637.651 297.912C637.204 307.629 633.692 317.423 624.359 325.731C614.853 334.172 600.626 339.247 585.274 343.823C562.066 350.74 530.966 359.361 522.152 374.536C520.867 376.743 520.726 378.8 520.502 381.076C520.395 382.182 520.361 383.609 518.309 384.158C513.366 385.477 503.783 380.6 500.444 379.239C489.783 374.894 479.602 370.184 469.082 365.731C459.26 361.573 449.026 357.045 437.517 354.463C419.187 350.353 408.469 363.492 391.003 363.124C380.159 362.894 372.383 357.061 367.003 352.442C360.388 346.755 356.039 338.566 343.967 335.719C334.976 333.599 329.743 336.926 322.919 339.488C311.359 343.83 295.688 344.126 282.306 343.674C264.223 343.065 245.873 340.685 229.252 336.633C221.717 334.797 213.879 332.548 208.027 329.237C202.542 326.135 201.137 323.199 202.259 319.053C205.702 306.362 215.297 293.548 223.867 281.379C234.636 266.088 246.526 251.008 259.902 236.378C269.025 226.403 278.676 216.202 291.28 207.445C294.565 205.163 298.136 202.826 302.47 201.158C305.728 199.896 308.417 199.361 310.277 197.234C315.788 190.932 314.347 182.166 313.774 175.413C312.862 164.616 310.434 153.871 308.248 143.14C306.963 136.878 302.922 125.082 312.615 120.082C320.985 115.766 335.256 120.974 342.629 123.635C361.274 130.364 377.639 139.021 394.489 147.052C402.211 150.733 409.992 154.558 418.578 157.598C420.767 158.375 423.667 159.619 426.326 159.833C429.373 160.072 431.698 158.953 433.997 157.822Z" stroke="#212C4F"/>
<path fill-rule="evenodd" clip-rule="evenodd" d="M429.654 158.615C446.149 150.097 459.701 139.835 475.137 130.691C482.058 126.591 489.318 122.45 497.761 119.326C502.301 117.646 508.017 115.861 513.66 116.325C529.857 117.654 528.394 133.378 529.343 139.73C530.736 149.169 532.14 160.012 540.874 168.358C546.594 173.825 555.042 175.875 565.938 174.855C577.625 173.759 586.11 176.209 592.63 181.784C600.797 188.775 604.127 197.599 606.492 205.715C609.328 215.494 610.585 225.396 610.248 235.302C609.919 244.936 612.794 254.269 614.663 263.839C617.138 276.528 618.36 289.623 613.285 302.169C608.865 313.092 599.126 322.958 584.066 330.354C568.347 338.079 548.543 341.904 531.153 348.176C520.306 352.089 505.957 357.544 501.741 364.855C500.335 367.294 502.232 371.737 495.313 369.79C491.357 368.677 487.886 366.594 484.652 364.948C479.425 362.288 474.342 359.541 469.187 356.837C458.199 351.074 446.977 344.902 433.965 340.583C417.583 335.14 404.975 343.23 388.364 342.244C379.425 341.714 372.29 338.224 366.686 334.531C363.056 332.141 359.911 329.527 356.978 326.858C353.913 324.07 351.579 320.771 347.617 318.34C341.979 314.875 335.305 316.379 328.016 317.029C315.207 318.172 302.195 318.424 289.277 317.777C273.442 316.986 257.155 315.13 242.765 311.222C237.163 309.702 231.224 307.776 227.468 304.916C223.712 302.056 223.969 299.098 225.1 295.821C228.443 286.101 236.22 276.401 243.591 267.18C252.818 255.639 263.13 244.325 274.861 233.52C282.96 226.062 291.709 218.58 302.689 212.34C305.885 210.525 309.307 208.799 313.127 207.403C315.747 206.444 319.128 205.93 321.097 204.541C327.245 200.196 325.409 191.472 325.052 186.375C324.339 176.205 320.953 166.194 320.131 156.036C319.681 150.493 318.55 141.81 326.954 137.739C334.855 133.91 347.298 137.378 354.911 139.666C369.879 144.163 383.214 150.205 397.128 155.62C402.854 157.847 408.844 160.286 415.382 161.729C421.208 163.011 425.424 160.798 429.654 158.615Z" stroke="#212C4F"/>
<path fill-rule="evenodd" clip-rule="evenodd" d="M429.384 160.709C443.9 153.93 456.785 145.756 471.536 138.927C480.175 134.93 494.698 128.046 506.878 131.138C520.261 134.529 520.625 146.351 521.704 153.184C522.987 161.317 524.741 170.868 533.097 177.828C535.739 180.029 539.236 181.904 543.841 182.699C548.77 183.55 553.083 182.62 558.018 182.499C568.369 182.245 576.679 185.716 582.386 190.308C590.455 196.8 594.27 204.917 596.93 212.584C599.93 221.27 601.409 230.101 601.346 238.949C601.294 247.405 601.628 255.772 602.013 264.236C602.527 275.306 601.697 286.532 596.463 297.27C591.303 307.848 581.632 317.465 567.406 325.02C553.525 332.39 536.558 337.362 519.275 341.717C509.465 344.188 494.806 348.363 489.851 354.257C487.646 356.878 487.798 359.45 482.062 356.663C474.841 353.153 469.046 348.423 462.869 344.358C453.956 338.495 444.868 332.484 434.27 327.562C427.503 324.418 420.935 323.018 412.173 323.234C405.498 323.401 398.893 324.16 392.192 323.776C376.465 322.878 365.68 315.92 355.637 309.77C349.178 305.813 344.251 302.199 335.063 300.162C324.203 297.753 312.388 296.742 301.113 295.132C288.731 293.364 275.851 291.321 264.945 287.461C255.236 284.025 250.882 279.846 253.498 273.591C257.575 263.835 267.618 254.219 276.909 245.559C286.361 236.743 296.99 228.08 309.983 220.775C316.999 216.831 325.238 214.139 332.775 210.637C342.238 206.231 338.654 196.265 337.853 190.342C336.523 180.509 326.573 149.572 358.802 152.426C372.255 153.618 384.67 158.31 396.541 161.742C401.468 163.165 407.38 165.223 413.026 165.545C419.174 165.895 425.015 162.748 429.384 160.709Z" stroke="#212C4F"/>
<path fill-rule="evenodd" clip-rule="evenodd" d="M428.151 164.289C441.305 159.108 453.732 152.908 467.939 148.462C477.14 145.578 489.433 142.746 499.168 146.467C510.154 150.666 512.715 159.924 514.115 166.728C515.556 173.737 516.768 182.105 525.098 187.834C527.752 189.657 531.33 191.159 535.614 191.439C539.724 191.709 543.834 190.947 548.018 191.2C557.414 191.765 565.156 194.965 570.771 199.09C587.382 211.293 591.076 229.457 591.51 244.181C591.726 251.551 590.593 259.135 589.781 266.553C588.728 276.178 586.468 285.818 581.02 294.997C569.441 314.515 543.759 327.596 511.803 336.733C501.745 339.608 490.861 341.808 482.778 346.314C478.604 348.638 475.606 348.13 471.8 345.755C465.851 342.042 461.304 337.513 456.339 333.391C449.278 327.53 442.112 321.543 433.653 316.359C427.822 312.786 422.205 310.249 413.461 309.479C407.227 308.93 400.875 309.058 394.603 308.728C382.687 308.099 370.861 305.946 360.977 302.135C353.143 299.107 346.022 295.502 339.234 291.776C330.395 286.932 321.415 282.836 310.925 279.157C297.039 274.281 271.425 267.428 278.203 255.941C285.683 243.272 304.688 231.398 323.103 223.269C329.285 220.539 336.868 218.299 341.427 214.617C348.242 209.106 348.003 203.514 347.975 196.959C347.936 187.145 344.142 165.789 370.321 165.558C380.694 165.467 390.501 167.988 400.477 169.195C411.65 170.556 419.187 167.828 428.151 164.289Z" stroke="#212C4F"/>
<path fill-rule="evenodd" clip-rule="evenodd" d="M426.979 168.148C444.122 163.024 472.293 151.532 491.357 160.272C501.432 164.889 505.218 173.055 507.474 179.906C509.299 185.418 509.984 192.067 517.721 196.232C523.409 199.294 531.687 197.934 538.807 199.107C547.635 200.563 554.858 203.905 560.286 208.011C575.459 219.485 580.115 235.439 581.106 249.242C582.133 263.578 577.33 279.373 568.092 292.863C556.57 309.683 534.752 322.284 507.122 331.097C502.022 332.723 496.788 334.2 491.627 335.761C488.164 336.81 484.814 338.365 481.172 339.192C475.099 340.569 470.135 338.947 466.177 336.347C460.478 332.607 456.423 328.014 452.146 323.75C446.294 317.92 440.547 311.96 433.681 306.536C429.06 302.892 424.083 299.077 416.067 297.773C410.6 296.883 404.809 296.698 399.147 296.73C387.006 296.799 377.188 296.441 366.068 293.259C347.813 288.021 331.398 279.968 317.74 271.46C307.021 264.782 290.37 254.217 297.537 244.488C303.954 235.76 319.314 230.654 331.732 224.903C337.769 222.107 343.282 218.966 347.577 215.275C352.99 210.622 355.262 206.242 356.147 200.729C357.639 191.451 358.026 177.46 377.842 174.592C385.155 173.533 392.73 174.137 400.137 173.582C409.932 172.856 418.331 170.734 426.979 168.148Z" stroke="#212C4F"/>
<path fill-rule="evenodd" clip-rule="evenodd" d="M426.344 173.477C445.103 169.828 468.744 165.033 485.416 173.847C493.492 178.117 498.007 184.122 501.381 189.934C503.799 194.097 504.511 200.706 511.945 203.258C517.416 205.132 524.963 205.392 530.824 207.087C538.883 209.417 545.52 212.947 550.716 217.088C564.256 227.876 569.488 241.927 570.986 254.74C574.236 282.582 548.347 310.911 505.752 325.81C493.055 330.252 479.541 335.986 466.57 328.807C452.418 320.969 445.789 309.162 435.734 299.808C431.894 296.233 427.279 291.678 420.328 289.684C416.15 288.485 410.908 288.403 406.308 288.348C394.593 288.204 384.057 287.657 373.126 285.011C356.233 280.925 340.648 274.41 327.882 267.026C316.75 260.587 303.668 251.404 311.693 242.052C317.86 234.882 330.95 230.334 340.599 224.763C351.346 218.563 358.587 210.895 362.125 202.475C365.558 194.284 367.874 185.3 382.459 180.983C387.462 179.502 393.94 177.955 399.478 177.4C408.608 176.504 417.593 175.192 426.344 173.477Z" stroke="#212C4F"/>
<path fill-rule="evenodd" clip-rule="evenodd" d="M426.212 179.419C445.154 177.731 464.905 177.543 479.835 185.387C486.8 189.048 491.748 193.675 496.231 198.355C499.53 201.798 502.312 205.353 507.72 207.924C512.727 210.307 518.541 212.118 523.679 214.418C530.489 217.452 536.383 221.082 541.137 225.169C553.029 235.414 558.591 247.877 560.521 259.8C561.458 265.572 561.947 271.833 559.39 277.566C556.924 283.103 553.024 288.577 548.477 293.668C538.819 304.49 524.676 313.869 506.795 320.669C494.53 325.331 482.604 327.852 470.162 321.814C456.137 315.008 448.399 304.336 439.296 295.539C433.053 289.506 426.934 282.745 413.667 281.618C403.11 280.72 393.09 279.992 383.112 277.67C368.394 274.214 355.061 269.134 343.904 262.729C333.741 256.872 325.116 249.463 330.545 241.085C334.853 234.447 344.506 229.298 351.406 223.498C359.114 217.035 363.363 209.935 366.78 202.457C369.863 195.737 374.6 189.41 384.659 185.067C386.714 184.178 388.952 183.244 391.251 182.559C394.185 181.684 397.093 181.752 400.382 181.58C409.06 181.133 417.639 180.182 426.212 179.419Z" stroke="#212C4F"/>
<path fill-rule="evenodd" clip-rule="evenodd" d="M427.76 185.97C445.753 186.114 462.757 188.545 476.779 195.201C482.777 198.046 487.717 201.444 493.214 204.576C497.645 207.097 501.762 209.479 505.414 212.378C514.06 219.255 525.249 224.844 532.948 232.152C543.241 241.908 548.93 253.083 551.205 264.171C552.317 269.585 552.705 275.178 551.45 280.656C550.371 285.361 546.586 289.867 542.713 294.046C535.127 302.239 524.345 310.193 510.704 315.512C480.631 327.239 458.766 304.118 445.961 292.251C440.071 286.793 433.249 278.454 421.582 276.218C413.247 274.62 404.771 273.647 396.693 271.588C375.001 266.06 349.487 254.838 352.883 239.883C354.335 233.483 360.23 227.651 364.188 221.677C368.264 215.525 370.536 209.176 373.03 202.783C375.358 196.807 378.673 192.045 387.558 188.185C391.802 186.341 396.881 186.504 402.087 186.339C410.638 186.071 419.238 185.905 427.76 185.97Z" stroke="#212C4F"/>
<path fill-rule="evenodd" clip-rule="evenodd" d="M430.065 191.935C457.223 194.338 486.871 203.261 502.643 216.382C521.196 231.815 536.819 248.536 541.31 266.976C543.392 275.525 544.417 284.89 537.607 292.957C532.428 299.096 524.685 306.228 513.798 309.606C487.166 317.873 465.966 299.486 453.645 289.011C447.013 283.371 440.549 276.192 430.863 271.941C425.247 269.475 417.819 268.216 411.651 266.225C392.959 260.191 377.883 250.258 375.187 237.886C373.942 232.165 375.482 226.402 376.707 220.725C377.96 214.913 378.641 209.029 380.389 203.254C381.786 198.644 384.151 193.21 392.936 191.512C404.006 189.371 418.974 190.955 430.065 191.935Z" stroke="#212C4F"/>
<path fill-rule="evenodd" clip-rule="evenodd" d="M434.427 197.785C459.96 201.289 484.866 208.709 500.108 221.183C508.191 227.798 513.77 235.477 519.283 242.849C525.531 251.206 530.38 259.937 532.786 268.855C535.782 279.958 538.483 297.941 515.958 303.742C493.599 309.5 473.81 294.95 462.533 286.346C455.308 280.83 448.678 274.926 440.78 269.656C436.499 266.798 431.551 264.596 426.53 262.178C412.616 255.493 401.601 245.964 395.721 236.252C390.02 226.838 387.497 215.192 389.38 205.256C390.19 200.968 392.922 197.904 400.688 196.607C411.485 194.81 423.88 196.337 434.427 197.785Z" stroke="#212C4F"/>
<path fill-rule="evenodd" clip-rule="evenodd" d="M441.304 203.599C463.785 207.08 484.318 214.588 497.81 225.54C512.936 237.816 521.34 253.624 525.614 268.154C527.884 275.877 534.04 292.613 516.424 296.549C498.808 300.486 481.449 289.106 471.893 282.556C460.312 274.607 449.13 266.036 438.74 257.476C429.705 250.038 420.469 242.102 413.492 234.046C409.535 229.502 406.303 224.769 403.836 219.903C402.024 216.299 399.322 211.717 400.67 207.939C404.077 198.41 430.555 201.934 441.304 203.599Z" stroke="#212C4F"/>
<path fill-rule="evenodd" clip-rule="evenodd" d="M448.036 210.773C490.55 218.411 511.459 242.61 518.747 265.909C520.438 271.323 526.538 286.501 513.551 289.527C500.959 292.459 486.027 283.133 478.952 278.766C457.029 265.236 440.774 248.52 424.67 232.679C419.644 227.735 408.736 218.818 413.768 212.684C419.241 206.025 439.221 209.191 448.036 210.773Z" stroke="#212C4F"/>
<path fill-rule="evenodd" clip-rule="evenodd" d="M456.219 218.597C487.527 225.239 505.484 244.559 511.403 262.321C512.852 266.671 517.361 277.72 508.625 281.015C500.543 284.065 488.832 276.788 484.179 274.065C473.816 268.004 465.28 260.821 457.074 253.725C449.483 247.164 441.702 240.532 435.281 233.628C431.902 229.992 424.69 223.172 429.909 219.04C435.523 214.591 449.267 217.122 456.219 218.597Z" stroke="#212C4F"/>
<path fill-rule="evenodd" clip-rule="evenodd" d="M465.366 227.218C485.811 232.281 499.088 245.84 503.5 257.8C504.684 261.018 507.758 267.974 502.297 270.689C497.269 273.189 489.897 269.16 486.492 267.373C471.402 259.449 457.922 247.846 449.643 237.215C447.562 234.542 443.476 229.737 447.678 226.987C451.992 224.166 460.671 226.055 465.366 227.218Z" stroke="#212C4F"/>
<path fill-rule="evenodd" clip-rule="evenodd" d="M473.955 236.364C484.107 239.216 491.767 246.672 494.205 252.848C495.92 257.195 494.439 262.419 485.601 258.631C476.831 254.868 468.821 247.886 465.27 241.968C462.562 237.453 465.234 233.914 473.955 236.364Z" stroke="#212C4F"/>
<path fill-rule="evenodd" clip-rule="evenodd" d="M403.637 5.03138C423.695 4.84842 444.54 -1.13747 464.978 1.81873C481.763 4.24622 483.164 16.4672 490.769 23.7986C496.811 29.6246 507.513 32.9309 517.782 36.0816C527.001 38.9124 536.497 41.4552 545.565 44.4373C551.427 46.3678 562.938 49.6827 563.146 53.8692C563.346 57.8771 554.376 61.5521 549.073 63.8802C542.161 66.9157 534.793 69.6068 527.771 72.5543C515.926 77.5217 507.159 83.4816 498.861 90.306C489.42 98.072 480.301 105.966 471.504 113.989C465.008 119.895 458.561 125.842 451.424 131.52C446.945 135.081 438.542 142.941 430.286 142.977C426.346 142.995 421.983 140.898 418.834 139.485C413.503 137.094 408.629 134.368 403.86 131.634C394.978 126.541 386.498 121.232 377.915 115.981C366.776 109.165 355.82 102.655 343.174 96.6635C330.085 90.4687 316.564 84.5506 303.229 78.5114C294.194 74.4214 284.049 70.3357 278.505 64.4363C271.575 57.0473 278.882 50.9821 278.967 43.5095C279.042 37.0814 305.569 37.5553 312.946 36.7385C320.412 35.9188 327.362 34.1122 334.846 33.4121C344.188 32.539 353.746 32.5275 363.188 32.3128C374.738 32.0521 385.733 31.9484 390.137 25.0174C392.639 21.0729 393.166 16.8058 394.665 12.723C395.637 10.078 397.3 5.089 403.637 5.03138Z" stroke="#212C4F"/>
<path fill-rule="evenodd" clip-rule="evenodd" d="M407.205 8.19228C424.019 7.51847 445.538 3.53772 462.894 7.30205C477.725 10.5181 479.648 20.5761 487.439 27.3487C493.865 32.9396 504.38 35.4285 514.711 38.2233C522.998 40.4654 531.365 42.6398 539.387 45.1849C545.299 47.0606 555.28 49.9246 556.504 53.8246C557.604 57.3306 548.792 61.0906 544.31 63.0587C537.765 65.9299 530.658 68.3856 523.7 70.9221C511.477 75.379 500.486 79.9426 491.508 86.4656C482.491 93.0175 475.748 100.185 468.731 107.43C463.241 113.097 457.591 118.736 451.252 124.121C446.533 128.132 440.492 133.899 432.077 135.734C425.419 137.187 414.372 129.818 410.472 127.645C402.455 123.173 394.929 118.433 387.449 113.685C378.334 107.896 370.363 101.923 359.966 96.8107C341.377 87.6675 318.227 80.0249 304.411 68.2601C296.078 61.1642 293.947 53.2676 295.194 45.3754C295.687 42.2502 303.545 41.4999 308.128 41.106C315.742 40.451 323.486 40.3688 331.131 39.8652C338.287 39.3934 345.086 38.3459 352.103 37.5019C359.213 36.6477 366.497 36.4082 373.656 35.7791C378.1 35.3896 383.272 35.0043 386.845 33.3004C390.544 31.5372 392.094 28.6285 393.271 26.0862C395.461 21.3119 395.34 8.66841 407.205 8.19228Z" stroke="#212C4F"/>
<path fill-rule="evenodd" clip-rule="evenodd" d="M414.244 12.2595C429.677 11.1263 448.899 9.53981 463.118 14.1563C474.745 17.9297 477.253 25.9775 484.828 31.7257C491.128 36.5067 501.147 38.3126 510.458 40.6858C518.095 42.6331 525.765 44.5906 533.033 46.9508C538.544 48.7408 546.017 51.0476 547.94 54.6016C549.583 57.6402 542.223 61.073 538.56 62.7576C532.316 65.6259 525.321 67.9645 518.418 70.2872C507.123 74.0866 495.058 77.5828 485.87 82.9904C476.955 88.2449 471.692 94.4868 465.775 100.846C461.242 105.716 456.534 110.556 451.128 115.145C446.979 118.669 442.063 123.036 435.16 124.872C429.207 126.46 422.161 122.383 417.961 120.346C411.03 116.983 404.671 113.25 398.287 109.569C391.399 105.596 385.046 101.196 377.989 97.3522C363.139 89.2684 346.696 82.8099 335.319 72.8466C327.949 66.3939 321.254 57.711 322.458 50.0833C323.326 44.5978 344.946 44.9587 351.854 44.4318C363.149 43.5657 375.016 41.8926 385.421 39.235C394.336 36.9528 397.086 31.5294 399.085 26.5405C400.341 23.4152 401.018 20.1398 402.959 17.117C405.208 13.6178 407.775 12.7344 414.244 12.2595Z" stroke="#212C4F"/>
<path fill-rule="evenodd" clip-rule="evenodd" d="M421.478 16.0535C434.526 15.3788 449.955 15.5305 461.242 19.9009C471.129 23.731 473.732 30.5503 481.52 35.4004C487.596 39.1857 497.503 40.6724 505.538 42.7081C515.363 45.196 533.509 48.6822 537.206 54.9583C540.643 60.7966 518.687 66.9022 512.139 69.0159C501.777 72.362 490.413 75.1605 480.843 79.2189C472.604 82.7138 468.05 87.3963 463.155 92.3663C456.904 98.7031 449.492 108.324 437.309 111.712C428.231 114.237 414.735 106.025 408.445 103.221C401.875 100.288 394.087 98.0789 387.748 95.0521C377.746 90.2757 369.692 82.5361 363.547 76.1459C357.569 69.9333 350.952 61.8657 351.346 54.8181C351.603 50.1862 364.342 49.3049 370.565 48.3167C379.412 46.9008 387.339 45.0183 393.356 40.9744C399.48 36.8582 402.367 32.0067 404.892 26.9066C406.18 24.2887 407.184 21.3023 409.784 18.9604C412.613 16.3728 416.462 16.3135 421.478 16.0535Z" stroke="#212C4F"/>
<path fill-rule="evenodd" clip-rule="evenodd" d="M428.999 20.6761C440.272 20.7136 452.292 22.1609 460.987 26.4523C468.23 30.0266 470.651 35.6214 478.055 39.043C483.917 41.7532 492.146 43.1329 498.953 44.9474C507.295 47.1665 521.867 50.3045 524.762 55.8229C527.58 61.2088 511.529 65.9726 505.178 68.0377C495.866 71.0619 485.995 73.5101 476.708 76.5616C469.421 78.9521 464.725 81.8755 460.029 85.7681C454.513 90.3375 448.403 96.7127 439.278 99.1537C432.67 100.913 422.113 96.6537 416.292 95.107C412.382 94.0702 408.411 93.1212 404.174 92.5999C400.874 92.1938 397.82 92.1534 394.987 90.9769C387.859 88.0146 386.929 81.5198 384.58 77.1132C381.462 71.2606 377.919 65.051 377.243 58.9263C376.82 55.1619 382.997 53.2408 387.342 51.0922C392.479 48.5533 396.173 44.9589 400.049 41.8195C405.173 37.6764 408.36 33.1674 411.624 28.503C413.097 26.399 414.542 23.9278 417.47 22.2977C420.506 20.5955 424.931 20.6632 428.999 20.6761Z" stroke="#212C4F"/>
<path fill-rule="evenodd" clip-rule="evenodd" d="M435.691 25.5311C445.158 26.275 454.207 28.593 460.899 32.5083C466.038 35.5096 468.931 39.4955 475.104 41.9043C480.859 44.1488 487.403 45.7129 493.556 47.5668C500.061 49.5287 510.934 52.4435 512.704 56.9686C514.61 61.8454 503.643 65.6021 497.564 67.6822C489.882 70.3102 481.617 72.3068 473.671 74.6565C467.748 76.4267 462.331 78.6847 457.6 81.3554C452.614 84.1563 447.838 87.9548 440.98 89.3719C434.907 90.6246 427.559 88.2806 421.401 87.8669C414.821 87.4244 407.91 88.1999 402.26 85.7464C390.609 80.6865 392.77 67.9878 392.521 60.7282C392.264 53.5651 399.393 47.8061 406.176 42.0096C410.654 38.1808 414.446 34.1934 418.618 30.2681C422.875 26.2663 427.359 24.8767 435.691 25.5311Z" stroke="#212C4F"/>
<path fill-rule="evenodd" clip-rule="evenodd" d="M441.109 30.0415C454.825 32.2412 462.115 39.1115 472.48 44.0229C480.965 48.0416 498.538 51.0548 500.862 57.8227C503.501 65.5065 480.217 70.1064 471.233 72.7778C461.269 75.742 453.164 81.0212 442.616 83.2166C437.08 84.3706 431.914 83.3796 426.381 82.7651C420.305 82.0915 414.092 81.5852 409.202 79.26C399.577 74.6832 399.644 65.7445 399.379 59.3069C399.104 52.6429 405.7 46.7477 412.282 41.4381C419.253 35.8069 427.044 27.7884 441.109 30.0415Z" stroke="#212C4F"/>
<path fill-rule="evenodd" clip-rule="evenodd" d="M444.828 33.7261C454.6 36.2048 462.545 41.4134 470.044 45.6399C476.296 49.1676 488.883 52.9626 489.78 58.3412C490.838 64.6628 477.398 68.4941 469.157 70.9815C461.06 73.4296 452.51 76.9573 443.622 78.3129C434.364 79.7265 421.895 75.9621 415.344 72.3719C408.039 68.3677 405.34 61.8166 405.631 56.1953C405.927 50.3096 411.965 44.9091 418.227 40.4516C424.922 35.6861 433.485 30.8435 444.828 33.7261Z" stroke="#212C4F"/>
<path fill-rule="evenodd" clip-rule="evenodd" d="M446.668 37.1447C454.796 39.5123 461.671 43.6164 467.804 47.4006C472.539 50.3208 480.59 54.63 480.787 58.8431C481.005 63.4781 474.247 67.4062 467.32 69.2488C460.488 71.0653 451.923 72.9791 444.428 73.2511C428.106 73.8416 409.823 61.8201 411.311 52.7932C412.721 44.2345 430.475 32.424 446.668 37.1447Z" stroke="#212C4F"/>
<path fill-rule="evenodd" clip-rule="evenodd" d="M447.565 40.3067C458.154 43.573 473.251 51.5068 473.61 58.8519C474.019 67.2829 457.219 69.3994 445.045 68.3005C432.619 67.1841 414.633 57.4637 417.063 49.713C419.435 42.1484 435.006 36.4357 447.565 40.3067Z" stroke="#212C4F"/>
<path fill-rule="evenodd" clip-rule="evenodd" d="M449.276 43.645C458.143 46.4104 469.218 52.3117 469.553 58.4666C469.95 65.8003 455.766 65.6619 446.938 63.9989C437.772 62.2696 422.116 54.6534 424.588 48.2319C427.001 41.9877 440.778 40.9948 449.276 43.645Z" stroke="#212C4F"/>
<path fill-rule="evenodd" clip-rule="evenodd" d="M450.297 46.5517C456.624 48.3771 464.62 52.9456 464.876 57.2887C465.184 62.5972 453.934 61.5653 448.504 60.1937C442.043 58.5634 430.816 53.0988 432.635 48.5129C434.426 43.9979 445.084 45.0457 450.297 46.5517Z" stroke="#212C4F"/>
<path fill-rule="evenodd" clip-rule="evenodd" d="M88.8142 296.273C76.1208 284.523 65.6431 271.24 54.9933 258.714C39.4321 240.409 24.2893 221.835 12.6973 202.601C6.48413 192.289 -2.47366 178.927 2.3942 167.862C4.17344 163.817 9.55478 160.127 13.0516 156.5C17.8733 151.499 22.4561 146.423 27.0493 141.357C36.2561 131.193 45.3705 120.998 55.1679 111.009C59.8868 106.2 65.8305 101.532 69.8562 96.5251C72.2106 93.5988 71.1091 90.097 70.9602 86.9703C70.6136 79.7274 69.9563 72.4888 69.3966 65.2503C68.7137 56.3964 67.9871 47.5223 68.2567 38.6584C68.3799 34.6605 67.1167 24.8692 73.2478 22.6684C76.5495 21.4843 82.5034 24.275 85.2583 25.5687C90.3213 27.944 94.8836 30.6742 99.3997 33.3683C109.844 39.5987 119.79 46.2157 131.457 51.7539C137.454 54.5994 144.782 58.3276 152.969 56.47C161.239 54.5951 168.4 51.3471 176.641 49.3655C186.125 47.0839 195.994 46.1378 206.051 45.0605C213.484 44.2629 220.069 42.4053 226.922 40.6588C234.496 38.7291 242.134 36.7301 250.121 35.3903C255.397 34.5048 264.889 33.0755 268.229 36.1734C272.979 40.5751 269.133 48.829 267.734 53.8465C265.803 60.7808 263.344 67.6646 261.225 74.5801C259.685 79.6005 257.996 84.6382 257.816 89.7423C257.526 97.9702 258.53 106.226 259.464 114.432C261.195 129.627 263.541 144.714 263.541 159.96C263.541 173.318 236.026 204.186 231.181 211.412C221.51 225.834 212.341 240.64 199.473 254.288C195.989 257.98 191.347 263.662 184.177 265.605C179.758 266.804 177.203 266.253 174.356 269.079C170.472 272.936 168.947 277.877 167.208 282.146C164.41 289.021 162.04 295.95 159.506 302.857C154.394 316.826 148.612 330.7 143.049 344.612C141.367 348.818 140.995 353.906 138.032 357.915C136.13 360.5 133.734 360.231 130.843 358.231C125.77 354.722 122.953 349.804 120.06 345.659C115.821 339.586 112.039 333.413 108.311 327.237C104.583 321.062 100.971 314.854 97.2354 308.676C94.7758 304.594 92.7757 299.94 88.8142 296.273Z" stroke="#212C4F"/>
<path fill-rule="evenodd" clip-rule="evenodd" d="M91.6059 286.605C78.8866 274.176 68.7538 260.379 58.8679 247.079C46.2078 230.057 34.3421 212.65 26.4283 194.715C21.7848 184.184 16.658 171.759 21.9828 161C23.8829 157.161 28.1534 154.293 31.9227 151.003C36.2241 147.252 40.1657 143.357 44.0455 139.462C52.0313 131.445 59.7447 123.342 67.1854 115.156C71.1424 110.819 76.4415 106.046 77.8144 101.147C78.9072 97.2521 77.3259 92.8279 76.8657 88.9157C76.0378 81.8703 75.1842 74.8264 74.4591 67.7781C73.6235 59.6451 72.8522 51.4889 72.9859 43.3386C73.0605 38.796 71.8289 30.9976 77.0559 27.7851C81.6171 24.9822 98.1133 35.1868 101.248 36.9813C111.033 42.5855 120.351 48.4798 130.815 53.696C136.986 56.7787 144.491 60.5322 152.67 61.832C159.64 62.9384 167.582 60.8034 174.025 59.5427C182.096 57.966 190.462 56.6936 198.363 54.8616C205.403 53.2301 211.674 50.6335 218.074 48.3528C225.113 45.8443 232.269 43.3039 239.949 41.4416C244.674 40.3006 252.588 38.4123 257.093 40.68C262.286 43.2996 258.892 51.375 258.152 54.6943C256.63 61.4281 254.367 68.1099 252.341 74.7975C248.978 85.9051 246.037 96.4948 246.741 107.806C247.662 122.536 249.827 137.251 251.025 151.978C251.472 157.416 252.372 162.941 251.886 168.384C251.606 171.504 249.909 173.88 246.081 175.695C240.856 178.173 237.964 183.881 234.966 187.851C230.294 194.041 225.949 200.309 221.547 206.559C211.88 220.281 202.562 234.266 190.059 247.279C186.104 251.396 181.695 256.111 175.162 259.156C171.519 260.855 168.009 260.427 164.137 261.464C159.043 262.837 156.745 267.352 155.079 270.051C151.86 275.26 149.703 280.683 147.682 286.064C143.11 298.239 140.105 310.443 137.891 322.815C137.377 325.715 135.595 337.133 127.007 331.136C117.518 324.51 112.866 314.943 107.518 307.143C102.71 300.117 98.2367 293.084 91.6059 286.605Z" stroke="#212C4F"/>
<path fill-rule="evenodd" clip-rule="evenodd" d="M93.9578 269.428C82.7679 257.745 74.4198 244.803 66.4336 232.22C56.7429 216.952 48.1047 201.301 43.2657 185.287C40.2289 175.228 37.8954 164.137 42.9423 154.145C46.3873 147.322 55.7007 142.044 62.1081 136.051C68.5155 130.058 74.5302 123.822 79.5437 117.401C82.655 113.415 85.7894 109.127 85.3787 104.692C84.3826 93.9094 82.0081 83.1393 80.8555 72.3447C80.0854 65.2037 79.4513 58.0482 79.6412 50.8855C79.7542 46.5662 79.2921 40.6324 83.3378 36.8085C87.8122 32.5816 126.015 55.0878 130.315 57.215C141.097 62.548 155.406 69.006 170.739 67.9749C185.397 66.9886 196.341 62.7141 207.826 57.8792C214.359 55.1355 231.812 46.3366 240.309 49.5974C245.166 51.4602 243.485 57.6005 243.154 60.5176C242.502 66.2665 241.1 71.9837 239.883 77.7023C238.12 86.0405 235.396 94.6084 234.598 102.983C234.043 108.814 234.785 114.68 234.801 120.521C234.821 128.897 234.708 137.273 234.575 145.648C234.462 152.681 234.575 159.773 233.373 166.781C232.634 171.138 230.973 174.445 226.28 177.57C222.199 180.289 219.809 184.392 217.213 187.858C212.929 193.582 208.958 199.382 204.922 205.162C196.472 217.265 188.198 229.507 177.637 241.092C172.818 246.38 166.072 255.271 154.389 256.512C150.177 256.959 148.357 257.288 145.962 259.599C142.563 262.879 141.03 266.807 139.698 270.486C136.592 279.064 137.056 287.89 133.986 296.454C132.721 299.941 129.989 304.495 123.736 300.513C116.422 295.867 112.402 289.105 107.884 283.539C105.63 280.761 103.52 277.899 100.768 275.26C98.6479 273.234 95.9293 271.5 93.9578 269.428Z" stroke="#212C4F"/>
<path fill-rule="evenodd" clip-rule="evenodd" d="M97.4516 247.3C88.363 236.506 81.755 224.784 75.798 213.273C69.19 200.487 63.7168 187.392 61.388 174.125C59.7746 164.964 59.2986 155.202 64.2366 146.311C67.3605 140.688 73.9299 136.876 79.4391 132.037C87.766 124.734 94.3637 116.833 92.758 108.059C90.9619 98.2234 89.6144 88.3552 88.7155 78.4547C88.1725 72.4827 87.766 66.4876 88.1442 60.5084C88.381 56.728 88.7798 51.8576 91.8291 48.5688C95.9128 44.1684 126.987 60.6973 131.516 62.7577C142.748 67.8675 154.533 71.6133 168.449 73.802C179.805 75.5869 188.731 71.9406 197.225 68.1789C202.5 65.8403 215.768 58.2837 222.618 60.6498C226.395 61.9474 226.199 66.2238 226.392 68.5206C226.758 72.898 226.377 77.294 226.21 81.6714C225.952 88.135 227.72 95.0154 226.297 101.424C223.148 115.628 220.42 129.795 218.261 144.086C217.072 151.964 215.992 159.89 213.699 167.697C212.875 170.5 212.003 173.395 210.14 176.051C208.944 177.76 206.906 178.691 205.233 180.133C197.271 187.007 193.175 195.981 188.072 203.724C181.289 214.017 174.612 224.365 166.599 234.384C162.384 239.654 157.541 247.014 148.939 250.64C146.34 251.736 144.261 251.269 141.762 251.958C138.88 252.751 138.021 255.161 137.218 256.716C135.394 260.247 132.635 275.027 121.933 268.216C116.836 264.966 113.565 260.825 109.559 257.162C108.107 255.835 106.648 254.542 104.69 253.436C101.407 251.586 99.5333 249.764 97.4516 247.3Z" stroke="#212C4F"/>
<path fill-rule="evenodd" clip-rule="evenodd" d="M101.387 223.724C86.6825 202.416 76.6647 177.444 78.6055 154.214C79.2533 146.489 81.4152 138.177 88.8136 131.48C93.1837 127.532 98.1167 124.376 99.6951 119.633C100.834 116.209 99.5409 112.522 99.073 109.077C98.3944 104.089 97.7877 99.0969 97.2967 94.1008C96.6977 87.907 96.235 81.693 96.4818 75.4877C96.6592 71.0537 96.4587 64.9307 100.7 61.0789C105.759 56.4802 129.491 68.1858 133.72 69.8328C143.969 73.8248 153.9 76.6233 166.252 77.6347C169.851 77.9323 173.54 78.935 177.167 78.8049C180.871 78.6691 184.169 77.3876 187.082 76.2043C190.899 74.657 199.953 69.2881 204.608 70.8254C207.179 71.6749 207.503 74.8636 208.048 76.5164C209.076 79.6169 209.629 82.7622 210.446 85.8815C211.84 91.1737 216.377 96.4284 216.248 101.739C215.909 116.021 208.022 130.509 203.691 144.505C201.107 152.825 198.763 161.202 195.264 169.422C194.156 172.022 193.01 174.701 191.13 177.173C189.819 178.898 187.483 180.006 186.015 181.604C180.377 187.731 176.956 194.778 173.162 201.357C168.226 209.899 163.439 218.469 158.185 226.951C154.892 232.268 151.995 239.105 145.887 243.686C141.427 247.032 140.093 244.745 135.939 242.98C133.82 242.078 131.733 242.286 129.335 241.895C125.911 241.336 123.445 239.755 121.229 238.273C118.168 236.228 115.646 233.505 111.893 231.833C110.572 231.244 108.931 231.271 107.78 230.794C104.425 229.407 102.77 225.728 101.387 223.724Z" stroke="#212C4F"/>
<path fill-rule="evenodd" clip-rule="evenodd" d="M106.625 201.069C97.3809 183.775 92.117 164.533 94.5599 146.253C95.4111 139.893 97.3886 133.494 101.732 127.569C103.702 124.874 105.898 122.851 106.016 119.897C106.289 113.044 105.335 106.169 105.106 99.3166C104.941 94.4131 104.882 89.4851 105.584 84.5931C106.052 81.3222 106.613 76.8989 110.184 74.2193C115.387 70.3253 133.071 77.3547 137.957 78.7853C146.06 81.1563 155.068 83.5086 164.444 82.5683C167.311 82.2798 169.844 81.7693 172.768 81.7029C175.28 81.6395 177.599 81.8169 180.001 81.3164C182.979 80.6977 187.6 77.946 190.341 78.8921C192.213 79.5367 192.301 81.4491 192.9 82.7211C193.872 84.7843 195.146 86.7987 196.711 88.7438C198.367 90.7917 200.926 92.5354 202.294 94.6568C204.51 98.1008 204.719 101.956 204.709 105.576C204.667 120.02 199.594 134.646 194.289 148.724C191.527 156.055 188.582 163.426 184.393 170.55C183.12 172.714 181.842 175.165 179.492 177.068C178.029 178.254 176.195 179.059 175.095 180.408C165.698 191.927 162.209 205.244 155.423 217.472C153.656 220.655 144.73 238.295 136.334 229.072C131.232 223.469 128.913 217.549 121.934 212.436C119.812 210.879 118.056 209.84 114.818 209.232C112.663 208.831 113.756 209.796 111.504 208.449C108.796 206.815 107.703 203.084 106.625 201.069Z" stroke="#212C4F"/>
<path fill-rule="evenodd" clip-rule="evenodd" d="M112.091 183.087C104.545 162.84 104.186 141.399 110.876 120.833C112.56 115.648 112.158 110.252 112.586 105.004C112.996 99.9047 112.142 90.8385 119.124 87.1347C124.185 84.4492 134.941 87.3633 140.602 88.3713C147.815 89.6555 155.266 90.7777 162.271 88.6692C166.373 87.4341 170.278 85.7421 174.342 84.4173C176.283 83.7839 179.257 82.4794 181.095 83.0232C184.128 83.9227 185.405 88.1312 186.836 90.1732C191.408 96.6999 192.574 103.611 192.541 110.589C192.482 123.478 189.344 136.433 185.087 149.075C183.128 154.892 181.039 160.79 177.634 166.4C175.708 169.574 171.993 171.915 169.791 174.947C162.694 184.707 158.902 195.193 152.412 205.122C150.533 207.995 144.277 218.729 136.9 213.321C129.759 208.086 130.608 200.45 123.89 195.007C123.121 194.391 122.201 193.629 120.957 193.271C120.214 193.06 118.798 193.432 118.375 193.271C113.778 191.6 113.047 185.657 112.091 183.087Z" stroke="#212C4F"/>
<path fill-rule="evenodd" clip-rule="evenodd" d="M117.079 169.97C114.542 159.583 113.913 148.967 113.753 138.405C113.666 132.632 113.011 126.289 115.615 120.64C117.218 117.17 118.62 113.818 119.631 110.241C120.719 106.392 121.51 100.195 127.406 97.8512C131.812 96.1003 140.868 97.3004 146.225 97.364C152.1 97.4319 156.457 96.7553 160.661 94.426C163.309 92.9613 172.919 86.2423 175.69 87.0188C178.33 87.7576 178.735 92.4393 179.421 94.4636C181.596 100.862 182.354 107.345 182.236 113.853C182.055 123.932 180.225 134.049 177.08 143.97C175.773 148.072 174.42 152.311 171.808 156.23C170.047 158.869 166.926 161.069 165.106 163.69C159.885 171.197 156.341 179.135 151.025 186.668C149.316 189.086 144.766 196.963 137.754 195.075C131.899 193.5 130.118 188.145 126.194 185.513C119.502 181.037 118.471 175.678 117.079 169.97Z" stroke="#212C4F"/>
<path fill-rule="evenodd" clip-rule="evenodd" d="M120.444 163.426C118.764 155.186 118.03 146.755 117.994 138.394C117.971 132.999 117.84 127.306 119.999 122.011C121.083 119.352 123.617 117.04 125.425 114.523C127.284 111.931 129.359 108.354 133.622 107.234C137.628 106.181 143.472 106.574 148.302 105.65C152.588 104.828 155.235 103.107 158.132 101.254C159.983 100.073 167.997 94.0089 169.766 94.7102C171.661 95.4619 171.507 99.1037 171.769 100.999C172.503 106.22 172.738 111.46 172.47 116.695C172.08 123.84 170.991 131.04 168.526 138.062C166.78 143.043 162.62 146.8 159.57 151.444C155.607 157.46 152.475 163.693 148.14 169.651C145.981 172.621 143.202 177.015 137.628 178.536C135.491 179.121 130.058 179.688 127.921 179.037C125.353 178.255 124.265 175.345 123.605 173.971C121.959 170.53 121.158 166.928 120.444 163.426Z" stroke="#212C4F"/>
</g>
</svg>
