<svg width="286" height="286" viewBox="0 0 286 286" fill="none" xmlns="http://www.w3.org/2000/svg">
<path fill-rule="evenodd" clip-rule="evenodd" d="M178.146 0.43288C192.353 3.95124 205.95 9.58769 218.479 17.1529C220.991 18.6688 222.991 20.9032 224.22 23.5675C225.449 26.2318 225.85 29.2034 225.372 32.0982C223.715 42.2036 226.238 49.9329 230.946 54.6555C235.668 59.3782 243.412 61.8862 253.503 60.2289C256.4 59.7481 259.375 60.1481 262.042 61.3771C264.709 62.6061 266.946 64.6075 268.463 67.1222C276.028 79.6519 281.664 93.2486 285.183 107.456C285.891 110.306 285.728 113.303 284.713 116.059C283.698 118.815 281.88 121.203 279.492 122.914C271.162 128.884 267.466 136.114 267.466 142.802C267.466 149.49 271.162 156.736 279.492 162.705C281.877 164.415 283.694 166.8 284.708 169.553C285.723 172.307 285.888 175.301 285.183 178.149C281.665 192.356 276.028 205.953 268.463 218.482C266.946 220.997 264.709 222.998 262.042 224.227C259.375 225.456 256.4 225.856 253.503 225.376C243.398 223.718 235.683 226.241 230.96 230.949C226.238 235.672 223.715 243.416 225.387 253.506C225.868 256.403 225.468 259.378 224.239 262.045C223.01 264.713 221.008 266.949 218.494 268.466C205.955 276.034 192.348 281.67 178.131 285.186C175.283 285.891 172.289 285.726 169.536 284.712C166.782 283.697 164.397 281.88 162.687 279.496C156.732 271.165 149.487 267.469 142.799 267.469C136.126 267.469 128.866 271.165 122.911 279.496C121.201 281.88 118.816 283.697 116.063 284.712C113.309 285.726 110.315 285.891 107.467 285.186C93.25 281.67 79.6433 276.034 67.1045 268.466C64.5898 266.949 62.5884 264.713 61.3593 262.045C60.1303 259.378 59.7303 256.403 60.2111 253.506C61.8831 243.416 59.3751 235.686 54.6378 230.964C49.9298 226.241 42.2005 223.718 32.0951 225.39C29.2003 225.868 26.2287 225.466 23.5644 224.238C20.9001 223.009 18.6657 221.009 17.1498 218.497C9.5821 205.958 3.94558 192.351 0.429791 178.134C-0.27531 175.286 -0.109939 172.292 0.904528 169.539C1.91899 166.786 3.73592 164.4 6.12046 162.69C14.4365 156.736 18.1471 149.49 18.1471 142.802C18.1471 136.129 14.4365 128.869 6.12046 122.914C3.73592 121.205 1.91899 118.819 0.904528 116.066C-0.109939 113.313 -0.27531 110.318 0.429791 107.47C3.94676 93.258 9.58325 79.6563 17.1498 67.1222C18.6657 64.6101 20.9001 62.6105 23.5644 61.3816C26.2287 60.1527 29.2003 59.7512 32.0951 60.2289C42.2005 61.8862 49.9298 59.3782 54.6525 54.6555C59.3751 49.9329 61.8831 42.1889 60.2258 32.0982C59.7481 29.2034 60.1496 26.2318 61.3785 23.5675C62.6074 20.9032 64.6071 18.6688 67.1191 17.1529C79.6487 9.58789 93.2454 3.95145 107.452 0.43288C110.303 -0.275396 113.3 -0.111632 116.056 0.902966C118.812 1.91756 121.2 3.73626 122.911 6.12355C128.88 14.4395 136.111 18.1502 142.799 18.1502C149.487 18.1502 156.732 14.4395 162.702 6.12355C164.412 3.73901 166.797 1.92208 169.55 0.907617C172.303 -0.106849 175.298 -0.272221 178.146 0.43288ZM179.642 31.3795C170.006 41.0155 157.348 47.4689 142.799 47.4689C128.25 47.4689 115.592 41.0302 105.956 31.3649C100.501 33.1698 95.1874 35.3759 90.0578 37.9649C90.0725 51.6049 85.6725 65.0982 75.3911 75.3942C65.1098 85.6755 51.6018 90.0756 37.9618 90.0609C35.3805 95.1649 33.1805 100.474 31.3618 105.96C41.0271 115.596 47.4658 128.253 47.4658 142.802C47.4658 157.352 41.0271 170.009 31.3618 179.645C33.1805 185.13 35.3951 190.454 37.9618 195.558C51.6018 195.529 65.0951 199.929 75.3911 210.225C85.6725 220.492 90.0725 234 90.0578 247.64C95.1471 250.221 100.471 252.421 105.956 254.24C115.592 244.574 128.25 238.136 142.799 238.136C157.348 238.136 170.006 244.589 179.642 254.24C185.102 252.435 190.421 250.229 195.555 247.64C195.526 234 199.926 220.506 210.222 210.21C220.488 199.929 233.996 195.544 247.636 195.544C250.218 190.454 252.418 185.13 254.236 179.645C244.571 170.009 238.132 157.352 238.132 142.802C238.132 128.253 244.586 115.596 254.236 105.96C252.432 100.504 250.226 95.1904 247.636 90.0609C233.996 90.0756 220.503 85.6755 210.207 75.3942C199.926 65.1129 195.54 51.6049 195.54 37.9649C190.411 35.3759 185.097 33.1846 179.642 31.3795ZM142.799 84.1355C158.359 84.1355 173.281 90.3165 184.283 101.319C195.285 112.321 201.466 127.243 201.466 142.802C201.466 158.362 195.285 173.284 184.283 184.286C173.281 195.288 158.359 201.469 142.799 201.469C127.24 201.469 112.318 195.288 101.316 184.286C90.3134 173.284 84.1325 158.362 84.1325 142.802C84.1325 127.243 90.3134 112.321 101.316 101.319C112.318 90.3165 127.24 84.1355 142.799 84.1355ZM142.799 113.469C135.019 113.469 127.558 116.559 122.057 122.06C116.556 127.561 113.466 135.023 113.466 142.802C113.466 150.582 116.556 158.043 122.057 163.544C127.558 169.045 135.019 172.136 142.799 172.136C150.579 172.136 158.04 169.045 163.541 163.544C169.042 158.043 172.132 150.582 172.132 142.802C172.132 135.023 169.042 127.561 163.541 122.06C158.04 116.559 150.579 113.469 142.799 113.469Z" fill="#E8E8E8"/>
</svg>
