<svg id="renault-new-2021-seeklogo.com-1" xmlns="http://www.w3.org/2000/svg" width="47.283" height="50.4" viewBox="0 0 47.283 50.4">
  <g id="Group_22282" data-name="Group 22282" transform="translate(8.814 0)">
    <path id="Path_28993" data-name="Path 28993" d="M70.751-79.809c-.507.946-7.335,13.72-10.276,19.208a.473.473,0,0,0,.005.513C63.362-54.711,69.2-43.8,69.263-43.7c.06-.1,5.9-11.011,8.782-16.387a.471.471,0,0,0,.005-.513q-2.474-4.6-4.936-9.206a.492.492,0,0,1,0-.54c.453-.817.888-1.644,1.347-2.5.065.111,4.435,8.268,6.578,12.265a.431.431,0,0,1,.005.467q-5.087,9.493-10.159,18.995a.375.375,0,0,1-.387.243c-.837-.014-1.676-.01-2.513,0a.3.3,0,0,1-.311-.186q-5.1-9.548-10.208-19.091a.342.342,0,0,1,0-.369q5.111-9.545,10.216-19.089c.043-.08.144-.183.22-.183C68.83-79.814,69.764-79.809,70.751-79.809Z" transform="translate(-57.408 79.816)"/>
    <path id="Path_28994" data-name="Path 28994" d="M144.607-75.978c-1.559,2.905-5.856,10.932-8.2,15.3a.473.473,0,0,0,0,.513q2.474,4.6,4.936,9.206a.492.492,0,0,1,0,.54c-.453.817-.888,1.644-1.348,2.5-.061-.1-4.43-8.262-6.578-12.266a.431.431,0,0,1,0-.467q5.086-9.492,10.158-18.994a.375.375,0,0,1,.387-.242c.837.014,1.676.01,2.513,0a.3.3,0,0,1,.311.187q5.1,9.548,10.209,19.091a.341.341,0,0,1,0,.369q-5.109,9.542-10.215,19.087c-.043.08-.144.182-.22.183-.935.013-1.869.008-2.849.008.064-.125,6.9-12.911,10.27-19.208a.471.471,0,0,0-.006-.513c-2.882-5.378-8.722-16.286-8.782-16.387-.011.019-.225.416-.583,1.085" transform="translate(-127.391 79.881)"/>
  </g>
  <g id="Group_22283" data-name="Group 22283" transform="translate(0 43.115)">
    <path id="Path_28995" data-name="Path 28995" d="M-53.04,477.118h-1.417v-6.157a.294.294,0,0,0-.027-.154.313.313,0,0,0-.133-.08l-.383-.149.117-.618H-51.3a3.022,3.022,0,0,1,1.992.527,2.14,2.14,0,0,1,.607,1.7,2.332,2.332,0,0,1-.378,1.427,1.824,1.824,0,0,1-1.177.65l1.747,2.855h-1.565l-1.587-2.7H-53.04Zm0-3.76h1.576a1.624,1.624,0,0,0,1.049-.267,1.131,1.131,0,0,0,.314-.906,1.116,1.116,0,0,0-.314-.895,1.628,1.628,0,0,0-1.049-.267H-53.04Z" transform="translate(55 -469.96)"/>
    <path id="Path_28996" data-name="Path 28996" d="M42,469.97v1.087H38.25v1.907h2.983v1.044H38.25v2.035h3.834v1.087H36.833v-6.157a.294.294,0,0,0-.027-.154.314.314,0,0,0-.133-.08l-.383-.149.117-.618H42Z" transform="translate(-29.132 -469.969)"/>
    <path id="Path_28997" data-name="Path 28997" d="M118.743,470.961a.294.294,0,0,0-.027-.154.314.314,0,0,0-.133-.08l-.383-.149.117-.618h1.6a.377.377,0,0,1,.208.038,1.389,1.389,0,0,1,.176.208l3.675,4.975v-5.219h1.31v7.158H123.91l-3.856-5.219v5.219h-1.31v-6.157Z" transform="translate(-104.619 -469.96)"/>
    <path id="Path_28998" data-name="Path 28998" d="M222.732,469.97q.213.384.458.921t.506,1.166q.261.629.517,1.31t.485,1.353q.229.67.421,1.289t.319,1.118H224.01q-.118-.436-.245-.852t-.245-.82h-3.153q-.128.4-.25.82t-.24.852H218.45q.128-.5.32-1.118t.421-1.289q.229-.672.485-1.353t.517-1.31q.261-.628.506-1.166t.458-.921Zm-.789,1.256q-.682,1.534-1.236,3.185h2.472Q222.6,472.76,221.943,471.226Z" transform="translate(-197.008 -469.969)"/>
    <path id="Path_28999" data-name="Path 28999" d="M310.273,470.961a.3.3,0,0,0-.027-.154.313.313,0,0,0-.133-.08l-.383-.149.117-.618h1.747c.064,0,.1.035.1.107v4.143a2.058,2.058,0,0,0,.437,1.47,2.478,2.478,0,0,0,2.839,0,2.071,2.071,0,0,0,.431-1.47v-4.25h1.417v4.357a4.184,4.184,0,0,1-.187,1.331,2.1,2.1,0,0,1-.58.91,2.415,2.415,0,0,1-1.017.522,6.787,6.787,0,0,1-2.972,0,2.394,2.394,0,0,1-1.017-.522,2.1,2.1,0,0,1-.58-.91,4.184,4.184,0,0,1-.187-1.331v-3.355Z" transform="translate(-281.13 -469.96)"/>
    <path id="Path_29000" data-name="Path 29000" d="M414.6,470.961a.294.294,0,0,0-.027-.154.314.314,0,0,0-.133-.08l-.383-.149.117-.618h1.747c.064,0,.1.035.1.107v5.965h3.27v1.087H414.6v-6.157Z" transform="translate(-377.28 -469.96)"/>
    <path id="Path_29001" data-name="Path 29001" d="M473.023,471.047H470.7V469.96h6.061v1.087H474.44v6.072h-1.417Z" transform="translate(-429.478 -469.96)"/>
  </g>
</svg>
