<svg id="g4387" xmlns="http://www.w3.org/2000/svg" width="57.222" height="57.516" viewBox="0 0 57.222 57.516">
  <path id="path3040" d="M58.485,29.258A28.611,28.611,0,1,1,29.874.5,28.685,28.685,0,0,1,58.485,29.258Z" transform="translate(-1.263 -0.5)" fill="#fff"/>
  <g id="g4381" transform="translate(0.254 0.284)">
    <path id="inner_artwork" d="M30.7,11.916a15.068,15.068,0,0,1,2.889,2.119l-.32.321a39.651,39.651,0,0,0-4.817.066c-.17-.171-.511-.429-.193-.644l2.44-1.863ZM59.078,31.852a4.923,4.923,0,0,1-.193,2.088c-2.932.834-4.858-2.27-7.7-1.8l.322,1.609c2.632.087,4.276,2.61,6.995,2.5-.386.772.172,2.8-1.539,1.992-1.776-.427-3.061-1.992-5.008-1.992-.235.431-.086,1.028-.127,1.539,2.054.322,3.531,2.058,5.584,2.378a3.391,3.391,0,0,1-.963,1.926c-1.67-.406-2.975-1.906-4.753-1.864l-.317,1.478c1.69.043,2.782,1.538,4.3,1.987.042.623-.515,1.18-.836,1.736-1.348-.4-2.376-1.563-3.917-1.478-.021-.58.323-1.239.193-1.86-1.73.515-2.89-1.093-4.173-2.057-.037-3.156-3.359-5.226-3.534-8.182a4.391,4.391,0,0,1,.325-1.895,10.121,10.121,0,0,0-.448-8.156,4.618,4.618,0,0,0-1.609-1.473c.879,1.863,1.95,4.063,1.415,6.353-.062,1.768-1.105,3.466-1.117,5.17a3.553,3.553,0,0,0,.475,1.829c1.392,2.507,3.9,4.88,2.954,8.024-.259.966-1.03,1.712-1.222,2.7,1.628,1.349,3.168,2.868,5.329,2.954.77-.492.342-2.672,1.926-1.666l2.312,1.157a3.708,3.708,0,0,1-1.156,1.6,5.818,5.818,0,0,0-2.827-.9,1.672,1.672,0,0,0-.576,1.217,5.157,5.157,0,0,1,2.119.9A5.329,5.329,0,0,1,49.894,51.2L48.1,50.563c-.3.429-.922.879-.7,1.349a3.743,3.743,0,0,1,1.152.708,11.941,11.941,0,0,1-2.761,1.987c-.832-2.719-3.572-4.625-3.337-7.769l-.127-.127c-.644.724-.429,1.882-.387,2.822.771,1.969,2.61,3.49,2.889,5.65-.322.556-1.048.667-1.6.9.065-3.893-5.841-6.846-2.054-10.785,1.263-1.928,3.379-3.769,2.629-6.424-.77-2.563-3.493-4.152-3.469-7.025l0-.224c.62-3,2.5-6.186.963-9.374A5.427,5.427,0,0,0,38.6,18.979a9.172,9.172,0,0,1,1.6,8.859,11.579,11.579,0,0,0-1.411,4.014h0a3.354,3.354,0,0,0,.58,2.15c1.478,2.4,4.044,5.031,2.568,8.156-1.669,2.5-4.579,5.048-2.954,8.345,1.177,1.969,3,3.933,2.506,6.353l-1.926.641c1.284-4.514-5.008-7.166-2.374-11.682,1.626-2.418,4.535-4.687,2.888-7.9-.984-1.988-3.018-3.165-2.954-5.65l.07-.417c.663-3.524,3.342-6.86,1.468-10.626a6.692,6.692,0,0,0-2.568-2.888l-.066.066A7.781,7.781,0,0,1,37.7,26.81c-.549,1.644-1.755,3.281-2,5.043a4.142,4.142,0,0,0,.462,2.6c1.391,2.2,3.83,4.539,2.308,7.386-1.6,2.352-4.278,4.64-3.21,7.7,1.177,2.676,3.635,5.225,2.308,8.543l-1.987.449c1.583-3.233-.791-6.442-2.181-9.246-1.691-4.023,3.634-5.95,3.719-9.628-.02-2.374-2.544-3.722-3.078-5.9-1.092-.922-2.225.366-3.531.127-.964.194-2.445-1.327-3.02.321-.685,2.417-3.808,4.194-2.435,7.06,1.306,2.547,4.448,4.41,3.4,7.707-.94,3.079-4.045,6.011-2.119,9.563-.791-.256-2.268.234-2.247-1.029-1.219-4.3,3.98-6.807,2.374-11.105-.747-2.633-4.152-4.088-3.4-7.255.554-2.607,3.479-4.429,3.069-7.285a4.214,4.214,0,0,0-.176-.739c-1.092-3.081-3.319-6.164-1.992-9.76a12.588,12.588,0,0,1,1.732-2.823,6.489,6.489,0,0,0-3.144,5.97c-.092,2.652,1.867,4.924,2.146,7.351a4.48,4.48,0,0,1-.734,3.046c-1.39,1.886-3.207,3.874-2.374,6.358.792,2.5,3.916,4.022,3.724,6.933-.021,3.444-4.023,5.588-2.889,9.44l-1.992-.646c-.791-3.422,2.846-5.174,2.888-8.34.515-3.642-4.13-4.993-3.851-8.543-.02-2.7,2.354-4.405,3.4-6.674a4.345,4.345,0,0,0,.216-1.574c-.128-2.508-2.389-4.47-2.014-7.29a8.926,8.926,0,0,1,2.181-5.456c-1.861.748-2.629,2.889-3.143,4.687-.892,2.883,1.237,5.476,1.451,8.059A4.266,4.266,0,0,1,20.3,35.287c-1.542,1.817-3.1,4.109-1.992,6.55,1.179,2.694,4.881,4.791,3.275,8.151-.876,2.119-2.974,3.723-2.888,6.226a5.462,5.462,0,0,1-1.605-.9c0-3.188,4.535-5.179,2.374-8.539-.191.663-.233,1.564-.382,2.313-.75,1.948-2.354,3.508-2.954,5.522a8.826,8.826,0,0,1-2.889-2.057l1.157-.708a3.644,3.644,0,0,0-.769-1.156c-.751-.106-1.244.387-1.864.58a9.626,9.626,0,0,1-1.478-1.478c.384-1.094,3.384-.189,1.864-1.987-1.026-.642-2.056.275-2.954.7L7.977,46.972c1.049-.641,2.094-1.542,3.4-1.284.321.579.344,1.43.963,1.732,2.2-.043,3.766-1.71,5.456-3.016-1.178-1.753-2.137-4.172-1.09-6.292.838-2.124,3.023-3.913,3.122-6.261a4.175,4.175,0,0,0-.295-1.7c-1.155-2.975-1.563-7,.642-9.628-1.2.322-1.905,1.816-2.313,2.95-1.325,2.9.351,5.6.409,8.38a6,6,0,0,1-.154,1.508c-1.135,2.289-2.973,4.3-3.271,6.933-1.306.833-2.378,2.289-4.238,1.8a4.93,4.93,0,0,0,.255,1.8c-1.475-.062-2.481,1.025-3.724,1.539-.662-.212-.834-1.068-1.09-1.666,1.454-.491,2.5-1.949,4.173-1.926.194-.538-.108-1.03-.194-1.543-2.077-.922-5.369,4.557-5.645-.193,2.075-.128,3.4-2.055,5.457-2.247L9.9,36.314c-2.332-.236-3.833,2.162-6.164,1.926L3.22,36.187c2.7.169,4.3-2.248,6.872-2.378a3.5,3.5,0,0,0,.448-1.732c-2.8-.365-4.727,2.742-7.7,1.8,0,0-.1-1.293-.158-2.022h0c-.02-.285-.039-.484-.039-.484C5.3,32.4,7.629,30.492,9.9,29.508c.577-.173,1.478.127,1.736-.515-.023-.492.875-1.068.128-1.411-3.318-.45-5.523,3.552-8.926,1.732L2.582,28.8C3.29,19.129,8.744,9.779,17.795,5.178a26.586,26.586,0,0,1,12.812-3.2A26.522,26.522,0,0,1,45.916,6.335,27.922,27.922,0,0,1,59.141,29.122c-3.51,2.652-5.865-2.5-9.44-1.346a4.451,4.451,0,0,0,.708,1.6c3.168-.022,5.35,3.295,8.666,1.987l0,.483ZM18.757,19.942c-2.226-1.456-5.048-.085-7.122.708A6.971,6.971,0,0,0,9,15.642a1.754,1.754,0,0,0-.581-.259.331.331,0,0,0-.321.193c.748,4.6-2.243,7.81-4.362,11.3a3.378,3.378,0,0,0,2.695.321c2.246-.9,4.386-2.462,7.061-1.926a19.828,19.828,0,0,1,3.21-3.724c.666-.576,1.58-.942,2.053-1.6Zm6.806,2.889c-.043.277.021.771.448.58.664-.92,1.841-.192,2.568-.127v-.259a2.3,2.3,0,0,0-2.053-.91,3.037,3.037,0,0,0-.576.078.5.5,0,0,0-.387.638Zm10.464-2.757a4.43,4.43,0,0,0-3.21-2.185,16.687,16.687,0,0,0-1.869-.132c-.118,0-.235,0-.352,0a5.258,5.258,0,0,0-4.454,1.93c-.147.408-.793.98-.193,1.345,1.348-.086,2.887-.255,3.785.9,0,1.028.664,2.4-.448,2.888-.922-.853-2.013.363-3.016-.322-.471-.279-.77.047-.963.453A7.54,7.54,0,0,0,28.9,32.01a4.584,4.584,0,0,0,3.408.193c2.525-1.176,3.571-3.87,4.041-6.353-.063-.472-.041-1.393-.7-1.415a3.59,3.59,0,0,1-2.633,0c-.469.151-.491.838-1.024.968l-.325-.259c-.279-1.175-.45-2.845.642-3.658a6.022,6.022,0,0,1,3.917-.321c.236-.406-.128-.726-.194-1.09Zm-1.288,2.11-.251.009c-.448.3-1.755.084-1.283,1.09.814-.644,1.948-.193,2.761.127.3-.149.235-.449.255-.707C35.959,22.217,35.335,22.172,34.738,22.184Zm9.317-9.048c-1.584-.084-2.91.815-4.366,1.222-.127-1.238.814-2.546,1.029-3.79-2.353.151-4.217,1.568-6.164,2.7q-.676-1.633-1.35-3.275l2.568-2.44.066-.321L32.37,7.038a32.515,32.515,0,0,0-1.539-3.271c-.578,1.091-.966,2.246-1.543,3.336L25.823,7.3v.255l2.629,2.374A8.641,8.641,0,0,1,27.041,13.4a30.54,30.54,0,0,0-4.748-2.568c-.406-.131-.986-.345-1.35-.066.534,1.177,1.282,2.444,1.156,3.729a19.961,19.961,0,0,1-1.926-.773,4.691,4.691,0,0,0-2.506-.382,14.109,14.109,0,0,1,2.695,5.839,23.836,23.836,0,0,1,14.386-2.308,35.209,35.209,0,0,1,6.8,2.181c.084-2.267,1.518-4.089,2.5-5.909Zm7.316,12.327c2.181.577,4.369,2.954,6.678,1.412-2.011-3.338-5.005-6.42-4.173-10.785a.5.5,0,0,0-.382-.642,5.635,5.635,0,0,0-2.832,3.082,19.111,19.111,0,0,1-.637,2.246,9.13,9.13,0,0,0-5.135-1.411c-.687.086-1.671.131-1.8.836a14.92,14.92,0,0,1,5.263,5.135,10.276,10.276,0,0,1,3.016.127ZM28.517,28.48l.062.387c.836.557,1.093,1.5,2.251,1.415,1.027.061,1.8-.9,2.308-1.671-1.389-.192-3.08.105-4.621-.132Zm1.156-1.732c.042.171-.106.428.127.515.685-.149,1.925.364,2.308-.449a1.538,1.538,0,0,0-1.16-.435A2.321,2.321,0,0,0,29.673,26.748Z" transform="translate(-2.582 -1.977)" fill="#007042"/>
    <g id="g4377" transform="translate(25.937 24.029)">
      <path id="rect3815" d="M137.416,126.891h4.692v1.928h-4.692Z" transform="translate(-137.416 -126.891)" fill="#fff" opacity="0.99"/>
      <path id="path3032-6" d="M141.555,129.983c.606.144.756.359,1.236.419.509-.009.436-.113,1.324-.419a.155.155,0,0,0,.039-.248c-.552-.548-.933-.156-1.279-.146-.459.005-.889-.393-1.337.124-.076.105-.116.208.017.27Z" transform="translate(-140.688 -128.953)" fill="#007042"/>
    </g>
  </g>
  <g id="text4354" transform="translate(48.244 53.667)">
    <path id="path4430" d="M253.041,282.8v-2.746h-.981v-.559h2.626v.559h-.978V282.8Z" transform="translate(-252.06 -279.493)" fill="#007042"/>
    <path id="path4432" d="M267.916,282.8v-3.3h1l.6,2.254.593-2.254h1v3.3h-.62v-2.6l-.656,2.6h-.642l-.654-2.6v2.6Z" transform="translate(-264.866 -279.492)" fill="#007042"/>
  </g>
</svg>
