<svg xmlns="http://www.w3.org/2000/svg" width="109.475" height="13.162" viewBox="0 0 109.475 13.162">
  <g id="g11" transform="translate(0 0)">
    <path id="path39" d="M399.642-782.261l.019,3.431c-.045.033-.251.057-.261.029-.815-2.02-1.467-3.072-3.91-3.072h-.282v10.641a1.463,1.463,0,0,0,.332,1.155,2.972,2.972,0,0,0,1.433.253c.031,0,.034.3,0,.3h-5.286c-.034,0-.03-.3,0-.3a2.968,2.968,0,0,0,1.432-.253,1.459,1.459,0,0,0,.333-1.155v-10.641h-.282c-2.442,0-3.095,1.052-3.91,3.072-.012.029-.216,0-.261-.029l.019-3.431h10.624" transform="translate(-388.999 782.504)"/>
    <path id="path41" d="M479.47-754.034a1.384,1.384,0,0,1-.307,1.085,2.161,2.161,0,0,1-1.245.219c-.033,0-.037.281,0,.281h4.789c.037,0,.034-.281,0-.281a2.161,2.161,0,0,1-1.245-.219,1.38,1.38,0,0,1-.307-1.085v-6.843a1.378,1.378,0,0,1,.307-1.084,2.162,2.162,0,0,1,1.245-.218c.034,0,.037-.282,0-.282h-4.789c-.037,0-.033.282,0,.282a2.162,2.162,0,0,1,1.245.218,1.382,1.382,0,0,1,.307,1.084v6.843" transform="translate(-465.658 765.429)"/>
    <path id="path43" d="M534.859-762.461h-7.429c-.034,0-.031.282,0,.282a1.865,1.865,0,0,1,1.146.218,1.477,1.477,0,0,1,.279,1.084v6.843a1.479,1.479,0,0,1-.279,1.085,1.864,1.864,0,0,1-1.146.219c-.031,0-.034.281,0,.281h4.754c.036,0,.033-.281,0-.281a2.528,2.528,0,0,1-1.337-.219,1.38,1.38,0,0,1-.308-1.085v-3.25h.763a2.184,2.184,0,0,1,1.467.368,1.388,1.388,0,0,1,.483,1.037c0,.033.151.039.239,0v-3.188c-.088-.037-.239-.033-.239,0a1.474,1.474,0,0,1-.483,1.076,2.176,2.176,0,0,1-1.467.382h-.763V-762.1h.878c2.269,0,2.955,1.08,3.3,2.336.007.029.206,0,.2-.03l-.055-2.671" transform="translate(-508.358 765.429)"/>
    <path id="path45" d="M600.518-762.461H593.09c-.034,0-.031.282,0,.282a1.864,1.864,0,0,1,1.146.218,1.472,1.472,0,0,1,.279,1.084v6.843a1.474,1.474,0,0,1-.279,1.085,1.864,1.864,0,0,1-1.146.219c-.031,0-.034.281,0,.281h4.753c.037,0,.034-.281,0-.281a2.529,2.529,0,0,1-1.336-.219,1.38,1.38,0,0,1-.308-1.085v-3.25h.763a2.184,2.184,0,0,1,1.467.368,1.384,1.384,0,0,1,.483,1.037c0,.033.151.039.239,0v-3.188c-.088-.037-.239-.033-.239,0a1.47,1.47,0,0,1-.483,1.076,2.176,2.176,0,0,1-1.467.382H596.2V-762.1h.878c2.269,0,2.955,1.08,3.3,2.336.008.029.207,0,.2-.03l-.055-2.671" transform="translate(-564.981 765.429)"/>
    <path id="path47" d="M650.949-758.056l1.518-4.159L654-758.056h-3.05m7.027,3.631c-.788-.1-1.056-.372-1.418-1.316l-3.214-8.674a1.167,1.167,0,0,0-.492,0l-3.146,8.487c-.425,1.107-.761,1.3-1.721,1.5-.029.005-.034.269,0,.269h3.05c.034,0,.031-.267,0-.269-.892-.067-1.274-.4-.852-1.5l.643-1.764h3.312l.689,1.815c.36.938.026,1.379-.932,1.452-.03,0-.033.269,0,.269h4.081c.034,0,.03-.265,0-.269" transform="translate(-612.322 767.136)"/>
    <path id="path49" d="M734.013-762.461H730.5c-.034,0-.03.279,0,.282.757.067,1.126.135,1.322.472a4.078,4.078,0,0,1,.328,1.912v4.749l-5.662-7.416H723.6c-.035,0-.031.282,0,.282a1.376,1.376,0,0,1,1.566,1.447v5.668a3.933,3.933,0,0,1-.28,1.859c-.195.334-.4.412-1.11.475-.03,0-.034.281,0,.281h3.481c.034,0,.03-.28,0-.281-.757-.069-1.125-.135-1.322-.475a3.842,3.842,0,0,1-.329-1.859v-5.778l6.615,8.488c.058.075.369.069.369,0v-7.44a4.187,4.187,0,0,1,.28-1.912c.2-.337.389-.406,1.145-.472.031,0,.035-.282,0-.282" transform="translate(-677.528 765.429)"/>
    <path id="path51" d="M813.4-762.461h-3.053c-.032,0-.031.28,0,.282.934.032,1.253.371.919,1.034l-2,3.731-2.2-3.793c-.329-.634.04-.972.955-.972.03,0,.032-.282,0-.282h-4.181c-.034,0-.029.279,0,.282a1.314,1.314,0,0,1,1.347.878l2.615,4.578v2.689a1.478,1.478,0,0,1-.284,1.085,2.011,2.011,0,0,1-1.186.219c-.03,0-.033.281,0,.281h4.628c.033,0,.03-.281,0-.281a2.012,2.012,0,0,1-1.187-.219,1.483,1.483,0,0,1-.284-1.085v-2.985l2.308-4.155a1.694,1.694,0,0,1,1.611-1.005c.03,0,.037-.282,0-.282" transform="translate(-746.723 765.429)"/>
    <path id="path53" d="M893.033-767.864a2.812,2.812,0,0,1,1.727-2.725l3.267,4.3a3.814,3.814,0,0,1-2.489,1.162,2.5,2.5,0,0,1-2.505-2.737m3.327-8c.927,0,1.477.69,1.477,1.8a2.981,2.981,0,0,1-1.916,2.579,4.243,4.243,0,0,1-1.08-2.6c0-1.22.635-1.781,1.52-1.781m6.615,5.292h-4c-.036.108-.034.261,0,.262,1.023.031,1.468.424,1.1,1.211a10.3,10.3,0,0,1-.966,1.657l-2.911-3.72c1.738-.842,2.634-1.7,2.634-3.059a2.356,2.356,0,0,0-2.542-2.065,2.856,2.856,0,0,0-2.894,2.64,4.315,4.315,0,0,0,1.143,2.753c-1.753.587-3.239,1.992-3.239,3.6a3.139,3.139,0,0,0,3.36,3.1A4.979,4.979,0,0,0,898.283-766l1.2,1.63h3.1c.036,0,.025-.277,0-.277a2.3,2.3,0,0,1-1.082-.237,3.778,3.778,0,0,1-1.209-1.075l-.942-1.206c.552-.715,1.009-1.495,1.521-2.2.4-.55.827-.809,2.109-.916.031,0,.038-.181,0-.289" transform="translate(-822.163 777.351)"/>
    <path id="path55" d="M1010.227-774.893c0-.035-.243-.065-.261.016-.465,2.22-2.115,3.6-3.622,3.6-2.87,0-4.7-2.508-4.7-6.1s1.6-6.17,4.4-6.17a4.175,4.175,0,0,1,3.833,3.436c.006.03.269,0,.261-.03l-.1-3.859c-.007-.031-.273-.034-.277,0-.066.557-.417.858-.976.641a7.484,7.484,0,0,0-2.668-.6,6.7,6.7,0,0,0-6.7,6.581,6.6,6.6,0,0,0,6.7,6.512,6.687,6.687,0,0,0,3.926-1.05l.187-2.975" transform="translate(-915.406 784.026)"/>
    <path id="path57" d="M1098.053-758.343c0,2.825-1.048,4.8-3.047,4.8s-3.049-1.977-3.049-4.8,1.049-4.8,3.049-4.8,3.047,1.977,3.047,4.8m-8.072,0a5.081,5.081,0,0,0,5.025,5.146,5.08,5.08,0,0,0,5.024-5.146,5.08,5.08,0,0,0-5.024-5.148,5.081,5.081,0,0,0-5.025,5.148" transform="translate(-993.508 766.317)"/>
    <path id="path59" d="M1170.168-704.367a1.059,1.059,0,0,1,1.056,1.078,1.06,1.06,0,0,1-1.056,1.079,1.06,1.06,0,0,1-1.057-1.079,1.059,1.059,0,0,1,1.057-1.078" transform="translate(-1061.748 715.33)" fill="#231f20"/>
  </g>
</svg>
