<svg id="layer1" xmlns="http://www.w3.org/2000/svg" width="90.82" height="18.746" viewBox="0 0 90.82 18.746">
  <g id="g23944" transform="translate(0 0)">
    <g id="g13605" transform="translate(43.85 4.021) rotate(90)">
      <path id="path13607" d="M0,5.785A5.918,5.918,0,0,0,2.282,10.43H.239V14.34H14.483V10.43h-8.1A3.052,3.052,0,0,1,3.369,7.2,3.137,3.137,0,0,1,6.378,3.911h8.1V0H5.653A5.482,5.482,0,0,0,0,5.785" transform="translate(0 0)" fill="#e60012"/>
    </g>
    <g id="g13609" transform="translate(76.116 4.26) rotate(90)">
      <path id="path13611" d="M0,4.467,9.7,8,0,11.539v4.468l14.239-5.86V5.86L0,0Z" transform="translate(0 0)" fill="#e60012"/>
    </g>
    <g id="g13613" transform="translate(28.105 4.02) rotate(90)">
      <path id="path13615" d="M4.531,10.271A3.639,3.639,0,0,1,3.112,7.263,3.272,3.272,0,0,1,5.1,4.231L7.94,11.065a4.581,4.581,0,0,1-3.409-.793M10.1,2.757a5.948,5.948,0,0,1,1.509,4.088A4.334,4.334,0,0,1,10.458,10L6.31,0A7.718,7.718,0,0,0,2.333,1.708,7.146,7.146,0,0,0,0,7.334a7.3,7.3,0,0,0,7.363,7.544c4.3,0,7.362-3.251,7.362-7.975A9.382,9.382,0,0,0,12.005.284Z" transform="translate(0 0)" fill="#e60012"/>
    </g>
    <g id="g13617" transform="translate(12.854 0) rotate(90)">
      <path id="path13619" d="M14.912,0V8.89H0v3.965H18.5V0Z" transform="translate(0)" fill="#e60012"/>
    </g>
    <g id="g13621" transform="translate(90.82 4.02) rotate(90)">
      <path id="path13623" d="M3.352,7.681a3.75,3.75,0,0,0,4.01,3.77,3.879,3.879,0,0,0,4.01-3.823,3.776,3.776,0,0,0-4.01-3.77,3.878,3.878,0,0,0-4.01,3.823m11.372,0A7.39,7.39,0,0,1,7.362,15.31,7.447,7.447,0,0,1,0,7.628,7.39,7.39,0,0,1,7.362,0a7.447,7.447,0,0,1,7.362,7.681" transform="translate(0 0)" fill="#e60012"/>
    </g>
    <g id="g13625" transform="translate(60.707 4.02) rotate(90)">
      <path id="path13627" d="M3.352,7.682a3.75,3.75,0,0,0,4.01,3.769,3.878,3.878,0,0,0,4.01-3.823,3.775,3.775,0,0,0-4.01-3.769,3.878,3.878,0,0,0-4.01,3.823m11.372,0A7.39,7.39,0,0,1,7.362,15.31,7.446,7.446,0,0,1,0,7.628,7.39,7.39,0,0,1,7.362,0a7.447,7.447,0,0,1,7.362,7.682" transform="translate(0 0)" fill="#e60012"/>
    </g>
  </g>
</svg>
