<svg id="Amazon_logo" xmlns="http://www.w3.org/2000/svg" width="95.991" height="28.927" viewBox="0 0 95.991 28.927">
  <path id="path8" d="M131.145,120.211c-5.578,4.112-13.663,6.305-20.625,6.305a37.321,37.321,0,0,1-25.2-9.615c-.522-.472-.054-1.116.572-.748a50.711,50.711,0,0,0,25.208,6.685,50.127,50.127,0,0,0,19.229-3.932c.944-.4,1.734.618.811,1.3" transform="translate(-71.595 -97.589)" fill="#f90"/>
  <path id="path10" d="M351.776,112.266c-.71-.911-4.713-.43-6.51-.217-.547.067-.631-.409-.138-.752,3.188-2.244,8.419-1.6,9.03-.844s-.159,6-3.155,8.5c-.46.384-.9.18-.694-.33.673-1.68,2.181-5.444,1.467-6.36" transform="translate(-289.906 -92.297)" fill="#f90"/>
  <path id="path12" d="M345.566,5.653V3.472a.538.538,0,0,1,.552-.552h9.765a.544.544,0,0,1,.564.552V5.339a3.072,3.072,0,0,1-.735,1.371l-5.06,7.224a10.781,10.781,0,0,1,5.57,1.2.994.994,0,0,1,.518.848v2.327c0,.318-.351.689-.719.5a11.249,11.249,0,0,0-10.317.017c-.338.184-.694-.184-.694-.5v-2.21a2.638,2.638,0,0,1,.359-1.5L351.232,6.2h-5.1a.54.54,0,0,1-.564-.547" transform="translate(-290.081 -2.494)" fill="#221f1f"/>
  <path id="path14" d="M106.531,17.785H103.56a.561.561,0,0,1-.531-.506V2.033a.558.558,0,0,1,.572-.547h2.77a.559.559,0,0,1,.539.51V3.988h.054a3.921,3.921,0,0,1,3.911-2.825c1.859,0,3.021.9,3.857,2.825a4.387,4.387,0,0,1,7.542-1.157c.94,1.283.748,3.146.748,4.78l0,9.623a.561.561,0,0,1-.572.552H119.48a.565.565,0,0,1-.535-.552V9.153a19.086,19.086,0,0,0-.084-2.858,1.547,1.547,0,0,0-1.747-1.312,1.973,1.973,0,0,0-1.776,1.249,9.23,9.23,0,0,0-.276,2.921v8.081a.561.561,0,0,1-.572.552h-2.967a.562.562,0,0,1-.535-.552l0-8.081c0-1.7.28-4.2-1.83-4.2-2.135,0-2.052,2.44-2.052,4.2v8.081a.561.561,0,0,1-.572.552" transform="translate(-86.666 -1.017)" fill="#221f1f"/>
  <path id="path16" d="M434.253,1.164c4.408,0,6.794,3.786,6.794,8.6,0,4.651-2.637,8.34-6.794,8.34-4.329,0-6.685-3.786-6.685-8.5,0-4.747,2.386-8.436,6.685-8.436m.025,3.113c-2.189,0-2.327,2.983-2.327,4.843s-.029,5.841,2.3,5.841c2.3,0,2.411-3.209,2.411-5.165a14.1,14.1,0,0,0-.443-4.045,1.858,1.858,0,0,0-1.943-1.475" transform="translate(-359.48 -1.017)" fill="#221f1f"/>
  <path id="path18" d="M529.561,17.785H526.6a.565.565,0,0,1-.535-.552l0-15.251a.562.562,0,0,1,.572-.5h2.754a.569.569,0,0,1,.531.426V4.243h.054c.831-2.085,2-3.079,4.049-3.079a3.9,3.9,0,0,1,3.468,1.8c.777,1.22.777,3.272.777,4.747v9.6a.571.571,0,0,1-.572.481h-2.979a.563.563,0,0,1-.526-.481V9.023c0-1.667.192-4.107-1.859-4.107a1.942,1.942,0,0,0-1.717,1.22,6.749,6.749,0,0,0-.472,2.887v8.211a.571.571,0,0,1-.581.552" transform="translate(-442.279 -1.017)" fill="#221f1f"/>
  <path id="use28" d="M9.118,9.731V9.088c-2.148,0-4.417.46-4.417,2.992,0,1.283.664,2.152,1.805,2.152a2.409,2.409,0,0,0,2.056-1.35,5.811,5.811,0,0,0,.556-3.151m3,7.241a.62.62,0,0,1-.7.071,7.314,7.314,0,0,1-1.7-1.981,5.878,5.878,0,0,1-4.9,2.16c-2.5,0-4.446-1.542-4.446-4.63A5.048,5.048,0,0,1,3.531,7.738,20.585,20.585,0,0,1,9.118,6.706V6.321A3.822,3.822,0,0,0,8.758,4.17,1.988,1.988,0,0,0,7.091,3.4,2.265,2.265,0,0,0,4.7,5.181a.622.622,0,0,1-.514.543L1.3,5.415a.526.526,0,0,1-.443-.623C1.526,1.3,4.68.246,7.5.246A6.735,6.735,0,0,1,11.98,1.725c1.446,1.35,1.308,3.151,1.308,5.11v4.63a4.063,4.063,0,0,0,1.12,2.754.558.558,0,0,1-.008.79c-.606.506-1.684,1.446-2.277,1.972l-.008-.008" transform="translate(38.583 -0.246)" fill="#221f1f"/>
  <path id="path30" d="M9.118,9.731V9.088c-2.148,0-4.417.46-4.417,2.992,0,1.283.664,2.152,1.805,2.152a2.409,2.409,0,0,0,2.056-1.35,5.811,5.811,0,0,0,.556-3.151m3,7.241a.62.62,0,0,1-.7.071,7.314,7.314,0,0,1-1.7-1.981,5.878,5.878,0,0,1-4.9,2.16c-2.5,0-4.446-1.542-4.446-4.63A5.048,5.048,0,0,1,3.531,7.738,20.585,20.585,0,0,1,9.118,6.706V6.321A3.822,3.822,0,0,0,8.758,4.17,1.988,1.988,0,0,0,7.091,3.4,2.265,2.265,0,0,0,4.7,5.181a.622.622,0,0,1-.514.543L1.3,5.415a.526.526,0,0,1-.443-.623C1.526,1.3,4.68.246,7.5.246A6.735,6.735,0,0,1,11.98,1.725c1.446,1.35,1.308,3.151,1.308,5.11v4.63a4.063,4.063,0,0,0,1.12,2.754.558.558,0,0,1-.008.79c-.606.506-1.684,1.446-2.277,1.972l-.008-.008" transform="translate(-0.364 -0.246)" fill="#221f1f"/>
</svg>
