<svg id="Microsoft_logo__2012_1_" data-name="Microsoft_logo_(2012) (1)" xmlns="http://www.w3.org/2000/svg" width="95.767" height="20.424" viewBox="0 0 95.767 20.424">
  <path id="Path_28963" data-name="Path 28963" d="M106.947,12.108V24.362H104.82V14.746h-.028l-3.8,9.616H99.572l-3.886-9.616h-.028v9.616H93.7V12.108h3.064l3.518,9.077h.057l3.716-9.077h2.893Zm1.759.936a1.079,1.079,0,0,1,.369-.851,1.268,1.268,0,0,1,.879-.34,1.242,1.242,0,0,1,.908.34,1.179,1.179,0,0,1,.369.851,1.079,1.079,0,0,1-.369.851,1.288,1.288,0,0,1-.908.34,1.175,1.175,0,0,1-.879-.34A1.285,1.285,0,0,1,108.706,13.044Zm2.3,2.525v8.794h-2.071V15.569Zm6.269,7.29a2.39,2.39,0,0,0,1.021-.227,4.481,4.481,0,0,0,1.021-.567v1.929a3.619,3.619,0,0,1-1.135.426,6.98,6.98,0,0,1-1.39.142,4.167,4.167,0,0,1-3.149-1.22,4.233,4.233,0,0,1-1.22-3.12,5.006,5.006,0,0,1,1.248-3.489,4.491,4.491,0,0,1,3.518-1.362,5.221,5.221,0,0,1,1.163.142,3.865,3.865,0,0,1,.936.34v1.986a4.121,4.121,0,0,0-.964-.539,3.259,3.259,0,0,0-1.021-.2,2.587,2.587,0,0,0-1.986.794,2.976,2.976,0,0,0-.738,2.156,2.838,2.838,0,0,0,.738,2.071A2.653,2.653,0,0,0,117.273,22.859Zm7.914-7.432a2.293,2.293,0,0,1,.454.028,2.944,2.944,0,0,1,.34.085v2.1a1.273,1.273,0,0,0-.482-.227,2.91,2.91,0,0,0-.766-.113,1.586,1.586,0,0,0-1.277.652,3.133,3.133,0,0,0-.539,1.986v4.425h-2.071V15.569h2.071v1.39h.028a2.672,2.672,0,0,1,.851-1.135A2.5,2.5,0,0,1,125.188,15.427Zm.908,4.681a4.9,4.9,0,0,1,1.22-3.461,4.513,4.513,0,0,1,3.4-1.277,4.17,4.17,0,0,1,3.205,1.22,4.684,4.684,0,0,1,1.163,3.319,4.8,4.8,0,0,1-1.22,3.4,4.424,4.424,0,0,1-3.347,1.277,4.37,4.37,0,0,1-3.234-1.191A4.552,4.552,0,0,1,126.1,20.107Zm2.156-.085a3.093,3.093,0,0,0,.624,2.1,2.267,2.267,0,0,0,1.787.738,2.065,2.065,0,0,0,1.73-.738,3.313,3.313,0,0,0,.6-2.156,3.421,3.421,0,0,0-.6-2.156,2.368,2.368,0,0,0-3.461.028A3.108,3.108,0,0,0,128.251,20.022Zm9.929-2.128a.9.9,0,0,0,.284.709,4.851,4.851,0,0,0,1.248.624,4.326,4.326,0,0,1,1.73,1.106,2.3,2.3,0,0,1,.511,1.5,2.382,2.382,0,0,1-.964,1.986,3.993,3.993,0,0,1-2.581.738,6.721,6.721,0,0,1-1.22-.142,4.909,4.909,0,0,1-1.135-.34V22.036a4.957,4.957,0,0,0,1.22.624,3.824,3.824,0,0,0,1.191.227,1.907,1.907,0,0,0,1.021-.2.7.7,0,0,0,.34-.652,1,1,0,0,0-.34-.738,5.239,5.239,0,0,0-1.3-.681,3.9,3.9,0,0,1-1.617-1.078,2.578,2.578,0,0,1,.454-3.489,3.747,3.747,0,0,1,2.44-.766,4.5,4.5,0,0,1,1.021.113c.369.085.709.17.964.255v2.014a6.111,6.111,0,0,0-.964-.482,3,3,0,0,0-1.078-.2,1.582,1.582,0,0,0-.908.227A.906.906,0,0,0,138.18,17.895Zm4.652,2.213a4.9,4.9,0,0,1,1.22-3.461,4.513,4.513,0,0,1,3.4-1.277,4.17,4.17,0,0,1,3.205,1.22,4.684,4.684,0,0,1,1.163,3.319,4.8,4.8,0,0,1-1.22,3.4,4.424,4.424,0,0,1-3.347,1.277,4.37,4.37,0,0,1-3.234-1.191A4.676,4.676,0,0,1,142.832,20.107Zm2.156-.085a3.093,3.093,0,0,0,.624,2.1,2.267,2.267,0,0,0,1.787.738,2.065,2.065,0,0,0,1.73-.738,3.313,3.313,0,0,0,.6-2.156,3.421,3.421,0,0,0-.6-2.156,2.368,2.368,0,0,0-3.461.028A3.248,3.248,0,0,0,144.988,20.022Zm13.73-2.752h-3.092v7.092h-2.1V17.271h-1.475v-1.7h1.475v-1.22a3.059,3.059,0,0,1,3.205-3.149c.255,0,.482.028.681.028a1.355,1.355,0,0,1,.511.113v1.787a3.479,3.479,0,0,0-.369-.142,1.886,1.886,0,0,0-.6-.085,1.28,1.28,0,0,0-.993.4,1.808,1.808,0,0,0-.34,1.191v1.05h3.092V13.554l2.071-.624v2.61h2.1v1.7h-2.1v4.113a1.888,1.888,0,0,0,.284,1.135,1.181,1.181,0,0,0,.936.34,1.4,1.4,0,0,0,.426-.085,1.482,1.482,0,0,0,.425-.2v1.7a1.978,1.978,0,0,1-.652.2,4.915,4.915,0,0,1-.908.085,2.563,2.563,0,0,1-1.957-.681,3,3,0,0,1-.652-2.1l.028-4.482Z" transform="translate(-67.12 -8.023)" fill="#737373"/>
  <rect id="Rectangle_9249" data-name="Rectangle 9249" width="9.702" height="9.702" fill="#f25022"/>
  <rect id="Rectangle_9250" data-name="Rectangle 9250" width="9.702" height="9.702" transform="translate(10.723)" fill="#7fba00"/>
  <rect id="Rectangle_9251" data-name="Rectangle 9251" width="9.702" height="9.702" transform="translate(0 10.723)" fill="#00a4ef"/>
  <rect id="Rectangle_9252" data-name="Rectangle 9252" width="9.702" height="9.702" transform="translate(10.723 10.723)" fill="#ffb900"/>
</svg>
