<svg id="g3019" xmlns="http://www.w3.org/2000/svg" width="95.734" height="25.357" viewBox="0 0 95.734 25.357">
  <path id="path14" d="M243.836-100.471a1.84,1.84,0,0,1,1.862-1.816h21.473a1.84,1.84,0,0,1,1.862,1.816v21.725a1.84,1.84,0,0,1-1.862,1.816H245.7a1.84,1.84,0,0,1-1.862-1.816Z" transform="translate(-173.3 102.287)" fill="#069"/>
  <path id="path16" d="M31.738-71.782H42.254v-3.452h-6.71V-88.406H31.738Z" transform="translate(-31.738 93.022)" fill-rule="evenodd"/>
  <path id="path18" d="M71.277-72.476v-11.45H67.471v11.45Zm-1.9-13.013a1.986,1.986,0,0,0,2.153-1.979A1.978,1.978,0,0,0,69.4-89.446a1.986,1.986,0,0,0-2.153,1.978,1.97,1.97,0,0,0,2.1,1.979h.025Z" transform="translate(-55.438 93.717)" fill-rule="evenodd"/>
  <path id="path20" d="M84.68-61.938h3.806v-6.394a2.6,2.6,0,0,1,.125-.929,2.083,2.083,0,0,1,1.953-1.392c1.377,0,1.928,1.05,1.928,2.589v6.126H96.3V-68.5c0-3.517-1.878-5.154-4.382-5.154a3.791,3.791,0,0,0-3.455,1.929h.025v-1.66H84.681c.05,1.074,0,11.45,0,11.45Z" transform="translate(-67.074 83.179)" fill-rule="evenodd"/>
  <path id="path22" d="M128.119-88.406h-3.806v16.624h3.806v-3.712l.951-1.2,2.98,4.91h4.682l-5.007-7.108,4.382-4.836h-4.582s-3.13,4.326-3.405,4.839Z" transform="translate(-93.526 93.022)" fill-rule="evenodd"/>
  <path id="path24" d="M169.145-67.753a9.311,9.311,0,0,0,.125-1.5c0-2.96-1.5-5.965-5.458-5.965-4.232,0-6.184,3.347-6.184,6.382,0,3.754,2.379,6.1,6.535,6.1a11.834,11.834,0,0,0,4.432-.757l-.5-2.513a10.355,10.355,0,0,1-3.38.511c-1.778,0-3.33-.729-3.455-2.285l7.887.024Zm-7.912-2.575a2.484,2.484,0,0,1,2.379-2.419,2.179,2.179,0,0,1,2.128,2.419Z" transform="translate(-115.761 84.218)" fill-rule="evenodd"/>
  <path id="path26" d="M203.3-88.406v5.755h-.05a3.8,3.8,0,0,0-3.23-1.343c-2.93,0-5.508,2.345-5.484,6.35,0,3.713,2.329,6.131,5.233,6.131a4.3,4.3,0,0,0,3.831-2h.075l.15,1.734h3.38c-.05-.806-.1-2.2-.1-3.566V-88.406H203.3Zm0,11.324a4.258,4.258,0,0,1-.075.83,2.241,2.241,0,0,1-2.228,1.783c-1.577,0-2.6-1.27-2.6-3.273,0-1.88.877-3.395,2.629-3.395a2.25,2.25,0,0,1,2.229,1.807,3.158,3.158,0,0,1,.05.684Z" transform="translate(-140.393 93.022)" fill-rule="evenodd"/>
  <path id="path28" d="M258.714-72.518v-11.45h-3.806v11.45Zm-1.9-13.014a1.985,1.985,0,0,0,2.153-1.978,1.978,1.978,0,0,0-2.128-1.978,1.986,1.986,0,0,0-2.153,1.978,1.97,1.97,0,0,0,2.1,1.978h.025Z" transform="translate(-180.54 93.745)" fill="#fff" fill-rule="evenodd"/>
  <path id="path30" d="M273.136-61.979h3.806v-6.394a2.608,2.608,0,0,1,.125-.929,2.083,2.083,0,0,1,1.953-1.392c1.377,0,1.928,1.05,1.928,2.589v6.126h3.806v-6.565c0-3.517-1.878-5.154-4.382-5.154a3.791,3.791,0,0,0-3.455,1.929h.025v-1.661h-3.806c.05,1.074,0,11.45,0,11.45Z" transform="translate(-192.856 83.206)" fill="#fff" fill-rule="evenodd"/>
</svg>
