<svg id="TripAdvisor_Logo" xmlns="http://www.w3.org/2000/svg" width="110.288" height="23.461" viewBox="0 0 110.288 23.461">
  <path id="Path_28977" data-name="Path 28977" d="M844.883,144.355a.62.62,0,1,0,.62.62A.62.62,0,0,0,844.883,144.355Zm0,1.142a.522.522,0,1,1,.523-.522A.522.522,0,0,1,844.883,145.5Zm.2-.628a.177.177,0,0,0-.2-.18h-.2v.565h.1v-.2h.106l.1.2h.1l-.113-.225A.166.166,0,0,0,845.085,144.869Zm-.2.093h-.1v-.187h.1c.066,0,.1.033.1.093S844.947,144.962,844.883,144.962Zm-74.7-6.881v-1.5h-2.3v8.92h2.3v-5.349c0-.969.621-1.444,1.59-1.444h1.258v-2.127h-1.075A1.694,1.694,0,0,0,770.185,138.081Zm5-5.028a1.4,1.4,0,1,0,1.389,1.408A1.381,1.381,0,0,0,775.186,133.053ZM774.039,145.5h2.294v-8.92h-2.294Zm13.219-4.46a4.611,4.611,0,0,1-4.611,4.611,4.436,4.436,0,0,1-2.707-.906v3.374h-2.294V136.581h2.294v.755a4.436,4.436,0,0,1,2.707-.906A4.611,4.611,0,0,1,787.259,141.041Zm-2.308,0a2.5,2.5,0,1,0-2.5,2.5A2.505,2.505,0,0,0,784.951,141.041Zm42.173-.782-1.338-.367c-.881-.229-1.223-.5-1.223-.965s.482-.771,1.172-.771a1.077,1.077,0,0,1,1.172.98v.051h2.114v-.051c0-1.619-1.32-2.707-3.286-2.707-1.946,0-3.36,1.087-3.36,2.585a2.507,2.507,0,0,0,2.119,2.408l1.282.35c.974.27,1.336.569,1.336,1.1,0,.565-.523.945-1.3.945a1.25,1.25,0,0,1-1.358-1.277v-.051h-2.244v.051c0,1.83,1.473,3.109,3.583,3.109,2.033,0,3.509-1.249,3.509-2.969C829.3,141.842,828.922,140.739,827.123,140.259ZM795.4,136.581h2.294v8.92H795.4v-.755a4.436,4.436,0,0,1-2.707.906,4.611,4.611,0,0,1,0-9.222,4.436,4.436,0,0,1,2.707.906Zm0,4.46h0a2.5,2.5,0,1,0-2.5,2.5A2.5,2.5,0,0,0,795.4,141.041Zm10.576-7.635h2.294v12.1h-2.294v-.755a4.436,4.436,0,0,1-2.707.906,4.611,4.611,0,0,1,0-9.222,4.436,4.436,0,0,1,2.707.906Zm0,7.635a2.5,2.5,0,1,0-2.5,2.5A2.505,2.505,0,0,0,805.971,141.041Zm12.943,4.46h2.294v-8.92h-2.294Zm1.147-12.449a1.4,1.4,0,1,0,1.389,1.408A1.381,1.381,0,0,0,820.06,133.053Zm19.153,7.988a4.611,4.611,0,1,1-4.611-4.611A4.611,4.611,0,0,1,839.213,141.041Zm-2.106,0a2.5,2.5,0,1,0-2.5,2.5A2.505,2.505,0,0,0,837.107,141.041Zm-68.1-7.635h-8.8v2.046h3.257V145.5h2.286V135.453h3.257v-2.046Zm44.5,9.652-2.041-6.477h-2.409l3.06,8.92h2.76l3.079-8.92h-2.409Zm29.068-4.978v-1.5h-2.3v8.92h2.3v-5.349c0-.969.621-1.444,1.59-1.444h1.258v-2.127h-1.075A1.7,1.7,0,0,0,842.573,138.081Z" transform="translate(-735.215 -128.678)"/>
  <ellipse id="Ellipse_1419" data-name="Ellipse 1419" cx="11.73" cy="11.73" rx="11.73" ry="11.73" transform="translate(0 0)" fill="#34e0a1"/>
  <path id="Path_28978" data-name="Path 28978" d="M109.335,191.9l1.416-1.54h-3.139a9.807,9.807,0,0,0-11.033,0H93.432l1.416,1.54a4.327,4.327,0,1,0,5.856,6.371l1.387,1.51,1.387-1.509a4.328,4.328,0,1,0,5.859-6.372Zm-11.572,6.126a2.928,2.928,0,1,1,2.928-2.928A2.928,2.928,0,0,1,97.764,198.022Zm4.328-3.013a4.777,4.777,0,0,0-3.25-4.287,8.448,8.448,0,0,1,6.5,0A4.779,4.779,0,0,0,102.091,195.008Zm4.326,3.013a2.928,2.928,0,1,1,2.928-2.928A2.928,2.928,0,0,1,106.418,198.022Zm0-4.464a1.535,1.535,0,1,0,1.535,1.535A1.534,1.534,0,0,0,106.418,193.558ZM99.3,195.094a1.535,1.535,0,1,1-1.535-1.535A1.534,1.534,0,0,1,99.3,195.094Z" transform="translate(-90.36 -182.454)"/>
</svg>
