<svg id="Walmart_logo" xmlns="http://www.w3.org/2000/svg" width="102.776" height="24.643" viewBox="0 0 102.776 24.643">
  <path id="Path_28979" data-name="Path 28979" d="M123.568,23.97c0-2.434-1.042-4.584-4.565-4.584a8.314,8.314,0,0,0-4.022.966l.571,1.952a5.934,5.934,0,0,1,2.94-.82c1.784,0,2.076,1.006,2.076,1.655V23.3c-3.894-.006-6.355,1.339-6.355,4.079a3.238,3.238,0,0,0,3.434,3.244,3.931,3.931,0,0,0,3.131-1.387h.066s.443,1.855,2.9,1.146a16.161,16.161,0,0,1-.171-2.591Zm-2.9,2.57a1.875,1.875,0,0,1-.074.576,2.033,2.033,0,0,1-1.96,1.377,1.33,1.33,0,0,1-1.45-1.423c0-1.474,1.627-1.879,3.484-1.869" transform="translate(-63.958 -10.856)" fill="#0071ce"/>
  <path id="Path_28980" data-name="Path 28980" d="M0,11.861s2.543,10.4,2.948,12.09c.476,1.97,1.329,2.7,3.79,2.213l1.59-6.452c.4-1.6.675-2.745.935-4.373h.044a42.925,42.925,0,0,0,.768,4.379s.649,2.931.985,4.467,1.25,2.5,3.664,1.98l3.784-14.3H15.453l-1.3,6.187c-.344,1.792-.656,3.2-.9,4.847h-.044c-.219-1.625-.5-2.979-.855-4.735l-1.345-6.3H7.824L6.388,18c-.409,1.874-.792,3.377-1.033,4.968H5.313c-.248-1.493-.584-3.393-.941-5.2,0,0-.853-4.395-1.154-5.909" transform="translate(0 -6.642)" fill="#0071ce"/>
  <path id="Path_28981" data-name="Path 28981" d="M49.5,23.97c0-2.434-1.044-4.584-4.568-4.584a8.319,8.319,0,0,0-4.019.966l.571,1.952a5.915,5.915,0,0,1,2.94-.82c1.784,0,2.076,1.006,2.076,1.655V23.3c-3.894-.006-6.357,1.339-6.357,4.079a3.239,3.239,0,0,0,3.429,3.244A3.919,3.919,0,0,0,46.7,29.231h.068s.446,1.855,2.9,1.146a16.04,16.04,0,0,1-.169-2.591Zm-2.907,2.57a1.956,1.956,0,0,1-.072.576,2.04,2.04,0,0,1-1.965,1.377,1.33,1.33,0,0,1-1.447-1.423c0-1.474,1.627-1.879,3.484-1.869" transform="translate(-22.479 -10.856)" fill="#0071ce"/>
  <path id="Path_28982" data-name="Path 28982" d="M65.012,11.861v14.3h2.907v-14.3Z" transform="translate(-36.406 -6.642)" fill="#0071ce"/>
  <path id="Path_28983" data-name="Path 28983" d="M155.753,11.861V22.41a4.405,4.405,0,0,0,.862,3.094,3.239,3.239,0,0,0,2.368.9,7.043,7.043,0,0,0,2.109-.311l-.035-2.271a4.657,4.657,0,0,1-1.109.128c-.993,0-1.32-.629-1.32-1.936V17.976h2.532V15.244h-2.532V11.861" transform="translate(-87.22 -6.642)" fill="#0071ce"/>
  <path id="Path_28984" data-name="Path 28984" d="M138.675,19.645V30.389h3.006v-5.5a4.059,4.059,0,0,1,.065-.789A2.264,2.264,0,0,1,144.12,22.2a5.029,5.029,0,0,1,.862.081V19.468a3.084,3.084,0,0,0-3.59,2.208h-.074V19.645" transform="translate(-77.657 -10.867)" fill="#0071ce"/>
  <path id="Path_28985" data-name="Path 28985" d="M75.456,19.645V30.389h2.929V24.083a2.45,2.45,0,0,1,.137-.872A1.965,1.965,0,0,1,80.3,21.833c1.179,0,1.736,1,1.736,2.431v6.124h2.921V24.008a3,3,0,0,1,.121-.867,1.832,1.832,0,0,1,1.759-1.308c1.192,0,1.769.974,1.769,2.667v5.889h2.919V24.054c0-3.328-1.693-4.648-3.615-4.648a3.887,3.887,0,0,0-2.122.581,4.6,4.6,0,0,0-1.362,1.334h-.044a3.065,3.065,0,0,0-2.967-1.915A3.378,3.378,0,0,0,78.281,21.1h-.044V19.645" transform="translate(-42.254 -10.867)" fill="#0071ce"/>
  <path id="Path_28986" data-name="Path 28986" d="M201.635,8.3a1.064,1.064,0,0,0,1.121-.685l.569-6.449c0-.639-.752-1.161-1.69-1.161s-1.691.523-1.691,1.161l.574,6.449a1.055,1.055,0,0,0,1.116.685" transform="translate(-111.967)" fill="#ffc220"/>
  <path id="Path_28987" data-name="Path 28987" d="M186.286,16.894a1.058,1.058,0,0,0-.039-1.313l-5.316-3.717c-.553-.322-1.381.062-1.854.875a1.5,1.5,0,0,0,.165,2.041l5.885,2.728a1.052,1.052,0,0,0,1.159-.62" transform="translate(-100.111 -6.58)" fill="#ffc220"/>
  <path id="Path_28988" data-name="Path 28988" d="M211.475,16.891a1.082,1.082,0,0,0,1.16.627l5.885-2.736c.547-.322.629-1.226.166-2.038s-1.305-1.2-1.857-.879l-5.317,3.713a1.085,1.085,0,0,0-.032,1.318" transform="translate(-118.314 -6.582)" fill="#ffc220"/>
  <path id="Path_28989" data-name="Path 28989" d="M201.635,37.163a1.064,1.064,0,0,1,1.121.685l.569,6.449c0,.639-.752,1.156-1.69,1.156s-1.691-.518-1.691-1.156l.574-6.449a1.055,1.055,0,0,1,1.116-.685" transform="translate(-111.967 -20.811)" fill="#ffc220"/>
  <path id="Path_28990" data-name="Path 28990" d="M211.475,31.748c.3-.5.794-.767,1.16-.622l5.885,2.731c.547.316.629,1.227.166,2.041s-1.305,1.192-1.857.875l-5.317-3.718a1.069,1.069,0,0,1-.032-1.306" transform="translate(-118.314 -17.408)" fill="#ffc220"/>
  <path id="Path_28991" data-name="Path 28991" d="M186.286,31.742a1.058,1.058,0,0,1-.039,1.313l-5.316,3.712c-.553.322-1.381-.063-1.854-.87a1.5,1.5,0,0,1,.165-2.041l5.885-2.731a1.05,1.05,0,0,1,1.159.617" transform="translate(-100.111 -17.408)" fill="#ffc220"/>
  <path id="Path_28992" data-name="Path 28992" d="M230.85,41.694h.073c.1,0,.14.031.151.111a.547.547,0,0,0,.054.173h.189a.344.344,0,0,1-.049-.178.2.2,0,0,0-.14-.169v-.018a.172.172,0,0,0,.151-.165.217.217,0,0,0-.066-.156.513.513,0,0,0-.257-.054,1.191,1.191,0,0,0-.275.026v.713h.168Zm.005-.325.086-.011c.1,0,.155.047.155.112s-.073.107-.166.107h-.074Zm.107-.484a.723.723,0,1,0,.736.718.72.72,0,0,0-.736-.718m0,.145a.576.576,0,0,1,0,1.151.576.576,0,0,1-.005-1.151" transform="translate(-128.921 -22.895)" fill="#ffc220"/>
</svg>
