<svg id="Reddit_logo" xmlns="http://www.w3.org/2000/svg" width="75.611" height="23.97" viewBox="0 0 75.611 23.97">
  <ellipse id="Ellipse_1418" data-name="Ellipse 1418" cx="2.82" cy="2.82" rx="2.82" ry="2.82" transform="translate(60.277 1.763)" fill="#ff4500"/>
  <path id="Path_28964" data-name="Path 28964" d="M50.878,36.136A1.982,1.982,0,0,0,52.991,34.1a6.767,6.767,0,0,0-.141-1.137,7.787,7.787,0,0,0-7.34-6.344c-4.185,0-7.579,3.787-7.579,8.46s3.393,8.459,7.579,8.459a7.519,7.519,0,0,0,5.857-2.451A1.63,1.63,0,0,0,51.1,38.65a1.712,1.712,0,0,0-2.1.214,5.194,5.194,0,0,1-3.486,1.5c-2.132,0-3.909-1.817-4.317-4.23ZM45.51,29.792a4.544,4.544,0,0,1,4.155,3.525H41.355A4.541,4.541,0,0,1,45.51,29.792Z" transform="translate(-27.885 -19.569)" fill="#222"/>
  <path id="Path_28965" data-name="Path 28965" d="M10.223,28.26A1.585,1.585,0,0,0,8.9,26.7a6.132,6.132,0,0,0-5.725,2.075V28.56a1.587,1.587,0,0,0-3.174,0v12.98a1.628,1.628,0,0,0,1.488,1.645A1.586,1.586,0,0,0,3.172,41.6V34.9a4.819,4.819,0,0,1,5.286-5.066,1.423,1.423,0,0,0,.313,0A1.586,1.586,0,0,0,10.223,28.26Z" transform="translate(0.001 -19.57)" fill="#222"/>
  <path id="Path_28966" data-name="Path 28966" d="M235.419,34.859a1.586,1.586,0,0,0-3.172,0V46.492a1.586,1.586,0,0,0,3.172,0Z" transform="translate(-170.736 -24.461)" fill="#222"/>
  <path id="Path_28967" data-name="Path 28967" d="M113.959,1.586A1.586,1.586,0,0,0,112.373,0h0a1.586,1.586,0,0,0-1.586,1.586V8.67a5.533,5.533,0,0,0-4.054-1.62c-4.185,0-7.579,3.787-7.579,8.46s3.393,8.459,7.579,8.459a5.6,5.6,0,0,0,4.083-1.64,1.586,1.586,0,0,0,3.144-.3ZM106.733,20.8c-2.433,0-4.406-2.367-4.406-5.287s1.973-5.287,4.406-5.287,4.406,2.367,4.406,5.287S109.166,20.8,106.733,20.8Z" transform="translate(-72.893)" fill="#222"/>
  <path id="Path_28968" data-name="Path 28968" d="M176.513,1.586A1.586,1.586,0,0,0,174.926,0h0a1.586,1.586,0,0,0-1.586,1.586V8.67a5.532,5.532,0,0,0-4.054-1.62c-4.185,0-7.578,3.787-7.578,8.46s3.393,8.459,7.578,8.459a5.6,5.6,0,0,0,4.083-1.64,1.586,1.586,0,0,0,3.143-.3ZM169.286,20.8c-2.433,0-4.406-2.367-4.406-5.287s1.973-5.287,4.406-5.287,4.406,2.367,4.406,5.287S171.72,20.8,169.286,20.8Z" transform="translate(-118.879)" fill="#222"/>
  <path id="Path_28969" data-name="Path 28969" d="M258.154,31.812V20h1.41a1.442,1.442,0,0,0,1.455-1.316,1.41,1.41,0,0,0-1.407-1.5h-1.458V14.946a1.623,1.623,0,0,0-1.481-1.637,1.586,1.586,0,0,0-1.692,1.583v2.291h-1.313a1.442,1.442,0,0,0-1.455,1.316A1.41,1.41,0,0,0,253.62,20h1.362v11.81a1.586,1.586,0,0,0,1.586,1.586h0A1.586,1.586,0,0,0,258.154,31.812Z" transform="translate(-185.412 -9.781)" fill="#222"/>
</svg>
