<svg id="Ebene_x0020_1" xmlns="http://www.w3.org/2000/svg" width="106.35" height="16.921" viewBox="0 0 106.35 16.921">
  <path id="Path_28970" data-name="Path 28970" d="M190.51,9.848v3.167a12.623,12.623,0,0,0-4.38-.933,3.509,3.509,0,0,0-1.814.411,1.187,1.187,0,0,0-.685,1.007c0,.528.512,1,1.543,1.419l2.978,1.449c2.408,1.148,3.6,2.672,3.6,4.586a4.473,4.473,0,0,1-1.912,3.8,8.343,8.343,0,0,1-5.105,1.419,23.685,23.685,0,0,1-2.646-.131,20.43,20.43,0,0,1-2.681-.5V22.225a15.746,15.746,0,0,0,5,.933c1.79,0,2.681-.519,2.681-1.566,0-.521-.365-.942-1.106-1.272l-3.308-1.41a6.808,6.808,0,0,1-2.721-2.013,4.553,4.553,0,0,1-.881-2.763,4.2,4.2,0,0,1,1.837-3.544,8.16,8.16,0,0,1,4.89-1.337,18.182,18.182,0,0,1,2.26.166C188.908,9.534,189.724,9.675,190.51,9.848Z" transform="translate(-85.403 -9.254)" fill="#099" fill-rule="evenodd"/>
  <path id="Path_28971" data-name="Path 28971" d="M18.117,9.848v3.167a12.612,12.612,0,0,0-4.378-.933,3.5,3.5,0,0,0-1.814.411A1.187,1.187,0,0,0,11.24,13.5c0,.528.519,1,1.55,1.419l2.978,1.449c2.4,1.148,3.6,2.672,3.6,4.586a4.49,4.49,0,0,1-1.905,3.8,8.37,8.37,0,0,1-5.112,1.419A23.73,23.73,0,0,1,9.7,26.044a20.617,20.617,0,0,1-2.679-.5V22.225a15.813,15.813,0,0,0,5,.933c1.791,0,2.681-.519,2.681-1.566,0-.521-.362-.942-1.1-1.272l-3.307-1.41A6.677,6.677,0,0,1,7.57,16.9a4.5,4.5,0,0,1-.884-2.763,4.186,4.186,0,0,1,1.84-3.544,8.118,8.118,0,0,1,4.883-1.337,18.317,18.317,0,0,1,2.267.166C16.518,9.534,17.334,9.675,18.117,9.848Z" transform="translate(-6.686 -9.254)" fill="#099" fill-rule="evenodd"/>
  <path id="Path_28972" data-name="Path 28972" d="M34,9.8h4.85V26.127H34Z" transform="translate(-19.16 -9.503)" fill="#099" fill-rule="evenodd"/>
  <path id="Path_28973" data-name="Path 28973" d="M61.708,9.8v3.018H54.5v3.621h6.25v2.721H54.5v3.8h7.354v3.167H49.833V9.8Z" transform="translate(-26.389 -9.503)" fill="#099" fill-rule="evenodd"/>
  <path id="Path_28974" data-name="Path 28974" d="M96.706,9.8V26.127H92.179V15.359l-4.7,10.918h-2.8L80.167,15.359V26.127H76.892V9.8h5.921l4.041,10,4.229-10Z" transform="translate(-38.744 -9.503)" fill="#099" fill-rule="evenodd"/>
  <path id="Path_28975" data-name="Path 28975" d="M132.124,9.8v3.018h-7.167v3.621h6.25v2.721h-6.25v3.8h7.314v3.167H120.25V9.8Z" transform="translate(-58.543 -9.503)" fill="#099" fill-rule="evenodd"/>
  <path id="Path_28976" data-name="Path 28976" d="M161.5,9.8V26.127h-5.145l-5.773-10.472V26.127h-3.273V9.8H152.6l5.624,10.292V9.8Z" transform="translate(-70.898 -9.503)" fill="#099" fill-rule="evenodd"/>
</svg>
