<svg id="layer1" xmlns="http://www.w3.org/2000/svg" width="66.705" height="44.971" viewBox="0 0 66.705 44.971">
  <g id="g2402" transform="translate(0 0)">
    <g id="g3035" transform="translate(0 0)">
      <path id="path2405" d="M552.374,642.092l-13.716-23.837,9.853-5.66,17.055,29.5H552.374" transform="translate(-508.716 -612.595)"/>
      <path id="path2407" d="M196.6,925l9.853-5.7,5.214,9.038H198.511L196.6,925" transform="translate(-189.473 -898.844)"/>
      <path id="path2409" d="M486.49,1124.036h2.8v-11.345h-2.8Z" transform="translate(-460.027 -1079.332)"/>
      <path id="path2411" d="M941.643,1122.7c-3.136,0-5.022-1.619-5.124-3.9h2.957c0,.714.446,1.759,2.358,1.8,1.275,0,1.874-.752,1.874-1.313-.076-.892-1.2-.969-2.4-1.16a10.262,10.262,0,0,1-2.957-.79,3.039,3.039,0,0,1-1.581-2.728c0-2.027,1.759-3.633,4.691-3.633,2.843,0,4.64,1.491,4.831,3.709H943.44c-.026-.6-.14-1.542-1.823-1.542-1.134,0-1.886.229-1.95,1.02,0,1.16,2.358,1.083,4.194,1.568,1.759.446,2.881,1.542,2.881,3.072,0,2.817-2.282,3.9-5.1,3.9" transform="translate(-880.037 -1077.727)"/>
      <path id="path2415" d="M369.731,773.45l9.853-5.685,11.052,19.146H380.323v2.8h-2.8V786.9l-7.788-13.448" transform="translate(-351.056 -757.414)"/>
      <path id="path2417" d="M290.8,1070.264a5.922,5.922,0,0,1-5.915-5.889,5.854,5.854,0,0,1,5.915-5.838,5.765,5.765,0,0,1,3.34,1.007v-4.755h2.8V1070h-2.8v-.752a6.07,6.07,0,0,1-3.34,1.02Zm-3.225-5.889a3.282,3.282,0,1,0,3.3-3.263,3.3,3.3,0,0,0-3.3,3.263" transform="translate(-271.87 -1025.293)" fill-rule="evenodd"/>
      <path id="path2419" d="M554.792,1054.789h2.766V1070h-2.766v-.752a6.006,6.006,0,0,1-3.378,1.02,5.914,5.914,0,0,1-5.876-5.889,5.945,5.945,0,0,1,9.254-4.831Zm-6.526,9.586a3.263,3.263,0,0,0,6.526,0,3.263,3.263,0,1,0-6.526,0" transform="translate(-515.137 -1025.293)" fill-rule="evenodd"/>
      <path id="path2421" d="M745.758,1122.7a5.922,5.922,0,0,1-5.876-5.889,5.854,5.854,0,0,1,5.876-5.838,5.68,5.68,0,0,1,3.34,1.007v-.905h2.8v11.358h-2.8v-.752A5.882,5.882,0,0,1,745.758,1122.7Zm-3.148-5.889a3.287,3.287,0,0,0,3.263,3.225,3.254,3.254,0,0,0,3.225-3.225,3.287,3.287,0,0,0-3.225-3.263,3.32,3.32,0,0,0-3.263,3.263" transform="translate(-696.517 -1077.727)" fill-rule="evenodd"/>
      <path id="path2423" d="M92.479,1116.809a3.283,3.283,0,0,0,6.565,0,3.282,3.282,0,0,0-6.565,0Zm3.187,5.889a5.925,5.925,0,0,1-5.889-5.889,5.954,5.954,0,0,1,9.267-4.831v-.905h2.766v11.358H99.043v-.752a6.006,6.006,0,0,1-3.378,1.02" transform="translate(-89.776 -1077.727)" fill-rule="evenodd"/>
    </g>
  </g>
</svg>
