<svg width="136" height="157" viewBox="0 0 136 157" fill="none" xmlns="http://www.w3.org/2000/svg">
<path d="M113.13 47.7403C117.94 47.6703 122.75 47.7003 127.57 47.7103C132.28 47.7203 135.28 50.6903 135.28 55.4303C135.29 78.5203 135.29 101.61 135.28 124.7C135.28 129.3 132.42 132.12 127.83 132.13C110.8 132.14 93.77 132.13 76.74 132.13C75.14 132.13 75.14 132.13 75.54 133.66C76.31 136.56 77.14 139.44 77.84 142.36C78.11 143.48 78.61 143.77 79.73 143.75C83.34 143.67 86.95 143.7 90.56 143.72C95.51 143.75 99.14 147.26 99.34 152.2C99.38 153.12 99.36 154.05 99.37 154.98C99.38 156.08 98.84 156.6 97.75 156.57C97.47 156.56 97.19 156.57 96.92 156.57C77.48 156.57 58.05 156.57 38.61 156.57C36.15 156.57 35.83 156.23 35.79 153.78C35.76 151.82 35.78 149.89 36.83 148.14C38.5 145.37 40.91 143.77 44.2 143.73C48.09 143.69 51.98 143.65 55.86 143.75C57.06 143.78 57.44 143.34 57.7 142.3C58.43 139.34 59.19 136.39 60.06 133.47C60.4 132.32 60.17 132.1 59.02 132.1C41.95 132.13 24.87 132.11 7.8 132.14C5.88 132.14 4.11 131.8 2.61 130.57C0.780001 129.06 0 127.07 0 124.71C0.02 111.85 0.0100098 98.9803 0.0100098 86.1203C0.0100098 75.9403 0.0100098 65.7603 0.0100098 55.5803C0.0100098 50.5203 2.84 47.7203 7.94 47.7103C12.75 47.7103 17.57 47.6803 22.38 47.7303M22.2 51.2703C17.48 51.3203 12.76 51.2903 8.04001 51.2903C4.75001 51.2903 3.34 52.7003 3.34 56.0203C3.34 78.7903 3.34 101.55 3.34 124.32C3.34 127.62 4.75 129.04 8.06 129.04C27.91 129.04 47.76 129.04 67.62 129.04C87.61 129.04 107.6 129.04 127.59 129.04C130.32 129.04 131.94 127.56 131.94 124.95C131.95 101.81 131.95 78.6803 131.94 55.5403C131.94 52.7103 130.47 51.3003 127.64 51.2903C122.16 51.2803 116.73 51.2503 115.15 51.2903C114.25 51.3103 113.36 51.3203 113.36 51.3203C113.16 51.3203 112.91 51.3203 112.4 51.3203C112.4 51.3203 111.46 51.3203 109.85 51.3103C109.95 52.1503 110.15 52.8203 110.32 53.2803C110.48 53.7003 110.66 54.1803 111.06 54.7003C111.21 54.9003 111.44 55.1903 111.8 55.4503C111.8 55.4503 112.33 55.8403 113.07 55.9903C116.68 56.7303 124.31 55.9703 124.31 55.9703C127.01 55.9703 127.28 56.2303 127.28 58.8703C127.28 77.6603 127.28 96.4403 127.28 115.23C127.28 117.92 126.82 118.38 124.14 118.38C86.47 118.38 48.8 118.38 11.14 118.38C10.86 118.38 10.58 118.39 10.31 118.38C8.61 118.33 8.05 117.8 8.05 116.12C8.04 96.8303 8.04 77.5303 8.05 58.2403C8.05 57.3703 8.17001 56.8103 8.51001 56.4603C9.14001 55.8203 10.21 55.9603 10.39 55.9703C10.95 56.0203 11.43 56.0203 11.84 56.0103C12.8 55.9903 13.5 55.9303 13.63 55.9203C16.08 55.6803 18.55 55.5503 21 55.2703C23.57 54.9703 46.03 55.0303 113.07 55.9903C112.78 55.9303 112.28 55.8003 111.8 55.4503C110.14 54.2403 109.86 51.3003 109.86 51.3003C109.97 51.3003 110.23 51.3003 110.34 51.3003C110.5 51.3003 110.83 51.3003 111.85 51.3003C112.22 51.3003 112.4 51.3003 112.41 51.3003C112.73 51.3003 112.98 51.2903 113.37 51.3003C113.41 51.3003 113.45 51.3003 113.47 51.3003M21.98 59.5103C19.02 59.5903 16.06 59.6003 13.1 59.5103C11.76 59.4703 11.31 59.7503 11.32 61.2203C11.38 78.6203 11.38 96.0103 11.32 113.41C11.31 114.9 11.79 115.11 13.11 115.11C31.25 115.07 49.38 115.08 67.52 115.08C70.67 115.08 73.81 115.08 76.96 115.08C92.04 115.08 107.13 115.08 122.21 115.08C123.06 115.08 123.81 115.23 123.81 113.88C123.77 96.1603 123.78 78.4403 123.81 60.7203C123.81 59.6903 123.42 59.5003 122.51 59.5103C119.46 59.5503 116.4 59.6003 113.35 59.4903M67.69 153.22C76.76 153.22 85.82 153.2 94.89 153.25C96.06 153.26 96.28 152.88 96.16 151.83C95.86 149.16 93.75 147.29 90.8 147.27C85.58 147.24 80.35 147.26 75.13 147.26C65.28 147.26 55.43 147.26 45.58 147.26C45.03 147.26 44.47 147.26 43.92 147.31C41.54 147.54 39.67 149.45 39.39 151.82C39.27 152.85 39.46 153.25 40.65 153.25C49.65 153.2 58.67 153.22 67.69 153.22ZM74.93 143.72C73.91 139.96 72.9 136.32 71.93 132.67C71.8 132.2 71.52 132.12 71.12 132.12C68.9 132.12 66.68 132.13 64.46 132.12C63.99 132.12 63.72 132.24 63.58 132.76C62.69 136.15 61.76 139.53 60.84 142.92C60.68 143.49 60.81 143.74 61.48 143.74C65.92 143.71 70.35 143.72 74.93 143.72Z" fill="#222C4F"/>
<path d="M61.72 123.43C61.72 121.82 60.4 120.48 58.84 120.51C57.32 120.54 56.07 121.83 56.05 123.38C56.03 125.09 57.18 126.29 58.86 126.3C60.55 126.32 61.72 125.14 61.72 123.43ZM86.15 123.4C86.13 121.8 84.78 120.46 83.23 120.52C81.7 120.58 80.48 121.86 80.48 123.43C80.47 125.14 81.64 126.32 83.33 126.32C85.02 126.3 86.17 125.11 86.15 123.4ZM68.28 123.38C68.26 125.08 69.4 126.28 71.07 126.3C72.74 126.31 73.93 125.13 73.93 123.45C73.93 121.87 72.59 120.51 71.07 120.53C69.58 120.56 68.3 121.87 68.28 123.38Z" fill="#D7E6F7"/>
<path d="M61.72 123.43C61.72 125.13 60.55 126.31 58.86 126.3C57.18 126.29 56.03 125.09 56.05 123.38C56.07 121.83 57.32 120.54 58.84 120.51C60.39 120.48 61.71 121.82 61.72 123.43Z" fill="#FFCD02"/>
<path d="M86.15 123.4C86.17 125.11 85.01 126.3 83.33 126.31C81.64 126.32 80.48 125.13 80.48 123.42C80.49 121.85 81.7 120.57 83.23 120.51C84.78 120.46 86.14 121.8 86.15 123.4Z" fill="#FFCD02"/>
<path d="M68.28 123.38C68.3 121.87 69.58 120.56 71.07 120.53C72.59 120.5 73.93 121.87 73.93 123.45C73.93 125.13 72.75 126.31 71.07 126.3C69.41 126.28 68.26 125.08 68.28 123.38Z" fill="#EC6467"/>
<path d="M94.15 48.1603C94.58 46.4503 94.87 44.6903 95.47 43.0403C96 41.5903 96.84 40.7803 98.54 41.1903C102.2 42.0603 105.82 43.1003 109.45 44.0603C109.56 44.2603 109.74 44.3003 109.94 44.3003C110.52 45.6003 110.56 46.9203 110.17 48.2903C109.55 50.4903 108.97 52.7103 108.37 54.9103C105.78 64.5203 103.19 74.1303 100.61 83.7403C99.24 88.8603 97.87 93.9803 96.55 99.1003C96.27 100.16 95.79 100.58 94.62 100.53C92.28 100.43 89.93 100.52 87.59 100.53C87.44 100.51 87.29 100.5 87.14 100.48C87 99.7202 86.4 99.4803 85.77 99.2903C84.12 98.8003 82.46 98.3202 80.81 97.8402C81.46 95.4202 82.11 93.0003 82.77 90.5703C84.47 90.6403 86.03 91.3503 87.68 91.6903C89.17 92.0003 90.67 91.1702 90.99 89.8102C91.28 88.5302 90.33 87.0702 88.93 86.7002C87.34 86.2802 85.75 85.8802 84.16 85.4802C84.71 82.9502 85.43 80.4603 86.17 77.9703C87.88 78.3903 89.58 78.8203 91.3 79.2203C92.59 79.5303 93.71 78.9202 94.16 77.7002C94.73 76.1702 94.06 74.8503 92.49 74.3003C90.87 73.7403 89.14 73.5503 87.57 72.8403C88.08 70.3803 88.75 67.9703 89.53 65.5803C89.89 65.6403 90.25 65.6703 90.6 65.7503C91.85 66.0703 93.08 66.4403 94.33 66.7403C95.8 67.0903 97.24 66.3403 97.55 65.1103C97.95 63.5003 97.33 62.3003 95.76 61.8003C94.53 61.4103 93.29 61.0903 92.04 60.7703C91.55 60.6403 91.08 60.5603 90.99 59.9503C91.25 58.8303 91.5 57.7203 91.76 56.6003C92.26 55.4303 92.26 54.1003 92.95 53.0003C93.38 53.1003 93.8 53.2003 94.23 53.2903C95.67 53.5903 97.03 54.2803 98.55 54.2203C99.76 54.1703 100.74 53.4703 100.95 52.4303C101.21 51.1803 100.65 49.7603 99.51 49.4303C97.74 48.9303 96.01 48.2503 94.15 48.1603Z" fill="#EFF2F9"/>
<path d="M87.58 100.53C89.92 100.52 92.27 100.43 94.61 100.53C95.78 100.58 96.27 100.16 96.54 99.1003C97.87 93.9703 99.23 88.8503 100.6 83.7403C103.18 74.1303 105.78 64.5203 108.36 54.9103C108.96 52.7003 109.53 50.4903 110.16 48.2903C110.55 46.9203 110.5 45.6003 109.93 44.3003C111.36 44.3703 112.68 44.8803 114.01 45.3203C115.3 45.7503 115.79 47.1003 115.39 48.6503C114.77 51.0603 114.13 53.4603 113.46 55.8503C113.35 56.2503 113.33 56.6403 113.34 57.0403C112.38 59.1803 112.08 61.5103 111.38 63.7303C111.31 63.9603 111.25 64.1903 111.18 64.4203C111.09 64.6903 111 64.9503 110.93 65.2203C107.78 76.9803 104.63 88.7503 101.49 100.51C101.06 102.2 100.63 103.89 100.2 105.58C93.09 105.59 85.98 105.6 78.86 105.6C78.87 105.12 78.88 104.65 78.89 104.17C79.05 103.76 79.21 103.34 79.37 102.93C80.89 103.32 82.39 103.74 83.92 104.07C84.44 104.18 84.94 104.43 85.56 104.22C87.26 103.67 87.65 103.04 87.58 100.53Z" fill="#CFE0F3"/>
<path d="M27.2 54.2401C27.62 52.1101 28.06 49.9801 28.47 47.8501C28.68 46.7701 28.68 45.6901 28.44 44.6101C28.18 43.4401 28.29 42.3401 29.36 41.5701C30.41 40.8201 31.47 41.0001 32.55 41.5601C36.94 43.8301 40.79 46.7701 43.86 50.6901C45.26 52.4801 46.3 54.4801 47.11 56.5901C47.72 58.6701 48.08 60.7701 47.49 62.9301C47.18 62.9501 47 63.1701 46.77 63.3401C44.58 64.9901 42.07 65.9001 39.37 65.8101C35.22 65.6601 31.93 63.7201 29.49 60.3701C28.16 58.5401 27.67 56.4001 27.2 54.2401Z" fill="#9C4E2A"/>
<path d="M58.19 56.5802C59.28 52.8002 60.69 49.1402 62.14 45.4902C64.17 46.2302 66.29 46.4702 68.44 46.4502V46.5302C68.43 50.5302 68.43 54.5402 68.42 58.5402L68.43 58.6102C68.16 58.6602 67.88 58.6902 67.61 58.7602C64.76 59.5402 61.92 59.6202 59.07 58.7802C58.64 58.6502 58.05 58.6202 58.22 57.8902C58.21 57.4502 58.2 57.0102 58.19 56.5802Z" fill="#F9CBB5"/>
<path d="M68.41 58.5302C68.42 54.5302 68.42 50.5202 68.43 46.5202C70.57 46.5602 72.64 46.1402 74.71 45.7002C75.79 47.7102 76.31 49.9402 77.18 52.0402C77.79 53.5202 78.24 55.0602 78.66 56.6002C78.65 56.9502 78.64 57.2902 78.63 57.6402C78.83 58.4402 78.37 58.6902 77.7 58.8702C74.56 59.6602 71.47 59.5302 68.41 58.5302Z" fill="#F4A28E"/>
<path d="M27.2 54.2402C27.67 56.3902 28.16 58.5402 29.5 60.3702C31.94 63.7202 35.23 65.6602 39.38 65.8102C42.09 65.9102 44.59 65.0002 46.78 63.3402C47 63.1702 47.19 62.9502 47.5 62.9302C47.37 63.4002 47.24 63.8702 47.12 64.3402C46.33 66.3302 45.01 67.9002 43.37 69.2402C41.44 70.3502 39.4 71.0802 37.12 70.9802C36.95 70.9802 36.78 70.9802 36.61 70.9802C32.39 70.4302 29.51 68.1002 27.71 64.3202C26.93 61.8102 26.6 59.2402 26.71 56.6102C27.11 55.8802 26.75 54.9802 27.2 54.2402Z" fill="#7E3529"/>
<path d="M74.71 45.6901C72.64 46.1301 70.56 46.5501 68.43 46.5101V46.4301C68.41 42.0701 68.38 37.7101 68.36 33.3601C69.45 33.1801 70.32 33.6601 70.69 34.5901C72.14 38.2501 73.58 41.9201 74.71 45.6901Z" fill="#243363"/>
<path d="M68.36 33.3701C68.38 37.7301 68.41 42.0901 68.43 46.4401C66.28 46.4701 64.17 46.2301 62.13 45.4801C63.35 42.1401 64.58 38.8001 65.79 35.4601C66.23 34.2501 66.89 33.3201 68.36 33.3701Z" fill="#1E4188"/>
<path d="M94.15 48.1602C96.01 48.2602 97.74 48.9402 99.5 49.4602C100.63 49.7902 101.2 51.2202 100.94 52.4602C100.73 53.4902 99.75 54.2002 98.54 54.2502C97.02 54.3102 95.66 53.6202 94.22 53.3202C93.79 53.2302 93.36 53.1302 92.94 53.0302C93.02 51.3202 93.63 49.7502 94.15 48.1602Z" fill="#CFE0F3"/>
<path d="M89.5 65.5902C89.52 65.1802 89.54 64.7702 89.57 64.3702C90.04 62.9002 90.5 61.4402 90.97 59.9702C91.06 60.5802 91.53 60.6602 92.02 60.7902C93.27 61.1102 94.51 61.4402 95.74 61.8202C97.3 62.3102 97.93 63.5202 97.53 65.1302C97.22 66.3602 95.79 67.1102 94.31 66.7602C93.06 66.4602 91.83 66.0902 90.58 65.7702C90.22 65.6702 89.86 65.6402 89.5 65.5902Z" fill="#CFE0F3"/>
<path d="M86.15 77.9703C86.45 76.2103 86.85 74.4903 87.55 72.8403C89.12 73.5503 90.85 73.7303 92.47 74.3003C94.04 74.8503 94.71 76.1703 94.14 77.7003C93.69 78.9203 92.57 79.5303 91.28 79.2203C89.57 78.8203 87.86 78.3903 86.15 77.9703Z" fill="#CFE0F3"/>
<path d="M82.76 90.57C83.08 88.84 83.46 87.12 84.14 85.48C85.73 85.89 87.32 86.29 88.91 86.7C90.31 87.07 91.26 88.52 90.97 89.81C90.66 91.17 89.16 92 87.66 91.69C86.02 91.35 84.46 90.64 82.76 90.57Z" fill="#CFE0F3"/>
<path d="M79.83 100.51C79.9 100.51 79.98 100.5 80.06 100.5C82.42 100.49 84.78 100.49 87.13 100.48C87.28 100.5 87.43 100.51 87.58 100.53C87.65 103.04 87.26 103.66 85.56 104.22C84.94 104.42 84.44 104.18 83.92 104.07C82.39 103.74 80.88 103.32 79.37 102.93C79.31 102.08 79.95 101.37 79.83 100.51Z" fill="#AECEE8"/>
<path d="M87.13 100.48C84.77 100.49 82.41 100.49 80.06 100.5C80.24 99.5903 80.38 98.6803 80.8 97.8403C82.46 98.3203 84.11 98.8003 85.76 99.2903C86.39 99.4803 87 99.7203 87.13 100.48Z" fill="#CFE0F3"/>
<path d="M78.89 64.3399C78.88 71.9599 78.85 79.5799 78.85 87.1999C78.85 91.6299 78.88 96.0699 78.89 100.5C78.89 101.72 78.89 102.95 78.89 104.17C78.88 104.65 78.87 105.12 78.86 105.6C78.52 105.8 78.15 105.73 77.79 105.73C71.61 105.73 65.42 105.71 59.24 105.76C58.23 105.77 57.89 105.49 57.97 104.48C58.07 103.16 58.03 101.83 58.06 100.5C61.01 100.5 63.96 100.44 66.91 100.53C68.14 100.57 68.46 100.23 68.45 98.9999C68.4 85.5299 68.42 72.0699 68.42 58.5999L68.41 58.5299C71.47 59.5299 74.56 59.6599 77.69 58.8599C78.37 58.6899 78.83 58.4299 78.62 57.6299C79.08 59.0799 78.76 60.5699 78.84 62.0399C78.9 62.8099 78.88 63.5799 78.89 64.3399Z" fill="#F0821B"/>
<path d="M101.51 100.5C102.43 100.5 103.36 100.48 104.28 100.49C106.03 100.5 107.34 101.64 107.27 103.1C107.2 104.48 105.89 105.77 104.31 105.61C102.96 105.47 101.58 105.57 100.21 105.57C100.65 103.87 101.08 102.18 101.51 100.5Z" fill="#EC6467"/>
<path d="M78.89 104.17C78.89 102.95 78.89 101.72 78.89 100.5C79.2 100.5 79.51 100.5 79.83 100.5C79.94 101.36 79.3 102.08 79.37 102.93C79.21 103.35 79.05 103.76 78.89 104.17Z" fill="#EC6467"/>
<path d="M68.42 58.5999C68.42 72.0699 68.4 85.5299 68.45 98.9999C68.45 100.23 68.14 100.57 66.91 100.53C63.96 100.44 61.01 100.5 58.06 100.5C58.05 88.9699 58.04 77.4499 58.03 65.9199C58.03 65.3999 57.99 64.8799 57.98 64.3499C58 62.6199 58.01 60.8899 58.05 59.1699C58.06 58.7399 57.95 58.2799 58.21 57.8799C58.04 58.6099 58.64 58.6399 59.06 58.7699C61.91 59.6099 64.75 59.5299 67.6 58.7499C67.87 58.6799 68.15 58.6499 68.42 58.5999Z" fill="#F5A12B"/>
<path d="M43.35 69.25C46.35 69.97 48.71 71.5 50 74.41C50.54 75.62 50.8 76.91 51.01 78.22C50.89 78.24 50.77 78.24 50.65 78.27C46.99 79.24 43.33 80.18 39.69 81.21C38.68 81.49 38.09 81.43 37.88 80.28C37.76 79.61 37.48 78.97 37.27 78.32C36.46 75.89 36.26 73.46 37.1 70.99C39.38 71.09 41.42 70.36 43.35 69.25Z" fill="#EFF2F9"/>
<path d="M37.11 70.9902C36.26 73.4502 36.47 75.8902 37.28 78.3202C37.5 78.9702 37.77 79.6102 37.89 80.2802C38.1 81.4302 38.69 81.5002 39.7 81.2102C43.34 80.1802 47 79.2402 50.66 78.2702C50.78 78.2402 50.9 78.2402 51.02 78.2202C51.62 79.8702 51.99 81.5602 52.17 83.3002C51.93 83.3402 51.69 83.3602 51.46 83.4202C47.57 84.4302 43.68 85.4502 39.79 86.4602C39.38 85.1202 38.96 83.7802 38.57 82.4402C38.38 81.7802 38.1 81.5402 37.35 81.8002C36.33 82.1502 35.26 82.3302 34.21 82.5802C32.74 78.9002 32.64 75.3702 35.41 72.1702C35.77 71.7502 36.2 71.3802 36.6 70.9902C36.77 70.9902 36.94 70.9902 37.11 70.9902Z" fill="#CFE0F3"/>
<path d="M39.79 86.4603C43.68 85.4403 47.57 84.4303 51.46 83.4203C51.69 83.3603 51.93 83.3403 52.17 83.3003C53.61 88.9103 54.9 94.5603 56.1 100.23C55.94 100.44 55.71 100.5 55.46 100.5C51.87 100.5 48.29 100.49 44.7 100.51C44.13 100.51 44 100.25 43.85 99.7503C42.52 95.3903 41.14 91.0403 39.77 86.6803C39.77 86.6103 39.78 86.5303 39.79 86.4603Z" fill="#EFF2F9"/>
<path d="M39.77 86.6802C41.14 91.0302 42.51 95.3902 43.85 99.7502C44 100.25 44.13 100.51 44.7 100.51C48.28 100.49 51.87 100.5 55.46 100.5C55.71 100.5 55.94 100.44 56.1 100.23C56.68 101.65 56.84 103.18 57.24 104.64C57.44 105.36 57.11 105.63 56.35 105.63C51.58 105.6 46.81 105.61 42.05 105.62C41.67 105.62 41.33 105.57 41.03 105.33C40.64 103.69 40.19 102.07 39.55 100.51C38.62 97.3702 37.7 94.2402 36.77 91.1002C36.41 89.8802 36.05 88.6502 35.69 87.4302C37.1 87.4902 38.37 86.7102 39.77 86.6802Z" fill="#CFE0F3"/>
<path d="M39.54 100.51C40.17 102.07 40.63 103.69 41.02 105.33C40.72 105.72 40.28 105.59 39.9 105.59C37.4 105.6 34.91 105.6 32.41 105.59C30.83 105.59 29.61 104.49 29.6 103.08C29.58 101.71 30.86 100.53 32.42 100.51C34.79 100.49 37.16 100.5 39.54 100.51Z" fill="#EC6467"/>
<path d="M39.77 86.6804C38.37 86.7104 37.1 87.4804 35.68 87.4304C35.04 85.8604 34.58 84.2304 34.21 82.5704C35.26 82.3204 36.34 82.1404 37.35 81.7904C38.1 81.5304 38.37 81.7704 38.57 82.4304C38.96 83.7804 39.38 85.1103 39.79 86.4503C39.78 86.5303 39.77 86.6104 39.77 86.6804Z" fill="#AECEE8"/>
<path d="M19.16 16.21C19.16 16.21 18.88 27.32 10.3 26.9C11.38 26.97 13.11 27.23 14.89 28.27C18.84 30.57 19.83 34.78 20.01 35.62C19.92 34.85 19.69 32.11 21.46 29.55C24.09 25.74 28.76 25.76 29.15 25.77C29.14 25.78 20 27.89 19.16 16.21Z" fill="#EC6467"/>
<path d="M36.5 0C36.5 0 36.22 11.11 27.64 10.69C28.72 10.76 30.45 11.02 32.23 12.06C36.18 14.36 37.17 18.57 37.35 19.41C37.26 18.64 37.03 15.9 38.8 13.34C41.43 9.53 46.1 9.55 46.49 9.56C46.49 9.57 37.34 11.68 36.5 0Z" fill="#FFCD02"/>
<path d="M115.53 24.46C115.53 24.46 115.3 33.68 108.18 33.33C109.08 33.39 110.51 33.61 111.99 34.47C115.26 36.38 116.09 39.87 116.23 40.57C116.15 39.93 115.97 37.66 117.44 35.54C119.62 32.38 123.49 32.4 123.82 32.4C123.82 32.4 116.23 34.15 115.53 24.46Z" fill="#EC6467"/>
<path d="M106.63 12.36C108.95 12.36 110.83 10.4796 110.83 8.15996C110.83 5.84037 108.95 3.95996 106.63 3.95996C104.31 3.95996 102.43 5.84037 102.43 8.15996C102.43 10.4796 104.31 12.36 106.63 12.36Z" fill="#FFD631"/>
<path d="M10.95 13.9102C12.3086 13.9102 13.41 12.8089 13.41 11.4502C13.41 10.0916 12.3086 8.99023 10.95 8.99023C9.59136 8.99023 8.48999 10.0916 8.48999 11.4502C8.48999 12.8089 9.59136 13.9102 10.95 13.9102Z" fill="#EC6467"/>
</svg>
