<svg width="136" height="124" viewBox="0 0 136 124" fill="none" xmlns="http://www.w3.org/2000/svg">
<path d="M113.13 15.1114C117.94 15.0414 122.75 15.0714 127.57 15.0814C132.28 15.0914 135.28 18.0614 135.28 22.8014C135.29 45.8914 135.29 68.9814 135.28 92.0714C135.28 96.6714 132.42 99.4914 127.83 99.5014C110.8 99.5114 93.77 99.5014 76.74 99.5014C75.14 99.5014 75.14 99.5014 75.54 101.031C76.31 103.931 77.14 106.811 77.84 109.731C78.11 110.851 78.61 111.141 79.73 111.121C83.34 111.041 86.95 111.071 90.56 111.091C95.51 111.121 99.14 114.631 99.34 119.571C99.38 120.491 99.36 121.421 99.37 122.351C99.38 123.451 98.84 123.971 97.75 123.941C97.47 123.931 97.19 123.941 96.92 123.941C77.48 123.941 58.05 123.941 38.61 123.941C36.15 123.941 35.83 123.601 35.79 121.151C35.76 119.191 35.78 117.261 36.83 115.511C38.5 112.741 40.91 111.141 44.2 111.101C48.09 111.061 51.98 111.021 55.86 111.121C57.06 111.151 57.44 110.711 57.7 109.671C58.43 106.711 59.19 103.761 60.06 100.841C60.4 99.6914 60.17 99.4714 59.02 99.4714C41.95 99.5014 24.87 99.4814 7.8 99.5114C5.88 99.5114 4.11 99.1714 2.61 97.9414C0.779997 96.4314 0 94.4414 0 92.0814C0.02 79.2214 0.00999832 66.3514 0.00999832 53.4914C0.00999832 43.3114 0.00999832 33.1314 0.00999832 22.9514C0.00999832 17.8914 2.84 15.0914 7.94 15.0814C12.75 15.0814 17.57 15.0514 22.38 15.1014M22.19 18.6414C17.47 18.6914 12.75 18.6614 8.03 18.6614C4.74 18.6614 3.33 20.0714 3.33 23.3914C3.33 46.1614 3.33 68.9214 3.33 91.6914C3.33 94.9914 4.74 96.4114 8.05 96.4114C27.9 96.4114 47.75 96.4114 67.61 96.4114C87.6 96.4114 107.59 96.4114 127.58 96.4114C130.31 96.4114 131.93 94.9314 131.93 92.3214C131.94 69.1814 131.94 46.0514 131.93 22.9114C131.93 20.0814 130.46 18.6714 127.63 18.6614C122.15 18.6514 116.72 18.6214 115.14 18.6614C114.24 18.6814 113.35 18.6914 113.35 18.6914C113.15 18.6914 112.9 18.6914 112.39 18.6914C112.39 18.6914 111.45 18.6914 109.84 18.6814C109.94 19.5214 110.14 20.1914 110.31 20.6514C110.47 21.0714 110.65 21.5514 111.05 22.0714C111.2 22.2714 111.43 22.5614 111.79 22.8214C112.32 23.2014 113.06 23.3614 113.06 23.3614C113.06 23.3614 121.53 23.5914 124.3 23.3414C127 23.3414 127.27 23.6014 127.27 26.2414C127.27 45.0314 127.27 63.8114 127.27 82.6014C127.27 85.2914 126.81 85.7514 124.13 85.7514C86.46 85.7514 48.79 85.7514 11.13 85.7514C10.85 85.7514 10.57 85.7614 10.3 85.7514C8.6 85.7014 8.04 85.1714 8.04 83.4914C8.03 64.2014 8.03 44.9014 8.04 25.6014C8.04 24.7314 8.16 24.1714 8.5 23.8214C9.13 23.1814 10.2 23.3214 10.38 23.3314C10.94 23.3814 11.42 23.3814 11.83 23.3714C12.79 23.3514 13.49 23.2914 13.62 23.2814C16.07 23.0414 18.54 22.9114 20.99 22.6314C23.56 22.3314 46.02 22.3914 113.06 23.3514C112.77 23.2914 112.27 23.1614 111.79 22.8114C110.13 21.6014 109.85 18.6614 109.85 18.6614C109.96 18.6614 110.22 18.6614 110.33 18.6614C110.49 18.6614 110.82 18.6614 111.84 18.6614C112.21 18.6614 112.39 18.6614 112.4 18.6614C112.72 18.6614 112.97 18.6514 113.36 18.6614C113.4 18.6614 113.44 18.6614 113.46 18.6614M21.98 26.8914C19.02 26.9714 16.06 26.9814 13.1 26.8914C11.76 26.8514 11.31 27.1314 11.32 28.6014C11.38 46.0014 11.38 63.3914 11.32 80.7914C11.31 82.2814 11.79 82.4914 13.11 82.4914C31.25 82.4514 49.38 82.4614 67.52 82.4614C70.67 82.4614 73.81 82.4614 76.96 82.4614C92.04 82.4614 107.13 82.4614 122.21 82.4614C123.06 82.4614 123.81 82.6114 123.81 81.2614C123.77 63.5414 123.78 45.8214 123.81 28.1014C123.81 27.0714 123.42 26.8814 122.51 26.8914C119.46 26.9314 116.4 26.9814 113.35 26.8714M67.69 120.601C76.76 120.601 85.82 120.581 94.89 120.631C96.06 120.641 96.28 120.261 96.16 119.211C95.86 116.541 93.75 114.671 90.8 114.651C85.58 114.621 80.35 114.641 75.13 114.641C65.28 114.641 55.43 114.641 45.58 114.641C45.03 114.641 44.47 114.641 43.92 114.691C41.54 114.921 39.67 116.831 39.39 119.201C39.27 120.231 39.46 120.631 40.65 120.631C49.65 120.581 58.67 120.601 67.69 120.601ZM74.93 111.091C73.91 107.331 72.9 103.691 71.93 100.041C71.8 99.5714 71.52 99.4914 71.12 99.4914C68.9 99.4914 66.68 99.5014 64.46 99.4914C63.99 99.4914 63.72 99.6114 63.58 100.131C62.69 103.521 61.76 106.901 60.84 110.291C60.68 110.861 60.81 111.111 61.48 111.111C65.92 111.081 70.35 111.091 74.93 111.091Z" fill="#222C4F"/>
<path d="M61.72 90.8111C61.72 89.2011 60.4 87.8611 58.84 87.8911C57.32 87.9211 56.07 89.2111 56.05 90.7611C56.03 92.4711 57.18 93.6711 58.86 93.6811C60.55 93.6911 61.72 92.5111 61.72 90.8111ZM86.15 90.7711C86.13 89.1711 84.78 87.8311 83.23 87.8911C81.7 87.9511 80.48 89.2311 80.48 90.8011C80.47 92.5111 81.64 93.6911 83.33 93.6911C85.01 93.6811 86.17 92.4811 86.15 90.7711ZM68.28 90.7511C68.26 92.4511 69.4 93.6511 71.07 93.6711C72.74 93.6811 73.93 92.5011 73.93 90.8211C73.93 89.2411 72.59 87.8811 71.07 87.9011C69.58 87.9311 68.3 89.2411 68.28 90.7511Z" fill="#D7E6F7"/>
<path d="M61.72 90.8111C61.72 92.5111 60.55 93.6911 58.86 93.6811C57.18 93.6711 56.03 92.4711 56.05 90.7611C56.07 89.2111 57.32 87.9211 58.84 87.8911C60.39 87.8611 61.71 89.1911 61.72 90.8111Z" fill="#FFCD02"/>
<path d="M86.15 90.7713C86.17 92.4813 85.01 93.6713 83.33 93.6813C81.64 93.6913 80.48 92.5012 80.48 90.7912C80.49 89.2212 81.7 87.9412 83.23 87.8812C84.78 87.8312 86.14 89.1713 86.15 90.7713Z" fill="#FFCD02"/>
<path d="M68.28 90.7514C68.3 89.2414 69.58 87.9314 71.07 87.9014C72.59 87.8714 73.93 89.2413 73.93 90.8213C73.93 92.5013 72.75 93.6814 71.07 93.6714C69.4 93.6614 68.25 92.4614 68.28 90.7514Z" fill="#EC6467"/>
<path d="M99.78 0.931505L100.13 9.40151C100.15 9.94151 99.73 10.3915 99.2 10.4115L98.83 10.4315C98.29 10.4515 97.84 10.0315 97.82 9.50151L97.47 1.03151C97.45 0.491511 97.87 0.0415015 98.4 0.0215015L98.77 0.00151248C99.31 -0.0284875 99.76 0.391505 99.78 0.931505Z" fill="#1E4188"/>
<path d="M93.09 12.5115L86.27 7.4815C85.84 7.1615 85.74 6.55152 86.06 6.12152L86.28 5.8215C86.6 5.3915 87.21 5.29151 87.64 5.61151L94.46 10.6415C94.89 10.9615 94.99 11.5715 94.67 12.0015L94.45 12.3015C94.14 12.7415 93.53 12.8315 93.09 12.5115Z" fill="#FFCD02"/>
<path d="M111.47 8.0214L104.05 12.1314C103.58 12.3914 102.99 12.2214 102.72 11.7514L102.54 11.4314C102.28 10.9614 102.45 10.3714 102.92 10.1014L110.34 5.9914C110.81 5.7314 111.4 5.9014 111.67 6.3714L111.85 6.69138C112.11 7.17138 111.94 7.7614 111.47 8.0214Z" fill="#EC6467"/>
<path d="M32.38 51.3512L36.49 43.9412C36.75 43.4712 37.35 43.3012 37.82 43.5612L38.14 43.7412C38.61 44.0012 38.78 44.6012 38.52 45.0712L34.41 52.4812C34.15 52.9512 33.55 53.1212 33.08 52.8612L32.76 52.6812C32.29 52.4112 32.12 51.8212 32.38 51.3512Z" fill="#1E4188"/>
<path d="M44.13 44.9513L47.33 52.8013C47.53 53.3013 47.29 53.8713 46.8 54.0713L46.46 54.2113C45.96 54.4113 45.39 54.1713 45.19 53.6813L41.99 45.8313C41.79 45.3313 42.03 44.7613 42.52 44.5613L42.86 44.4213C43.35 44.2113 43.92 44.4513 44.13 44.9513Z" fill="#FFCD02"/>
<path d="M26.1 39.2014L34.57 39.5614C35.11 39.5814 35.53 40.0414 35.5 40.5814L35.48 40.9514C35.46 41.4914 35 41.9114 34.46 41.8814L25.99 41.5214C25.45 41.5014 25.03 41.0414 25.06 40.5014L25.08 40.1314C25.11 39.6014 25.56 39.1814 26.1 39.2014Z" fill="#EC6467"/>
<path d="M35.49 31.9411C35.52 31.8011 35.56 31.6712 35.58 31.5312C35.84 28.8712 35.84 28.8711 38.07 30.0411C38.87 30.5811 39.65 31.1512 40.48 31.6512C43.6 33.5112 45.18 33.0711 47.07 29.8511C48.82 27.2711 48.72 25.7811 46.71 24.1111C46.67 23.9911 46.59 23.9311 46.47 23.9411C46.37 23.8711 46.27 23.8011 46.17 23.7411C45.75 23.5111 45.34 23.2811 44.92 23.0511C44.14 22.4811 43.41 21.8311 42.58 21.3511C41.12 20.5011 41.66 19.9811 42.77 19.4211C43.98 18.8211 45.28 18.6312 46.59 18.4312C49.79 18.8712 52.67 20.0011 54.99 22.3311C55.37 22.9411 55.76 23.5412 56.14 24.1512C57.51 26.7212 56.84 29.3312 56.3 31.9312C58.21 34.4912 60.54 36.6311 62.94 38.7011C63.6 39.7811 64.54 40.5812 65.53 41.3412C67.33 43.4712 69.29 45.4311 71.41 47.2411C71.8 47.9311 72.36 48.4511 73.01 48.8911C75.28 51.4411 77.68 53.8712 80.26 56.1212C80.98 56.8212 81.69 57.5112 82.41 58.2112C83.25 59.1112 84.16 59.9612 84.91 60.9312C86.04 62.3812 87.29 62.6411 88.8 61.6011C91.94 61.1811 94.71 62.0511 97.2 63.9411C97.69 64.5411 98.18 65.1411 98.67 65.7411C99.25 67.0911 99.82 68.4211 99.78 69.9711C99.7 72.7111 99.55 72.8412 97.21 71.6512L97.14 71.5211L96.99 71.5312C96.61 71.0712 96.14 70.7611 95.56 70.6311C92.5 68.3711 90.9 68.4111 88.87 70.8211C86.49 73.6311 86.45 75.4211 88.71 77.6311C90.13 78.5911 91.53 79.5812 92.98 80.5012C93.74 80.9812 93.93 81.4411 93.18 82.0711C91.79 82.7511 90.29 83.0511 88.78 83.2911C87.53 83.0311 86.29 82.7711 85.04 82.5211C83.38 81.6711 81.76 80.7512 80.41 79.4312C79.28 77.8312 78.52 76.0712 78.22 74.1212C78.46 73.0312 78.67 71.9311 78.97 70.8611C79.18 70.1211 79.17 69.5311 78.58 68.9511C75.63 66.0711 72.71 63.1611 69.77 60.2611C68.92 59.1211 67.91 58.1312 66.8 57.2512C65.69 56.1212 64.79 54.7911 63.46 53.8911C61.89 52.0011 60.09 50.3312 58.28 48.6812C55.69 46.0712 53.02 43.5411 50.53 40.8311C49.3 39.5011 48.17 39.0111 46.59 40.0411C46.12 40.1211 45.65 40.2111 45.17 40.2911C44.09 40.1711 43.02 40.0411 41.94 39.9211C40.83 39.3411 39.71 38.7511 38.6 38.1711C36.97 36.4011 35.59 34.5011 35.49 31.9411ZM55.8 40.9312C63.76 48.9412 71.71 56.9511 79.68 64.9511C80.41 65.6911 81.2 66.7011 82.32 65.6311C83.52 64.4811 82.51 63.6311 81.71 62.8211C77.15 58.2511 72.61 53.6712 68.03 49.1212C64.95 46.0612 61.83 43.0412 58.73 40.0012C57.53 38.7512 56.35 37.4812 55.14 36.2512C54.46 35.5612 53.65 35.4411 52.94 36.1711C52.2 36.9211 52.44 37.7111 53.1 38.3811C53.96 39.2511 54.89 40.0812 55.8 40.9312Z" fill="#FFCD02"/>
<path d="M83.35 32.4711C85.52 30.7811 86.45 28.2911 87.54 25.9211C87.92 25.1011 88.24 24.2611 89.1 23.8111C91.13 22.6411 93.16 21.4811 95.18 20.2911C95.84 19.9011 96.47 19.4411 97.22 20.0911C97.72 21.1611 99.73 21.7611 98.28 23.4511C97.91 24.1011 97.53 24.7411 97.16 25.3911C95.39 27.4611 94.85 30.6311 91.72 31.4811C90.61 31.7911 89.62 32.3311 88.73 33.0511C85.69 34.7611 83.67 37.5811 81.26 39.9711C80.67 40.3411 80.15 40.7911 79.83 41.4411C78.37 42.8511 76.79 44.1511 75.48 45.6911C74.36 46.9911 73.47 47.1311 72.37 45.8311C71.36 44.9911 71.52 44.1711 72.43 43.3711C73.25 42.5411 74.08 41.7011 74.9 40.8711C76.89 38.8911 78.88 36.9111 80.87 34.9311C81.69 34.1211 82.52 33.2911 83.35 32.4711Z" fill="#222C4F"/>
<path d="M66.12 62.0213C60.37 67.7213 54.6 73.3813 48.9 79.1313C47.94 80.1013 46.51 80.6213 46.02 82.0413C45.38 82.2113 44.75 82.3713 44.11 82.5413C42.29 81.9413 40.2 82.1913 38.62 80.8213C36.8 78.9513 35.87 76.7713 36.36 74.1113C36.74 72.8813 37.46 71.8313 38.18 70.7913C40.01 69.2413 41.69 67.5313 43.27 65.7213C44.39 64.6113 45.51 63.4913 46.62 62.3813C48.31 60.6813 50 58.9813 51.68 57.2813C53.22 56.0113 54.65 54.6213 55.86 53.0313L55.89 53.0413C56.28 52.8713 56.59 52.6313 56.74 52.2213L56.75 52.2113C57.22 52.0113 57.53 51.6613 57.69 51.1713C57.8 51.1513 57.9 51.1113 58 51.0513C59.8 52.7213 61.6 54.3913 63.39 56.0613C63.69 56.5813 64.07 57.0113 64.62 57.2913C65.09 57.8013 65.5 58.4113 66.06 58.8213C67.55 59.9013 67.32 60.9313 66.12 62.0213ZM46.62 77.5413C47.75 76.4113 48.87 75.2813 50 74.1613C51.81 72.6013 53.49 70.9113 55.05 69.1113C56.18 67.9813 57.3 66.8513 58.43 65.7213C59.5 64.7113 60.55 63.6913 61.63 62.6913C62.37 62.0013 62.89 61.2513 61.98 60.3813C61.17 59.6113 60.43 60.0813 59.8 60.7313C58.33 62.2313 56.88 63.7513 55.42 65.2613C55.14 65.5413 54.86 65.8113 54.58 66.0913C51.92 68.5013 49.39 71.0413 46.98 73.6913C46.7 73.9713 46.43 74.2513 46.15 74.5313C45.69 74.9413 45.2 75.3213 44.77 75.7713C44.07 76.4913 42.95 77.2813 43.97 78.3413C45.1 79.4913 45.93 78.4613 46.62 77.5413ZM55.01 61.3713C55.63 60.8213 56.31 60.3213 56.86 59.7113C57.69 58.8013 59.44 57.8213 58.01 56.5213C56.54 55.1913 55.9 57.2713 54.98 58.0013C52.43 60.5513 49.89 63.0913 47.34 65.6413C46.92 66.0613 46.51 66.4913 46.09 66.9113C44.2 68.7513 42.3 70.6013 40.41 72.4513C39.73 73.1213 39.47 73.9113 40.24 74.6313C40.94 75.2913 41.66 74.9613 42.25 74.3513C43.69 72.8513 45.12 71.3413 46.56 69.8313C48.11 68.6113 49.49 67.2313 50.7 65.6813C52.36 64.4713 53.62 62.8513 55.01 61.3713Z" fill="#EC6467"/>
<path d="M115.83 23.1013C114.86 23.2313 113.78 23.3313 112.6 23.3513C110.64 23.3813 108.91 23.1914 107.47 22.9314C106.77 21.5914 106.08 20.2414 105.38 18.9014C107.12 18.8214 108.62 18.7614 109.89 18.7114C110.27 18.6914 110.71 18.6813 111.31 18.7213C112.31 18.8013 112.72 18.9814 113.5 19.0914C114.03 19.1614 114.8 19.2114 115.79 19.0514C115.81 20.4014 115.82 21.7513 115.83 23.1013Z" fill="white"/>
</svg>
