<svg width="93" height="132" viewBox="0 0 93 132" fill="none" xmlns="http://www.w3.org/2000/svg">
<path d="M11.7001 74.7267C11.7001 58.5567 11.7001 42.3867 11.7001 26.2267C11.7001 21.1867 14.7401 18.1367 19.7801 18.1367C36.4001 18.1367 53.0201 18.1367 69.6401 18.1367C74.6801 18.1367 77.7301 21.1867 77.7301 26.2267C77.7301 58.6367 77.7301 91.0467 77.7301 123.457C77.7301 128.497 74.6801 131.547 69.6401 131.547C53.0201 131.547 36.4001 131.547 19.7801 131.547C14.7501 131.547 11.7001 128.487 11.7001 123.447C11.7001 107.217 11.7001 90.9667 11.7001 74.7267ZM20.0501 117.617C18.7401 117.607 17.4301 117.617 16.1201 117.587C15.5801 117.577 15.3001 117.687 15.3101 118.327C15.3401 120.347 15.2801 122.377 15.3401 124.397C15.3901 126.027 16.5901 127.387 18.1601 127.777C19.2301 128.047 20.3201 127.957 21.4001 127.917C21.6601 127.937 21.9201 127.967 22.1901 127.967C36.5501 127.967 50.9201 127.967 65.2801 127.967C65.5801 127.967 65.8801 127.937 66.1801 127.917C67.5701 127.937 68.9601 128.027 70.3501 127.957C72.5601 127.857 74.1001 126.197 74.1101 123.977C74.1201 122.137 74.0901 120.287 74.1201 118.447C74.1301 117.827 73.9501 117.567 73.2901 117.587C71.3701 117.627 69.4601 117.627 67.5401 117.637C63.3201 117.627 59.1001 117.597 54.8801 117.597C43.3501 117.597 31.8301 117.617 20.3001 117.617C20.2201 117.617 20.1301 117.617 20.0501 117.617ZM15.3601 36.8467C15.3501 37.1867 15.3201 37.5267 15.3201 37.8567C15.3201 62.8367 15.3201 87.8267 15.3201 112.807C15.3201 112.957 15.3401 113.107 15.3201 113.257C15.2601 113.777 15.4401 113.997 16.0001 113.987C17.4301 113.947 18.8601 113.947 20.2901 113.937C20.7001 113.947 21.1201 113.977 21.5301 113.977C36.4601 113.977 51.3801 113.977 66.3101 113.977C66.7201 113.977 67.1401 113.947 67.5501 113.937C69.3201 113.947 71.0901 113.897 72.8601 114.007C73.9201 114.067 74.1401 113.717 74.1401 112.707C74.1101 87.7767 74.1101 62.8367 74.1401 37.9067C74.1401 36.8167 73.8001 36.6367 72.8201 36.6367C55.7201 36.6567 38.6201 36.6467 21.5201 36.6467C21.1101 36.6467 20.6901 36.6867 20.2801 36.6967C18.7001 36.6967 17.1201 36.6967 15.5501 36.6967C15.3901 36.6467 15.3401 36.7067 15.3601 36.8467ZM21.4001 21.7767C20.6501 21.7667 19.8901 21.7067 19.1501 21.7467C16.9901 21.8767 15.3901 23.3267 15.3401 25.3067C15.2701 27.6367 15.3401 29.9667 15.3101 32.2967C15.3001 32.9167 15.5701 33.0567 16.1201 33.0467C17.5101 33.0067 18.9001 33.0067 20.2901 32.9967C26.3801 33.0067 32.4701 33.0267 38.5601 33.0267C48.2201 33.0267 57.8901 33.0067 67.5501 32.9967C69.3901 33.0067 71.2401 32.9667 73.0801 33.0367C73.9701 33.0767 74.1401 32.7267 74.1301 31.9267C74.0801 29.8567 74.1201 27.7867 74.1101 25.7167C74.1001 23.7767 73.1001 22.3967 71.2301 21.9167C69.5701 21.4967 67.8701 21.7367 66.1801 21.7767C65.8401 21.7567 65.5101 21.7267 65.1701 21.7267C50.8801 21.7267 36.5901 21.7267 22.3101 21.7267C22.0001 21.7267 21.7001 21.7567 21.4001 21.7767Z" fill="#222C4F"/>
<path d="M20.2901 117.817C20.2101 117.747 20.1301 117.687 20.0501 117.617C20.1301 117.617 20.2101 117.617 20.3001 117.617C20.2901 117.687 20.2901 117.757 20.2901 117.817Z" fill="#7A6E85"/>
<path d="M20.2901 58.5369C19.6701 57.9669 19.4201 57.2769 19.4301 56.4269C19.4501 52.9969 19.4501 49.5769 19.4301 46.1469C19.4301 45.3069 19.6101 44.5869 20.2801 44.0369C20.7701 43.8169 21.3001 43.7969 21.8301 43.7969C25.2601 43.7969 28.6801 43.7869 32.1101 43.7969C33.8801 43.7969 34.4701 44.3869 34.4701 46.1869C34.4801 49.5769 34.4801 52.9669 34.4701 56.3569C34.4701 58.1669 33.8401 58.7769 32.0001 58.7869C28.6501 58.7869 25.3001 58.7769 21.9501 58.7969C21.3801 58.7869 20.8301 58.7269 20.2901 58.5369ZM26.8501 55.1669C27.9401 55.1669 29.0301 55.1469 30.1201 55.1769C30.7101 55.1969 30.9101 54.9869 30.9001 54.3969C30.8701 52.3269 30.8801 50.2669 30.9001 48.1969C30.9101 47.6269 30.7201 47.3969 30.1201 47.3969C28.0201 47.4169 25.9101 47.4169 23.8101 47.3969C23.2201 47.3869 23.0201 47.6169 23.0301 48.1869C23.0501 50.2569 23.0501 52.3169 23.0301 54.3869C23.0201 54.9769 23.2201 55.1869 23.8101 55.1669C24.8201 55.1469 25.8301 55.1669 26.8501 55.1669Z" fill="#222C4F"/>
<path d="M20.2901 77.3069C19.6701 76.7369 19.4201 76.0469 19.4301 75.1969C19.4501 71.7669 19.4501 68.347 19.4301 64.917C19.4301 64.077 19.6101 63.3569 20.2801 62.8069C20.7701 62.5869 21.3001 62.5669 21.8301 62.5669C25.2601 62.5669 28.6801 62.5569 32.1101 62.5669C33.8801 62.5669 34.4701 63.157 34.4701 64.957C34.4801 68.347 34.4801 71.737 34.4701 75.127C34.4701 76.937 33.8401 77.5469 32.0001 77.5569C28.6501 77.5569 25.3001 77.5469 21.9501 77.5669C21.3801 77.5569 20.8301 77.4969 20.2901 77.3069ZM26.9701 73.937C28.0201 73.937 29.0801 73.9169 30.1301 73.9469C30.7201 73.9669 30.9201 73.737 30.9101 73.157C30.8901 71.127 30.8801 69.0969 30.9101 67.0669C30.9201 66.4369 30.6901 66.207 30.0601 66.217C27.9901 66.247 25.9301 66.247 23.8601 66.217C23.2101 66.207 23.0101 66.457 23.0201 67.077C23.0501 69.107 23.0401 71.137 23.0201 73.167C23.0101 73.757 23.2401 73.9669 23.8101 73.9469C24.8601 73.9169 25.9101 73.937 26.9701 73.937Z" fill="#222C4F"/>
<path d="M56.4601 43.8066C60.1801 43.8066 63.8901 43.8166 67.6101 43.8166C69.3601 43.8166 69.9701 44.4066 69.9701 46.1866C69.9801 49.5266 69.9801 52.8666 69.9701 56.2166C69.9701 58.1366 69.4601 58.6666 67.5401 58.8266C64.1901 58.8166 60.8301 58.7966 57.4801 58.7866C55.5601 58.7766 54.9501 58.1966 54.9501 56.3066C54.9401 52.9166 54.9601 49.5266 54.9401 46.1266C54.9401 44.9966 55.2501 44.1266 56.4601 43.8066ZM62.5301 47.4566C61.4801 47.4566 60.4201 47.4866 59.3701 47.4466C58.7401 47.4266 58.5001 47.6466 58.5101 48.2866C58.5401 50.3166 58.5301 52.3466 58.5101 54.3766C58.5001 54.9466 58.6901 55.1866 59.2901 55.1766C61.3901 55.1566 63.5001 55.1566 65.6001 55.1766C66.1701 55.1866 66.4101 54.9966 66.4001 54.4066C66.3801 52.3766 66.3701 50.3466 66.4001 48.3166C66.4101 47.5866 66.0901 47.4266 65.4501 47.4466C64.4801 47.4866 63.5101 47.4566 62.5301 47.4566Z" fill="#222C4F"/>
<path d="M52.19 88.8966C52.19 90.6666 52.2 92.4366 52.19 94.2066C52.18 95.6166 51.5201 96.2966 50.1201 96.3066C46.5001 96.3266 42.8901 96.3266 39.2701 96.3066C37.9201 96.2966 37.25 95.6066 37.25 94.2766C37.23 90.6166 37.23 86.9666 37.25 83.3066C37.26 82.0166 37.9001 81.3566 39.2001 81.3466C42.8901 81.3266 46.5901 81.3166 50.2801 81.3466C51.5601 81.3566 52.18 82.0366 52.19 83.3466C52.2 85.2066 52.19 87.0466 52.19 88.8966ZM48.5601 89.1366C48.5601 87.9366 48.5301 86.9666 48.5701 85.9866C48.6001 85.2866 48.4301 84.9666 47.6401 84.9866C45.6901 85.0366 43.7301 85.0166 41.7701 84.9866C41.1201 84.9766 40.8201 85.1466 40.8301 85.8666C40.8701 87.8566 40.8701 89.8566 40.8301 91.8466C40.8201 92.5666 41.1001 92.7466 41.7601 92.7266C42.7701 92.6866 43.7901 92.7366 44.8101 92.7066C46.0001 92.6666 47.5601 93.2166 48.3001 92.4966C49.1001 91.7166 48.4301 90.1366 48.5601 89.1366Z" fill="#222C4F"/>
<path d="M52.1901 51.3167C52.1901 53.0867 52.2001 54.8567 52.1901 56.6267C52.1801 58.0967 51.5201 58.7567 50.0401 58.7667C46.5001 58.7867 42.9601 58.7867 39.4101 58.7667C37.8701 58.7567 37.2401 58.0967 37.2401 56.5367C37.2301 53.0367 37.2301 49.5267 37.2401 46.0267C37.2401 44.4267 37.8301 43.8067 39.3901 43.7967C42.9301 43.7767 46.4701 43.7767 50.0201 43.7967C51.6001 43.8067 52.1901 44.4167 52.2001 45.9967C52.1901 47.7767 52.1901 49.5467 52.1901 51.3167ZM48.5801 51.3467C48.5801 50.2967 48.5401 49.2367 48.5901 48.1867C48.6201 47.5267 48.3701 47.3667 47.7501 47.3767C45.7201 47.4067 43.6901 47.4067 41.6601 47.3767C41.0501 47.3667 40.8001 47.5167 40.8101 48.1767C40.8501 50.2467 40.8401 52.3067 40.8201 54.3767C40.8101 54.9167 40.9001 55.1867 41.5401 55.1767C43.6401 55.1367 45.7501 55.1367 47.8501 55.1767C48.4801 55.1867 48.6001 54.9367 48.5801 54.3867C48.5601 53.3667 48.5801 52.3567 48.5801 51.3467Z" fill="#222C4F"/>
<path d="M52.1901 70.0365C52.1901 71.8465 52.2001 73.6565 52.1901 75.4665C52.1801 76.8665 51.5101 77.5365 50.1001 77.5465C46.5201 77.5665 42.9401 77.5665 39.3601 77.5465C37.8901 77.5365 37.2501 76.8665 37.2401 75.3765C37.2301 71.8365 37.2301 68.2965 37.2401 64.7465C37.2401 63.2265 37.8401 62.5865 39.3301 62.5765C42.9101 62.5565 46.4901 62.5565 50.0701 62.5765C51.5701 62.5865 52.1801 63.2165 52.1901 64.7265C52.2001 66.4865 52.1901 68.2665 52.1901 70.0365ZM44.7101 66.1865C43.7001 66.1865 42.6801 66.2065 41.6701 66.1765C41.1301 66.1665 40.8401 66.2765 40.8501 66.9165C40.8801 69.0165 40.8701 71.1265 40.8501 73.2265C40.8401 73.7665 41.0301 73.9465 41.5601 73.9365C43.6601 73.9165 45.7701 73.9165 47.8701 73.9365C48.4101 73.9465 48.5801 73.7465 48.5801 73.2165C48.5601 71.1165 48.5501 69.0065 48.5801 66.9065C48.5901 66.2665 48.2801 66.1665 47.7501 66.1765C46.7401 66.2065 45.7201 66.1865 44.7101 66.1865Z" fill="#222C4F"/>
<path d="M20.2901 96.0765C19.6701 95.5065 19.4201 94.8165 19.4301 93.9665C19.4501 90.5365 19.4501 87.1165 19.4301 83.6865C19.4301 82.8465 19.6101 82.1265 20.2801 81.5765C20.7701 81.3565 21.3001 81.3365 21.8301 81.3365C25.2601 81.3365 28.6801 81.3265 32.1101 81.3365C33.8801 81.3365 34.4701 81.9265 34.4701 83.7265C34.4801 87.1165 34.4801 90.5065 34.4701 93.8965C34.4701 95.7065 33.8401 96.3165 32.0001 96.3265C28.6501 96.3265 25.3001 96.3165 21.9501 96.3365C21.3801 96.3265 20.8301 96.2665 20.2901 96.0765ZM30.8701 88.8565C30.8701 87.8065 30.8501 86.7465 30.8801 85.6965C30.9001 85.1365 30.7501 84.8865 30.1301 84.8865C28.0301 84.9165 25.9201 84.9065 23.8101 84.8865C23.2401 84.8765 23.0201 85.0465 23.0201 85.6565C23.0501 87.7565 23.0401 89.8665 23.0201 91.9765C23.0201 92.4865 23.1401 92.7165 23.7101 92.7065C25.8501 92.6765 28.0001 92.6765 30.1401 92.7065C30.7901 92.7165 30.8801 92.4365 30.8701 91.8965C30.8501 90.8965 30.8701 89.8765 30.8701 88.8565Z" fill="#222C4F"/>
<path d="M56.4601 62.5767C60.1801 62.5767 63.8901 62.5867 67.6101 62.5867C69.3601 62.5867 69.9701 63.1767 69.9701 64.9567C69.9801 68.2967 69.9801 71.6367 69.9701 74.9867C69.9701 76.9067 69.4601 77.4367 67.5401 77.5967C64.1901 77.5867 60.8301 77.5667 57.4801 77.5567C55.5601 77.5467 54.9501 76.9667 54.9501 75.0767C54.9401 71.6867 54.9601 68.2967 54.9401 64.8967C54.9401 63.7667 55.2501 62.8967 56.4601 62.5767ZM62.4601 73.9367C63.5501 73.9367 64.6401 73.9167 65.7301 73.9467C66.2201 73.9567 66.3801 73.7767 66.3801 73.2967C66.3601 71.1567 66.3601 69.0067 66.3801 66.8667C66.3901 66.3267 66.2101 66.1367 65.6701 66.1367C63.5301 66.1567 61.3801 66.1567 59.2401 66.1367C58.7001 66.1367 58.5201 66.3267 58.5301 66.8667C58.5501 68.9767 58.5601 71.0767 58.5301 73.1867C58.5201 73.7767 58.7001 73.9767 59.3001 73.9567C60.3501 73.9067 61.4101 73.9367 62.4601 73.9367Z" fill="#222C4F"/>
<path d="M56.4601 81.3467C60.1801 81.3467 63.8901 81.3567 67.6101 81.3567C69.3601 81.3567 69.9701 81.9467 69.9701 83.7267C69.9801 87.0667 69.9801 90.4067 69.9701 93.7567C69.9701 95.6767 69.4601 96.2067 67.5401 96.3667C64.1901 96.3567 60.8301 96.3367 57.4801 96.3267C55.5601 96.3167 54.9501 95.7367 54.9501 93.8467C54.9401 90.4567 54.9601 87.0667 54.9401 83.6667C54.9401 82.5367 55.2501 81.6567 56.4601 81.3467ZM66.3701 88.7567C66.3701 87.7367 66.3501 86.7267 66.3801 85.7167C66.4001 85.1567 66.2601 84.8967 65.6401 84.9067C63.5401 84.9367 61.4301 84.9267 59.3201 84.9067C58.7501 84.8967 58.5201 85.0567 58.5301 85.6667C58.5601 87.7667 58.5501 89.8767 58.5301 91.9867C58.5301 92.4967 58.6501 92.7267 59.2101 92.7267C61.3501 92.6967 63.5001 92.6967 65.6401 92.7267C66.2801 92.7367 66.3801 92.4667 66.3701 91.9167C66.3501 90.8567 66.3701 89.8067 66.3701 88.7567Z" fill="#222C4F"/>
<path d="M67.5401 102.667C68.4001 102.877 69.0901 103.277 69.3001 104.207C69.5501 105.317 68.6901 106.287 67.4101 106.297C65.1201 106.327 62.8201 106.327 60.5301 106.337C59.3501 105.917 58.7701 105.177 58.9801 104.227C59.2201 103.147 59.9901 102.717 61.0401 102.707C63.2101 102.697 65.3801 102.687 67.5401 102.667Z" fill="#222C4F"/>
<path d="M53.4201 106.327C51.9901 106.317 51.2201 105.657 51.2501 104.487C51.2801 103.347 52.1101 102.707 53.5201 102.707C54.8801 102.707 55.7701 103.437 55.7701 104.537C55.7801 105.677 54.9201 106.337 53.4201 106.327Z" fill="#222C4F"/>
<path d="M44.7101 29.1967C43.5101 29.1967 42.3001 29.1867 41.1001 29.1967C40.0501 29.2067 39.4601 28.6067 39.3301 27.6667C39.2001 26.6967 39.7201 26.0167 40.6801 25.7367C41.0001 25.6467 41.3401 25.5967 41.6701 25.5867C43.7001 25.5767 45.7301 25.5767 47.7601 25.5767C48.4101 25.5767 49.0401 25.6667 49.5301 26.1567C50.0501 26.6667 50.3001 27.2767 50.0301 27.9967C49.7501 28.7167 49.2701 29.1967 48.4301 29.1967C47.1901 29.1867 45.9501 29.1867 44.7101 29.1967Z" fill="#222C4F"/>
<path d="M44.6801 124.407C43.1401 124.407 41.6001 124.417 40.0601 124.407C38.8601 124.397 38.1501 123.727 38.1501 122.677C38.1501 121.627 38.8601 120.957 40.0601 120.947C43.1801 120.937 46.3001 120.927 49.4201 120.947C50.5501 120.957 51.2501 121.617 51.2701 122.617C51.3001 123.677 50.5901 124.387 49.4101 124.407C47.8401 124.417 46.2601 124.407 44.6801 124.407Z" fill="#222C4F"/>
<path d="M26.8501 55.1666C25.8401 55.1666 24.8201 55.1366 23.8101 55.1766C23.2201 55.1966 23.0201 54.9866 23.0301 54.3966C23.0601 52.3266 23.0501 50.2666 23.0301 48.1966C23.0201 47.6166 23.2201 47.3966 23.8101 47.4066C25.9101 47.4266 28.0201 47.4266 30.1201 47.4066C30.7101 47.3966 30.9001 47.6266 30.9001 48.2066C30.8801 50.2766 30.8701 52.3366 30.9001 54.4066C30.9101 54.9966 30.7001 55.1966 30.1201 55.1866C29.0301 55.1466 27.9401 55.1666 26.8501 55.1666Z" fill="#E84D75"/>
<path d="M26.9701 73.9366C25.9201 73.9366 24.8601 73.9166 23.8101 73.9466C23.2301 73.9666 23.0101 73.7566 23.0201 73.1666C23.0401 71.1366 23.0401 69.1066 23.0201 67.0766C23.0101 66.4566 23.2101 66.2066 23.8601 66.2166C25.9301 66.2466 27.9901 66.2466 30.0601 66.2166C30.6901 66.2066 30.9201 66.4266 30.9101 67.0666C30.8801 69.0966 30.8901 71.1266 30.9101 73.1566C30.9201 73.7366 30.7201 73.9666 30.1301 73.9466C29.0701 73.9166 28.0201 73.9366 26.9701 73.9366Z" fill="#EC6467"/>
<path d="M62.5301 47.4565C63.5101 47.4565 64.4901 47.4865 65.4601 47.4465C66.1001 47.4265 66.4201 47.5765 66.4101 48.3165C66.3701 50.3465 66.3801 52.3765 66.4101 54.4065C66.4201 55.0065 66.1801 55.1865 65.6101 55.1765C63.5101 55.1565 61.4001 55.1565 59.3001 55.1765C58.7001 55.1865 58.5201 54.9465 58.5201 54.3765C58.5401 52.3465 58.5501 50.3165 58.5201 48.2865C58.5101 47.6465 58.7501 47.4265 59.3801 47.4465C60.4201 47.4765 61.4801 47.4565 62.5301 47.4565Z" fill="#EC6467"/>
<path d="M48.5601 89.1367C48.4301 90.1467 49.1001 91.7267 48.3001 92.4967C47.5701 93.2167 46.0101 92.6667 44.8101 92.7067C43.8001 92.7367 42.7801 92.6867 41.7601 92.7267C41.1001 92.7567 40.8201 92.5667 40.8301 91.8467C40.8701 89.8567 40.8701 87.8567 40.8301 85.8667C40.8201 85.1467 41.1101 84.9767 41.7701 84.9867C43.7301 85.0167 45.6801 85.0267 47.6401 84.9867C48.4301 84.9667 48.6001 85.2967 48.5701 85.9867C48.5301 86.9567 48.5601 87.9367 48.5601 89.1367Z" fill="#EC6467"/>
<path d="M48.5801 51.347C48.5801 52.357 48.5601 53.377 48.5901 54.387C48.6101 54.937 48.4901 55.1869 47.8601 55.1769C45.7601 55.1369 43.6501 55.1369 41.5501 55.1769C40.9101 55.1869 40.8201 54.917 40.8301 54.377C40.8501 52.307 40.8601 50.247 40.8201 48.177C40.8101 47.507 41.0501 47.367 41.6701 47.377C43.7001 47.407 45.7301 47.407 47.7601 47.377C48.3801 47.367 48.6301 47.527 48.6001 48.187C48.5401 49.237 48.5801 50.287 48.5801 51.347Z" fill="#FAD439"/>
<path d="M44.7101 66.1869C45.7201 66.1869 46.7401 66.2069 47.7501 66.1769C48.2801 66.1669 48.5901 66.2669 48.5801 66.9069C48.5501 69.0069 48.5601 71.1169 48.5801 73.2169C48.5901 73.7469 48.4101 73.9469 47.8701 73.9369C45.7701 73.9169 43.6601 73.9169 41.5601 73.9369C41.0201 73.9469 40.8401 73.7569 40.8501 73.2269C40.8701 71.1269 40.8801 69.0169 40.8501 66.9169C40.8401 66.2869 41.1401 66.1669 41.6701 66.1769C42.6801 66.2069 43.6901 66.1869 44.7101 66.1869Z" fill="#EC6467"/>
<path d="M30.8701 88.8565C30.8701 89.8765 30.8501 90.8865 30.8801 91.8965C30.9001 92.4365 30.8001 92.7165 30.1501 92.7065C28.0101 92.6665 25.8601 92.6765 23.7201 92.7065C23.1601 92.7165 23.0301 92.4865 23.0301 91.9765C23.0501 89.8665 23.0601 87.7665 23.0301 85.6565C23.0201 85.0465 23.2501 84.8865 23.8201 84.8865C25.9201 84.9065 28.0301 84.9165 30.1401 84.8865C30.7501 84.8765 30.9001 85.1265 30.8901 85.6965C30.8501 86.7565 30.8701 87.8065 30.8701 88.8565Z" fill="#F7D03A"/>
<path d="M62.4601 73.937C61.4101 73.937 60.3501 73.9069 59.3001 73.9469C58.7001 73.9669 58.5301 73.7669 58.5301 73.1769C58.5601 71.0769 58.5601 68.9669 58.5301 66.8569C58.5201 66.3169 58.7001 66.127 59.2401 66.127C61.3801 66.147 63.5301 66.147 65.6701 66.127C66.2101 66.127 66.3801 66.3169 66.3801 66.8569C66.3601 68.9969 66.3601 71.1469 66.3801 73.2869C66.3801 73.7769 66.2201 73.947 65.7301 73.937C64.6401 73.917 63.5501 73.937 62.4601 73.937Z" fill="#F7D03A"/>
<path d="M66.3701 88.7567C66.3701 89.8067 66.3501 90.8667 66.3801 91.9167C66.4001 92.4567 66.2901 92.7367 65.6501 92.7267C63.5101 92.6867 61.3601 92.6967 59.2201 92.7267C58.6501 92.7367 58.5301 92.4967 58.5401 91.9867C58.5601 89.8767 58.5701 87.7767 58.5401 85.6667C58.5301 85.0567 58.7601 84.8967 59.3301 84.9067C61.4301 84.9267 63.5401 84.9367 65.6501 84.9067C66.2701 84.8967 66.4101 85.1567 66.3901 85.7167C66.3501 86.7167 66.3701 87.7367 66.3701 88.7567Z" fill="#F7D03A"/>
<path d="M91.83 56.2168L82.15 56.7868C81.53 56.8268 81.01 56.3568 80.97 55.7368L80.94 55.3168C80.9 54.6968 81.37 54.1768 81.99 54.1368L91.67 53.5668C92.29 53.5268 92.81 53.9968 92.85 54.6168L92.88 55.0368C92.91 55.6568 92.44 56.1868 91.83 56.2168Z" fill="#1E4188"/>
<path d="M80.62 44.8669L86.23 36.9569C86.59 36.4569 87.28 36.3369 87.79 36.6969L88.14 36.9469C88.64 37.3069 88.76 37.9969 88.4 38.5069L82.79 46.4169C82.43 46.9169 81.74 47.0369 81.23 46.6769L80.88 46.4269C80.38 46.0669 80.26 45.3769 80.62 44.8669Z" fill="#FFCD02"/>
<path d="M85.7801 74.9465L80.9301 66.5465C80.6201 66.0165 80.8001 65.3265 81.3401 65.0265L81.7101 64.8165C82.2401 64.5065 82.93 64.6865 83.23 65.2265L88.08 73.6265C88.39 74.1565 88.21 74.8465 87.67 75.1465L87.3 75.3565C86.77 75.6565 86.0901 75.4765 85.7801 74.9465Z" fill="#EC6467"/>
<path d="M9.44998 0.666771L13.39 9.52677C13.64 10.0868 13.39 10.7468 12.82 10.9968L12.43 11.1668C11.87 11.4168 11.21 11.1668 10.96 10.5968L7.01999 1.73677C6.76999 1.17677 7.02 0.51677 7.59 0.26677L7.97998 0.0967715C8.53998 -0.153228 9.19998 0.0967712 9.44998 0.666771Z" fill="#1E4188"/>
<path d="M7.18999 17.3366L0.33 10.4766C-0.11 10.0366 -0.11 9.3366 0.33 8.8966L0.629988 8.5966C1.06999 8.1566 1.77 8.1566 2.21 8.5966L9.06999 15.4566C9.50999 15.8966 9.50999 16.5966 9.06999 17.0366L8.77 17.3366C8.33 17.7666 7.62999 17.7666 7.18999 17.3366Z" fill="#FFCD02"/>
<path d="M20.91 2.80671L20.11 12.4767C20.06 13.0867 19.52 13.5467 18.91 13.4967L18.49 13.4567C17.88 13.4067 17.42 12.8667 17.47 12.2567L18.27 2.5867C18.32 1.9767 18.86 1.51671 19.47 1.56671L19.89 1.60671C20.5 1.64671 20.96 2.18671 20.91 2.80671Z" fill="#EC6467"/>
</svg>
