<svg width="136" height="136" viewBox="0 0 136 136" fill="none" xmlns="http://www.w3.org/2000/svg">
<path d="M67.75 0C79.46 0 91.16 0 102.87 0C108.52 0 111.73 3.2 111.74 8.84C111.75 14.3 111.78 19.75 111.71 25.21C111.7 26.34 111.94 26.7 113.13 26.68C117.94 26.61 122.75 26.64 127.57 26.65C132.28 26.66 135.28 29.63 135.28 34.37C135.29 57.46 135.29 80.55 135.28 103.64C135.28 108.24 132.42 111.06 127.83 111.07C110.8 111.08 93.77 111.07 76.74 111.07C75.14 111.07 75.14 111.07 75.54 112.6C76.31 115.5 77.14 118.38 77.84 121.3C78.11 122.42 78.61 122.71 79.73 122.69C83.34 122.61 86.95 122.64 90.56 122.66C95.51 122.69 99.14 126.2 99.34 131.14C99.38 132.06 99.36 132.99 99.37 133.92C99.38 135.02 98.84 135.54 97.75 135.51C97.47 135.5 97.19 135.51 96.92 135.51C77.48 135.51 58.05 135.51 38.61 135.51C36.15 135.51 35.83 135.17 35.79 132.72C35.76 130.76 35.78 128.83 36.83 127.08C38.5 124.31 40.91 122.71 44.2 122.67C48.09 122.63 51.98 122.59 55.86 122.69C57.06 122.72 57.44 122.28 57.7 121.24C58.43 118.28 59.19 115.33 60.06 112.41C60.4 111.26 60.17 111.04 59.02 111.04C41.95 111.07 24.87 111.05 7.8 111.08C5.88 111.08 4.11 110.74 2.61 109.51C0.779997 108 0 106.01 0 103.65C0.02 90.79 0.00999832 77.92 0.00999832 65.06C0.00999832 54.88 0.00999832 44.7 0.00999832 34.52C0.00999832 29.46 2.84 26.66 7.94 26.65C12.75 26.65 17.57 26.62 22.38 26.67C23.35 26.68 23.61 26.41 23.6 25.44C23.55 19.8 23.57 14.15 23.58 8.51C23.59 3.33 26.9 0 32.07 0C43.97 0 55.86 0 67.75 0ZM67.77 22.71C54.63 22.71 41.48 22.72 28.34 22.68C27.22 22.68 26.88 22.89 26.88 24.09C26.92 42.74 26.91 61.39 26.91 80.04C26.91 83.83 28.62 85.53 32.41 85.53C55.87 85.53 79.34 85.53 102.8 85.53C106.7 85.53 108.4 83.85 108.4 79.99C108.4 61.39 108.39 42.79 108.43 24.18C108.43 22.94 108.11 22.68 106.91 22.68C93.87 22.73 80.82 22.71 67.77 22.71ZM67.62 107.99C87.61 107.99 107.6 107.99 127.59 107.99C130.32 107.99 131.94 106.51 131.94 103.9C131.95 80.76 131.95 57.63 131.94 34.49C131.94 31.66 130.47 30.25 127.64 30.24C123.48 30.23 119.31 30.24 115.15 30.24C111.69 30.24 111.74 30.24 111.7 33.68C111.69 34.79 112.09 34.96 113.07 34.94C116.82 34.89 120.57 34.92 124.31 34.92C127.01 34.92 127.28 35.18 127.28 37.82C127.28 56.61 127.28 75.39 127.28 94.18C127.28 96.87 126.82 97.33 124.14 97.33C86.47 97.33 48.8 97.33 11.14 97.33C10.86 97.33 10.58 97.34 10.31 97.33C8.61 97.28 8.05 96.75 8.05 95.07C8.04 75.78 8.04 56.48 8.05 37.18C8.05 35.4 8.56 34.92 10.4 34.91C13.69 34.9 16.97 34.91 20.26 34.91C23.63 34.91 23.57 34.91 23.64 31.53C23.66 30.37 23.25 30.19 22.23 30.2C17.51 30.25 12.79 30.22 8.07 30.22C4.78 30.22 3.37 31.63 3.37 34.95C3.37 57.72 3.37 80.48 3.37 103.25C3.37 106.55 4.78 107.97 8.09 107.97C27.92 107.99 47.77 107.99 67.62 107.99ZM67.54 94.04C70.69 94.04 73.83 94.04 76.98 94.04C92.06 94.04 107.15 94.04 122.23 94.04C123.08 94.04 123.83 94.19 123.83 92.84C123.79 75.12 123.8 57.4 123.83 39.68C123.83 38.65 123.44 38.46 122.53 38.47C119.48 38.51 116.42 38.56 113.37 38.45C112.02 38.41 111.69 38.82 111.7 40.14C111.75 53.56 111.74 66.97 111.73 80.39C111.73 85.34 108.51 88.59 103.61 88.6C79.74 88.61 55.86 88.61 31.99 88.6C31.16 88.6 30.33 88.6 29.51 88.37C25.9 87.37 23.63 84.35 23.62 80.43C23.61 66.97 23.59 53.5 23.65 40.04C23.66 38.73 23.26 38.42 22.02 38.45C19.06 38.53 16.1 38.54 13.14 38.45C11.8 38.41 11.35 38.69 11.36 40.16C11.42 57.56 11.42 74.95 11.36 92.35C11.35 93.84 11.83 94.05 13.15 94.05C31.26 94.02 49.4 94.04 67.54 94.04ZM67.63 19.13C80.68 19.13 93.73 19.11 106.78 19.16C107.98 19.16 108.46 18.95 108.4 17.61C108.28 14.75 108.37 11.87 108.36 9C108.36 5.04 106.66 3.34 102.72 3.34C79.35 3.34 55.98 3.34 32.6 3.34C32.18 3.34 31.76 3.32 31.35 3.36C28.73 3.59 26.94 5.51 26.93 8.13C26.91 11.32 26.98 14.52 26.9 17.71C26.87 18.86 27.16 19.16 28.33 19.16C41.44 19.12 54.54 19.13 67.63 19.13ZM67.7 132.18C76.77 132.18 85.83 132.16 94.9 132.21C96.07 132.22 96.29 131.84 96.17 130.79C95.87 128.12 93.76 126.25 90.81 126.23C85.59 126.2 80.36 126.22 75.14 126.22C65.29 126.22 55.44 126.22 45.59 126.22C45.04 126.22 44.48 126.22 43.93 126.27C41.55 126.5 39.68 128.41 39.4 130.78C39.28 131.81 39.47 132.21 40.66 132.21C49.66 132.15 58.68 132.18 67.7 132.18ZM74.94 122.67C73.92 118.91 72.91 115.27 71.94 111.62C71.81 111.15 71.53 111.07 71.13 111.07C68.91 111.07 66.69 111.08 64.47 111.07C64 111.07 63.73 111.19 63.59 111.71C62.7 115.1 61.77 118.48 60.85 121.87C60.69 122.44 60.82 122.69 61.49 122.69C65.93 122.66 70.36 122.67 74.94 122.67Z" fill="#222C4F"/>
<path d="M58.39 102.64C58.39 101.03 57.07 99.6902 55.51 99.7202C53.99 99.7502 52.74 101.04 52.72 102.59C52.7 104.3 53.85 105.5 55.53 105.51C57.22 105.52 58.39 104.34 58.39 102.64ZM82.83 102.6C82.81 101 81.46 99.6602 79.91 99.7202C78.38 99.7802 77.16 101.06 77.16 102.63C77.15 104.34 78.32 105.52 80.01 105.52C81.69 105.5 82.84 104.31 82.83 102.6ZM64.95 102.58C64.93 104.28 66.07 105.48 67.74 105.5C69.41 105.51 70.6 104.33 70.6 102.65C70.6 101.07 69.26 99.7102 67.74 99.7302C66.25 99.7602 64.97 101.07 64.95 102.58Z" fill="#D7E6F7"/>
<path d="M67.63 19.13C54.53 19.13 41.43 19.11 28.34 19.16C27.17 19.16 26.88 18.86 26.91 17.71C26.99 14.52 26.93 11.32 26.94 8.12996C26.95 5.49996 28.74 3.57996 31.36 3.35996C31.77 3.31996 32.19 3.33996 32.61 3.33996C55.98 3.33996 79.35 3.33996 102.73 3.33996C106.67 3.33996 108.37 5.03996 108.37 8.99996C108.37 11.87 108.29 14.74 108.41 17.61C108.46 18.95 107.99 19.16 106.79 19.16C93.74 19.12 80.69 19.13 67.63 19.13ZM85.87 16.45V16.46C90.4 16.46 94.93 16.5 99.46 16.45C102.56 16.41 104.7 14.26 104.7 11.35C104.69 8.44997 102.55 6.28996 99.45 6.26996C90.39 6.22996 81.33 6.25996 72.27 6.25996C71.13 6.25996 70.08 6.55996 69.17 7.26996C67.41 8.63996 66.69 10.9 67.34 12.97C67.98 15.02 69.72 16.4 72.01 16.43C76.62 16.49 81.24 16.45 85.87 16.45ZM35.6 6.26996C32.67 6.24996 30.5 8.35996 30.47 11.28C30.43 14.22 32.53 16.4 35.44 16.45C38.44 16.5 40.64 14.35 40.64 11.37C40.65 8.42996 38.54 6.28996 35.6 6.26996ZM48.68 6.26996C45.75 6.25996 43.6 8.39996 43.59 11.32C43.58 14.26 45.68 16.42 48.6 16.45C51.56 16.48 53.85 14.24 53.82 11.33C53.79 8.44996 51.58 6.26996 48.68 6.26996Z" fill="#EC6467"/>
<path d="M50.55 44.0101C50.13 34.5601 58.44 26.6401 67.77 26.6401C77.23 26.6501 85.09 34.6001 85.09 44.1501C85.09 53.0301 77.26 61.5101 67.5 61.3801C58.41 61.2601 50.02 53.1301 50.55 44.0101ZM67.42 54.9201C74.59 54.8601 79.62 48.4401 77.92 41.5001C76.82 37.0301 73.52 34.1001 68.78 33.4201C64.61 32.8201 60.38 34.9801 58.19 38.8101C57.93 39.2601 57.86 39.9001 57.04 39.6501C56.38 39.4501 55.73 39.6101 55.36 40.2701C54.99 40.9301 55.07 41.5801 55.48 42.2301C56.05 43.1301 56.54 44.0701 57.12 44.9501C57.77 45.9301 58.71 46.0901 59.64 45.4801C60.64 44.8301 61.58 44.0601 62.46 43.2401C63.32 42.4301 63.34 41.2601 62.41 40.7501C61.19 40.0801 61.83 39.6001 62.36 39.0201C64.45 36.7401 67.78 36.0301 70.62 37.2501C73.58 38.5301 75.3 41.4401 75.04 44.7201C74.79 47.8201 72.62 50.3101 69.55 51.1001C68.54 51.3601 67.53 51.2801 66.52 51.3301C65.24 51.3901 64.6 52.0801 64.71 53.2501C64.81 54.4701 65.58 54.9401 67.42 54.9201Z" fill="#222C4F"/>
<path d="M67.91 65.3198C77.58 65.3198 87.25 65.3198 96.92 65.3198C100.64 65.3198 102.21 66.9098 102.21 70.6498C102.21 71.4798 102.21 72.3198 102.21 73.1498C102.2 76.1598 100.2 78.2198 97.2 78.2398C93.96 78.2698 90.72 78.2498 87.48 78.2498C71.33 78.2498 55.18 78.2498 39.04 78.2498C35.09 78.2498 33.58 76.7498 33.57 72.8298C33.57 71.7698 33.55 70.6998 33.58 69.6398C33.65 67.3198 35.06 65.7498 37.37 65.4298C37.96 65.3498 38.57 65.3398 39.17 65.3398C48.76 65.3198 58.33 65.3198 67.91 65.3198ZM67.75 68.5598C61.37 68.5398 54.99 68.5198 48.61 68.5098C45.19 68.4998 41.77 68.5298 38.35 68.4998C37.38 68.4898 36.88 68.7798 36.93 69.8498C36.99 70.9998 36.97 72.1598 36.93 73.3198C36.9 74.2598 37.29 74.6798 38.23 74.6798C48.08 74.6598 57.92 74.6498 67.77 74.6298C77.62 74.6398 87.47 74.6598 97.32 74.6698C98.34 74.6698 98.86 74.1698 98.87 73.1498C98.87 72.2698 98.87 71.3898 98.87 70.5098C98.87 68.5298 98.82 68.4798 96.87 68.4798C87.58 68.4798 78.28 68.4798 68.99 68.4798C68.57 68.4698 68.16 68.5298 67.75 68.5598Z" fill="#313576"/>
<path d="M58.39 102.64C58.39 104.34 57.22 105.52 55.53 105.51C53.85 105.5 52.7 104.3 52.72 102.59C52.74 101.04 53.99 99.7502 55.51 99.7202C57.06 99.6902 58.38 101.02 58.39 102.64Z" fill="#FFCD02"/>
<path d="M82.83 102.6C82.85 104.31 81.69 105.5 80.01 105.51C78.32 105.52 77.16 104.33 77.16 102.62C77.17 101.05 78.38 99.7699 79.91 99.7099C81.45 99.6599 82.81 101 82.83 102.6Z" fill="#FFCD02"/>
<path d="M64.95 102.58C64.97 101.07 66.25 99.76 67.74 99.73C69.26 99.7 70.6 101.07 70.6 102.65C70.6 104.33 69.42 105.51 67.74 105.5C66.08 105.49 64.93 104.28 64.95 102.58Z" fill="#EC6467"/>
<path d="M85.87 16.4498C81.25 16.4498 76.63 16.4898 72 16.4298C69.7 16.3998 67.97 15.0198 67.33 12.9698C66.68 10.8998 67.41 8.63982 69.16 7.26982C70.07 6.55982 71.11 6.25982 72.26 6.25982C81.32 6.25982 90.38 6.22982 99.44 6.26982C102.54 6.27982 104.69 8.44983 104.69 11.3498C104.7 14.2598 102.55 16.4098 99.45 16.4498C94.92 16.5098 90.39 16.4598 85.86 16.4598C85.87 16.4598 85.87 16.4498 85.87 16.4498ZM85.83 13.1098C90.36 13.1098 94.89 13.1098 99.42 13.1098C100.58 13.1098 101.29 12.5598 101.3 11.3798C101.31 10.2098 100.64 9.60983 99.47 9.59983C99.05 9.59983 98.64 9.59983 98.22 9.59983C90.09 9.59983 81.95 9.59983 73.82 9.59983C73.17 9.59983 72.52 9.59982 71.88 9.65982C71.16 9.72982 70.7 10.1798 70.54 10.8698C70.38 11.5798 70.44 12.2598 71.07 12.7598C71.58 13.1698 72.2 13.1098 72.8 13.1098C77.15 13.1198 81.49 13.1198 85.83 13.1098Z" fill="#303575"/>
<path d="M35.6 6.27016C38.53 6.29016 40.65 8.43016 40.64 11.3702C40.64 14.3502 38.43 16.5002 35.44 16.4502C32.52 16.4002 30.43 14.2202 30.47 11.2802C30.51 8.36016 32.67 6.25016 35.6 6.27016ZM37.3 11.1402C37.21 10.3402 36.73 9.66016 35.68 9.64016C34.6 9.61016 33.95 10.2202 33.84 11.2902C33.75 12.2202 34.6 13.0802 35.54 13.1002C36.47 13.1102 37.29 12.2902 37.3 11.1402Z" fill="#2E3373"/>
<path d="M48.68 6.27005C51.58 6.28005 53.8 8.45005 53.82 11.3301C53.84 14.2401 51.56 16.4801 48.6 16.4501C45.68 16.4201 43.58 14.26 43.59 11.32C43.6 8.40005 45.75 6.26005 48.68 6.27005ZM48.68 9.61005C47.72 9.63005 46.91 10.45 46.93 11.39C46.95 12.32 47.82 13.1701 48.75 13.0901C49.77 13.0001 50.33 12.3401 50.43 11.3601C50.52 10.4101 49.66 9.60005 48.68 9.61005Z" fill="#2E3373"/>
<path d="M67.42 54.9201C65.58 54.9401 64.81 54.4701 64.7 53.2701C64.6 52.0901 65.23 51.4101 66.51 51.3501C67.52 51.3001 68.53 51.3901 69.54 51.1201C72.61 50.3301 74.78 47.8401 75.03 44.7401C75.29 41.4601 73.57 38.5601 70.61 37.2701C67.78 36.0401 64.44 36.7501 62.35 39.0401C61.82 39.6201 61.18 40.1001 62.4 40.7701C63.33 41.2801 63.31 42.4501 62.45 43.2601C61.58 44.0801 60.64 44.8501 59.63 45.5001C58.7 46.1101 57.75 45.9501 57.11 44.9701C56.53 44.0901 56.03 43.1501 55.47 42.2501C55.06 41.6001 54.98 40.9501 55.35 40.2901C55.72 39.6301 56.37 39.4701 57.03 39.6701C57.86 39.9201 57.93 39.2801 58.18 38.8301C60.36 35.0001 64.6 32.8401 68.77 33.4401C73.5 34.1201 76.81 37.0401 77.91 41.5201C79.62 48.4401 74.59 54.8601 67.42 54.9201Z" fill="#FFCD02"/>
<path d="M67.75 68.56C67.76 70.58 67.77 72.6 67.78 74.62C57.93 74.63 48.09 74.65 38.24 74.67C37.3 74.67 36.91 74.25 36.94 73.31C36.98 72.16 37 71 36.94 69.84C36.88 68.78 37.39 68.48 38.36 68.49C41.78 68.52 45.2 68.49 48.62 68.5C54.99 68.52 61.37 68.54 67.75 68.56Z" fill="#EC6467"/>
<path d="M30.66 46.78L40.24 48.32C40.85 48.42 41.26 48.99 41.16 49.6L41.09 50.02C40.99 50.63 40.42 51.04 39.81 50.94L30.23 49.4C29.62 49.3 29.21 48.73 29.31 48.12L29.38 47.7C29.48 47.1 30.05 46.69 30.66 46.78Z" fill="#1E4188"/>
<path d="M43.39 57.7896L33.9 59.7896C33.3 59.9196 32.71 59.5296 32.58 58.9296L32.49 58.5096C32.36 57.9096 32.75 57.3096 33.35 57.1896L42.84 55.1896C43.44 55.0596 44.03 55.4496 44.16 56.0496L44.25 56.4696C44.38 57.0696 43.99 57.6596 43.39 57.7896Z" fill="#FFCD02"/>
<path d="M38.71 38.3598L46.37 44.3098C46.86 44.6898 46.94 45.3898 46.57 45.8798L46.31 46.2198C45.93 46.7098 45.23 46.7898 44.74 46.4198L37.08 40.4698C36.59 40.0898 36.51 39.3898 36.88 38.8998L37.14 38.5598C37.52 38.0698 38.22 37.9798 38.71 38.3598Z" fill="#EC6467"/>
<path d="M101.7 40.3999L92.43 43.2599C91.84 43.4399 91.22 43.1099 91.03 42.5199L90.9 42.1099C90.72 41.5199 91.05 40.8999 91.64 40.7099L100.91 37.8499C101.5 37.6699 102.12 37.9999 102.31 38.5899L102.44 38.9999C102.62 39.5899 102.29 40.2199 101.7 40.3999Z" fill="#1E4188"/>
<path d="M85.42 36.1597L93.05 30.1697C93.53 29.7897 94.24 29.8697 94.62 30.3597L94.88 30.6897C95.26 31.1697 95.18 31.8797 94.69 32.2597L87.06 38.2497C86.58 38.6297 85.87 38.5497 85.49 38.0597L85.23 37.7297C84.85 37.2397 84.94 36.5397 85.42 36.1597Z" fill="#FFCD02"/>
<path d="M98.21 51.5197L88.71 49.5697C88.11 49.4497 87.72 48.8597 87.84 48.2497L87.93 47.8297C88.05 47.2297 88.64 46.8397 89.25 46.9597L98.75 48.9097C99.35 49.0297 99.74 49.6197 99.62 50.2297L99.53 50.6497C99.41 51.2497 98.82 51.6397 98.21 51.5197Z" fill="#EC6467"/>
</svg>
